<?xml version="1.0" encoding="UTF-8" standalone="no"?>
<svg
   xmlns:dc="http://purl.org/dc/elements/1.1/"
   xmlns:cc="http://creativecommons.org/ns#"
   xmlns:rdf="http://www.w3.org/1999/02/22-rdf-syntax-ns#"
   xmlns:svg="http://www.w3.org/2000/svg"
   xmlns="http://www.w3.org/2000/svg"
   viewBox="0 0 816 1056"
   height="1056"
   width="816"
   xml:space="preserve"
   id="svg2"
   version="1.1"><metadata
     id="metadata8"><rdf:RDF><cc:Work
         rdf:about=""><dc:format>image/svg+xml</dc:format><dc:type
           rdf:resource="http://purl.org/dc/dcmitype/StillImage" /></cc:Work></rdf:RDF></metadata><defs
     id="defs6"><clipPath
       id="clipPath18"
       clipPathUnits="userSpaceOnUse"><path
         id="path16"
         d="M 0,792 H 612 V 0 H 0 Z" /></clipPath><clipPath
       id="clipPath26"
       clipPathUnits="userSpaceOnUse"><path
         id="path24"
         d="M -194,896 H 806 V -104 H -194 Z" /></clipPath></defs><g
     transform="matrix(1.3333333,0,0,-1.3333333,0,1056)"
     id="g10"><g
       id="g12"><g
         clip-path="url(#clipPath18)"
         id="g14"><g
           id="g20"><g
             id="g22" /><g
             id="g166"><g
               id="g164"
               clip-path="url(#clipPath26)"><path
                 id="path28"
                 style="fill:#fefefe;fill-opacity:1;fill-rule:nonzero;stroke:none"
                 d="m 425.14,55.139 h 7.327 v 6.556 h -7.327 z m 8.297,-27.614 v 21.979 c -4.578,0 -8.57,0.234 -12.503,-0.145 -1.168,-0.112 -2.17,-1.949 -3.248,-2.997 1.14,-1.125 2.103,-2.791 3.467,-3.239 1.718,-0.565 3.764,-0.137 5.631,-0.137 V 27.521 c -2.815,0 -5.511,0.364 -8.029,-0.146 -1.386,-0.279 -2.473,-2.032 -3.693,-3.121 1.205,-1.087 2.375,-3.067 3.622,-3.115 7.639,-0.294 15.3,-0.291 22.941,-0.014 1.255,0.046 2.443,1.94 3.663,2.98 -1.142,1.14 -2.133,2.988 -3.456,3.268 -2.497,0.527 -5.185,0.152 -8.395,0.152 M 318.534,27.521 v 34.207 c -4.609,0 -8.746,0.235 -12.825,-0.146 -1.199,-0.112 -2.235,-1.972 -3.346,-3.029 1.158,-1.177 2.122,-2.878 3.524,-3.398 1.734,-0.642 3.831,-0.305 5.643,-0.386 V 27.502 c -2.892,0 -5.598,0.377 -8.112,-0.153 -1.324,-0.281 -2.314,-2.146 -3.455,-3.295 1.097,-1.018 2.165,-2.879 3.294,-2.916 7.821,-0.262 15.661,-0.285 23.479,0.006 1.17,0.043 2.264,2.135 3.394,3.281 -1.089,1.032 -2.049,2.712 -3.293,2.958 -2.399,0.474 -4.958,0.138 -8.303,0.138 m 150.328,-7.532 c 9.484,0.021 16.762,6.536 16.651,14.905 -0.117,8.624 -7.716,15.624 -16.894,15.559 -9.189,-0.064 -16.732,-7.228 -16.629,-15.792 0.104,-8.464 7.268,-14.693 16.872,-14.672 m -191.914,0 c 9.459,0.042 16.727,6.63 16.553,15.004 -0.179,8.636 -7.821,15.598 -16.984,15.474 -9.204,-0.125 -16.66,-7.302 -16.527,-15.905 0.131,-8.434 7.325,-14.616 16.958,-14.573 m -151.44,-0.95 c 4.048,1.275 8.26,2.209 12.054,4.018 1.285,0.612 1.512,3.439 2.223,5.255 -1.863,0.202 -3.77,0.761 -5.577,0.533 -3.847,-0.486 -7.625,-1.843 -11.463,-1.99 -4.548,-0.171 -8.155,1.832 -8.698,6.997 -0.457,4.334 2.212,7.979 6.601,9.331 5.021,1.546 9.005,0.031 11.482,-3.901 0.715,-1.136 2.613,-2.418 3.679,-2.202 1.169,0.236 2.59,1.998 2.882,3.32 1.344,6.089 0.005,7.684 -6.412,8.568 -0.971,0.134 -1.884,0.643 -2.851,0.869 -9.827,2.294 -18.745,-1.848 -21.36,-9.896 -3.733,-11.49 3.81,-20.318 17.44,-20.902 m 258.306,22.136 c 0,-3.294 -0.03,-7.787 0.009,-12.28 0.037,-4.187 2.203,-6.872 6.116,-8.112 6.048,-1.917 11.923,-0.772 17.411,1.835 1.374,0.653 1.814,3.272 2.684,4.986 -1.742,0.367 -3.528,1.175 -5.217,1.007 -3.575,-0.355 -7.085,-1.528 -10.653,-1.697 -1.146,-0.055 -3.307,1.896 -3.428,3.089 -0.424,4.204 -0.165,8.476 -0.165,12.98 4.124,0 7.649,-0.329 11.064,0.142 1.667,0.23 3.128,1.952 4.682,2.999 -1.496,1.142 -2.885,3.038 -4.511,3.269 -3.542,0.502 -7.205,0.155 -10.394,0.155 -2.197,3.476 1.521,9.733 -4.562,9.529 -5.608,-0.187 -1.62,-6.113 -4.326,-8.108 -1.738,-1.719 -3.476,-3.439 -5.214,-5.157 1.805,-1.288 3.611,-2.574 6.504,-4.637 M 199.98,19.983 c 9.487,0.018 16.88,6.587 16.719,14.855 -0.172,8.762 -7.612,15.637 -16.847,15.567 -9.258,-0.069 -16.829,-7.176 -16.709,-15.686 0.119,-8.466 7.303,-14.753 16.837,-14.736 m 139.246,21.9 c 0.408,0.08 0.817,0.159 1.225,0.239 v -5.989 c 10e-4,-2.166 -0.066,-4.336 0.016,-6.499 0.231,-6.072 3.706,-9.679 9.733,-9.594 5.87,0.082 11.741,0.525 17.591,1.052 1.055,0.095 2.531,1.178 2.857,2.131 0.336,0.983 -0.176,3.158 -0.871,3.438 -3.219,1.296 -2.562,3.877 -2.573,6.278 -0.023,5.454 -0.007,10.908 -0.007,16.502 -3.731,0 -6.929,0.296 -10.02,-0.151 -1.162,-0.169 -2.633,-1.942 -2.899,-3.207 -0.169,-0.802 1.471,-2.273 2.595,-2.96 0.852,-0.52 2.171,-0.275 3.578,-0.396 v -4.239 c -0.001,-2 0.093,-4.006 -0.025,-5.998 -0.183,-3.059 -4.697,-5.932 -9.087,-5.904 -4.037,0.026 -4.354,2.758 -4.333,5.83 0.038,5.599 0.011,11.197 0.011,17.133 -2.413,0 -4.22,-0.023 -6.027,0.005 -2.55,0.04 -5.644,0.183 -5.622,-3.155 0.011,-1.514 2.495,-3.011 3.858,-4.516 M 493.983,29.096 c -1.996,-1.882 -4.383,-3.078 -4.462,-4.409 -0.209,-3.597 2.757,-4.28 5.548,-3.623 3.524,0.831 9.012,-3.041 10.069,3.614 0.179,1.131 -2.614,2.733 -4.273,4.35 0,2.632 -0.772,5.923 0.229,8.535 0.903,2.357 3.455,4.637 5.836,5.679 1.618,0.708 4.685,-0.174 6.23,-1.425 2.256,-1.825 0.495,-12.389 -1.382,-14.945 -0.863,-1.174 -0.296,-3.398 -0.377,-5.146 4.023,0.029 8.045,0.059 12.068,0.088 -0.093,1.722 0.08,3.515 -0.353,5.147 -0.441,1.66 -1.918,3.098 -2.156,4.746 -0.379,2.611 0.006,5.322 -0.127,7.981 -0.308,6.123 -3.853,10.198 -9.882,10.411 -5.91,0.208 -11.864,-0.223 -17.768,-0.727 -2.979,-0.253 -4.272,-4.043 -1.839,-5.329 3.197,-1.69 2.607,-4.024 2.633,-6.499 0.03,-2.996 0.006,-5.992 0.006,-8.448 M 230.926,40.883 c 6.153,3.875 10.322,3.68 14.687,-0.099 2.115,-1.831 4.012,-2.595 5.653,0.308 2.261,3.998 0.038,7.748 -4.546,7.984 -1.13,0.059 -2.26,0.806 -3.354,0.728 -4.554,-0.323 -9.23,-0.317 -13.596,-1.451 -3.407,-0.886 -5.816,-4.218 -4.563,-7.779 0.905,-2.574 3.346,-5.262 5.804,-6.467 3.014,-1.475 6.785,-1.348 10.18,-2.128 1.747,-0.401 3.388,-1.266 5.462,-2.071 -5.041,-4.342 -12.708,-4.146 -16.545,-0.52 -1.143,1.081 -3.114,1.287 -4.705,1.893 -0.516,-2.439 -1.413,-4.887 -1.364,-7.316 0.02,-0.992 1.944,-2.371 3.258,-2.812 1.948,-0.652 4.147,-0.971 6.195,-0.821 4.89,0.358 9.994,0.379 14.524,1.944 2.225,0.77 4.69,4.705 4.63,7.148 -0.063,2.509 -2.589,5.679 -4.923,7.21 -2.475,1.625 -5.992,1.661 -9.053,2.392 -2.178,0.521 -4.356,1.044 -7.744,1.857 m 322.77,-10.745 c -4.511,-4.688 -12.429,-4.486 -16.507,-0.432 -0.968,0.965 -2.938,2.006 -3.89,1.623 -1.128,-0.452 -2.18,-2.348 -2.336,-3.724 -0.421,-3.69 -0.349,-7.334 5.275,-6.34 1.193,0.211 2.579,-0.858 3.83,-0.755 5.192,0.424 10.547,0.46 15.457,1.928 2.051,0.615 4.341,4.452 4.331,6.815 -0.008,2.403 -2.193,5.643 -4.37,6.983 -2.82,1.738 -6.574,1.962 -9.927,2.83 -2.14,0.554 -4.283,1.093 -7.053,1.799 5.274,3.867 9.856,3.513 14.284,0.237 1.262,-0.935 3.545,-0.487 5.36,-0.673 0.18,2.256 0.85,4.635 0.324,6.714 -0.245,0.963 -2.787,1.416 -4.337,1.954 -1.072,0.372 -2.257,0.783 -3.344,0.679 -4.848,-0.46 -9.897,-0.447 -14.414,-1.969 -1.992,-0.672 -4.129,-4.692 -3.94,-7.007 0.191,-2.345 2.742,-5.347 5.037,-6.465 3.168,-1.543 7.084,-1.506 10.641,-2.31 1.791,-0.404 3.5,-1.171 5.579,-1.887 m -453.234,1.618 c 2.365,11.762 -8.763,22.488 -23.119,17.302 -7.179,-2.593 -10.678,-8.67 -9.806,-16.059 0.768,-6.507 5.857,-12.217 12.801,-12.651 5.527,-0.346 11.204,0.648 16.704,1.65 1.402,0.255 2.387,2.799 3.564,4.291 -1.782,0.66 -3.577,1.904 -5.344,1.865 -4.605,-0.099 -9.21,-1.168 -13.788,-1.018 -2.074,0.068 -4.083,2.108 -6.122,3.254 0.208,0.455 0.416,0.911 0.624,1.366 z m 55.448,-2.922 c -0.298,-0.159 -0.596,-0.318 -0.893,-0.478 0,2.829 -0.261,5.691 0.1,8.473 0.207,1.596 1.07,3.456 2.251,4.509 3.54,3.157 8.398,3.203 10.257,0.46 1.873,-2.763 0.657,-12.919 -1.498,-14.511 -1.005,-0.743 -2.282,-2.467 -2.013,-3.274 0.406,-1.224 1.915,-2.562 3.205,-2.898 1.872,-0.489 4.039,-0.463 5.946,-0.043 2.166,0.476 4.183,1.626 6.264,2.484 -1.2,1.756 -2.402,3.513 -3.602,5.27 -0.911,3.327 -0.843,7.157 -0.927,10.984 -0.129,5.885 -3.491,9.795 -9.382,10.253 -3.385,0.263 -6.841,-0.389 -10.827,-0.669 v 12.465 c -2.24,0 -4.015,0.37 -5.54,-0.089 -2.142,-0.643 -4.098,-1.903 -6.134,-2.898 1.354,-1.685 2.708,-3.37 4.908,-6.109 v -24.34 c -0.284,0.148 -0.569,0.296 -0.854,0.444 l -3.232,-5.446 c 1.928,-0.813 3.812,-1.769 5.802,-2.379 1.066,-0.327 2.4,-0.332 3.463,-0.001 2.138,0.667 4.173,1.664 6.251,2.524 -1.182,1.756 -2.363,3.513 -3.545,5.269 m 150.677,48.16 c 62.989,0 125.979,-0.079 188.968,0.173 4.321,0.018 9.316,1.545 12.828,4.025 14.755,10.421 28.999,21.563 43.578,32.237 4.491,3.288 5.559,7.342 4.945,12.551 -0.848,7.215 -1.363,14.473 -1.876,21.723 -0.806,11.414 -1.416,22.844 -2.248,34.256 -1.191,16.34 -2.686,32.658 -3.709,49.008 -0.716,11.446 -0.626,22.942 -1.309,34.391 -1.068,17.856 -2.535,35.688 -3.731,53.537 -0.51,7.623 -0.655,15.27 -1.153,22.895 -1.233,18.843 -2.583,37.677 -3.863,56.517 -0.743,10.918 -1.398,21.842 -2.166,32.758 -1.246,17.673 -2.61,35.338 -3.811,53.014 -0.821,12.086 -1.392,24.189 -2.181,36.276 -1.23,18.844 -2.572,37.679 -3.824,56.521 -0.451,6.788 -0.684,13.591 -1.185,20.374 -1.219,16.503 -2.68,32.99 -3.769,49.501 -0.917,13.902 -1.352,27.835 -2.186,41.743 -0.406,6.756 -1.018,13.516 -1.952,20.217 -0.561,4.027 -3.122,6.465 -7.547,6.343 -2.651,-0.072 -5.306,-0.079 -7.959,-0.034 -14.799,0.248 -29.6,0.491 -44.4,0.797 -7.172,0.149 -11.731,-1.873 -12.783,-6.213 -0.694,-2.867 -1.002,-5.852 -1.22,-8.804 -0.767,-10.415 -1.369,-20.843 -2.131,-31.258 -1.232,-16.847 -2.621,-33.681 -3.797,-50.531 -1.107,-15.875 -2.033,-31.763 -3.026,-47.647 -1.364,-21.833 -2.87,-43.658 -4.018,-65.502 -0.703,-13.353 -7.574,-20.89 -20.874,-21.936 -1.99,-0.156 -3.994,-0.181 -5.992,-0.182 -64.822,-0.009 -129.645,-0.029 -194.468,0.047 -3.962,0.004 -8.032,0.345 -11.863,1.292 -9.018,2.23 -13.829,7.867 -14.89,17.01 -0.572,4.928 -0.704,9.906 -1.117,14.854 -1.268,15.175 -2.754,30.334 -3.816,45.522 -0.948,13.566 -1.438,27.163 -2.146,40.745 -0.328,6.292 -0.576,12.592 -1.067,18.872 -1.215,15.515 -2.663,31.012 -3.8,46.533 -0.871,11.9 -1.301,23.831 -2.133,35.735 -0.626,8.965 -2.672,10.658 -11.867,10.658 -16.998,0 -33.995,0 -50.992,0 -8.337,0 -11.357,-2.65 -11.92,-10.957 -1.099,-16.217 -2.025,-32.446 -3.063,-48.667 -0.973,-15.218 -1.996,-30.432 -3.002,-45.648 -1.345,-20.35 -2.717,-40.698 -4.038,-61.05 -1.01,-15.548 -1.898,-31.105 -2.95,-46.651 -1.297,-19.177 -2.709,-38.345 -4.068,-57.518 -1.325,-18.684 -2.733,-37.363 -3.949,-56.054 -1.43,-22.015 -2.681,-44.041 -4.032,-66.062 -0.935,-15.227 -1.954,-30.45 -2.852,-45.679 -1.113,-18.872 -2.16,-37.746 -3.194,-56.621 -0.399,-7.292 -0.552,-14.598 -1.051,-21.882 -1.244,-18.157 -2.647,-36.302 -3.934,-54.455 -0.445,-6.289 -0.128,-12.703 -1.276,-18.85 -1.026,-5.492 0.922,-8.814 4.943,-11.811 13.158,-9.806 26.347,-19.573 39.365,-29.561 5.862,-4.498 11.945,-6.737 19.602,-6.704 61.988,0.271 123.979,0.152 185.969,0.152 M 806,-104 H -194 V 896 H 806 Z" /><g
                 id="g32"
                 transform="translate(508.5029,708.9849)"><path
                   id="path30"
                   style="fill:#306307;fill-opacity:1;fill-rule:nonzero;stroke:none"
                   d="m 0,0 c -12.964,0 -25.428,0.084 -37.889,-0.047 -4.123,-0.043 -8.256,-0.516 -12.354,-1.031 -2.393,-0.3 -4.152,-1.284 -4.379,-4.346 -0.722,-9.753 -1.906,-19.472 -2.649,-29.224 -2.091,-27.496 -4.158,-54.994 -6.037,-82.505 -1.902,-27.86 -3.958,-55.718 -5.222,-83.61 -1.115,-24.571 -16.268,-33.608 -33,-33.486 -67.647,0.494 -135.299,0.246 -202.949,0.276 -18.942,0.008 -29.191,9.982 -30.275,28.809 -1.165,20.251 -2.752,40.477 -4.144,60.715 -2.27,33.014 -4.498,66.03 -6.813,99.04 -0.884,12.599 -1.768,25.206 -3.118,37.759 -0.25,2.322 -2.268,5.478 -4.29,6.349 -3.042,1.311 -6.812,1.284 -10.263,1.233 -10.969,-0.162 -21.93,-0.685 -32.898,-0.899 -8.194,-0.161 -8.889,-0.857 -9.272,-9.429 -0.653,-14.613 -1.242,-29.234 -2.225,-43.828 -1.755,-26.027 -3.848,-52.032 -5.677,-78.055 -1.435,-20.399 -2.665,-40.812 -4.024,-61.216 -1.303,-19.562 -2.687,-39.118 -3.98,-58.681 -1.369,-20.718 -2.717,-41.437 -3.994,-62.161 -1.061,-17.239 -1.837,-34.496 -3.044,-51.724 -1.484,-21.195 -3.546,-42.353 -4.876,-63.557 -1.353,-21.568 -2.063,-43.175 -3.164,-64.759 -0.593,-11.621 -1.482,-23.225 -2.123,-34.842 -1.008,-18.249 -2.038,-36.499 -2.71,-54.761 -0.078,-2.136 1.488,-5.083 3.235,-6.416 12.931,-9.864 26.209,-19.273 39.135,-29.144 4.194,-3.202 8.437,-4.981 13.687,-4.612 2.651,0.187 5.329,-0.061 7.995,-0.061 94.152,-0.006 188.304,-0.014 282.457,10e-4 26.162,0.004 52.324,0.153 78.485,0.059 4.646,-0.016 8.192,1.747 11.739,4.45 12.272,9.351 24.468,18.829 37.153,27.595 4.762,3.291 6.644,6.694 6.198,12.274 -1.235,15.412 -2.253,30.843 -3.187,46.277 -1.454,24.052 -2.637,48.12 -4.178,72.165 -1.445,22.539 -3.281,45.053 -4.8,67.587 -1.162,17.239 -2.046,34.497 -3.149,51.741 -1.578,24.689 -3.259,49.373 -4.867,74.061 -1.403,21.559 -2.739,43.122 -4.152,64.679 -1.629,24.861 -3.291,49.72 -4.979,74.577 -0.63,9.279 -1.378,18.549 -2.063,27.824 C 6.055,-83.537 4.629,-66.16 3.54,-48.762 2.647,-34.48 2.189,-20.172 1.45,-5.88 1.368,-4.309 0.702,-2.768 0,0 m -201.916,-631.991 c -61.99,0 -123.98,0.119 -185.969,-0.152 -7.657,-0.033 -13.74,2.206 -19.602,6.704 -13.018,9.988 -26.207,19.755 -39.365,29.562 -4.021,2.997 -5.969,6.318 -4.943,11.81 1.149,6.148 0.831,12.561 1.276,18.85 1.287,18.153 2.69,36.299 3.934,54.455 0.499,7.284 0.652,14.591 1.051,21.883 1.034,18.875 2.081,37.749 3.194,56.62 0.898,15.229 1.917,30.452 2.852,45.679 1.351,22.021 2.602,44.047 4.032,66.062 1.216,18.691 2.624,37.37 3.949,56.055 1.36,19.172 2.771,38.34 4.068,57.517 1.052,15.546 1.94,31.103 2.95,46.652 1.321,20.351 2.693,40.699 4.038,61.049 1.006,15.216 2.029,30.431 3.002,45.648 1.038,16.222 1.964,32.45 3.063,48.667 0.563,8.307 3.583,10.957 11.92,10.957 16.997,0 33.994,0 50.992,0 9.195,0 11.241,-1.693 11.867,-10.658 0.832,-11.904 1.262,-23.835 2.133,-35.735 1.137,-15.521 2.585,-31.018 3.8,-46.533 0.491,-6.28 0.739,-12.58 1.068,-18.872 0.708,-13.582 1.197,-27.179 2.145,-40.745 1.062,-15.188 2.548,-30.347 3.816,-45.522 0.414,-4.948 0.545,-9.926 1.117,-14.854 1.061,-9.143 5.872,-14.779 14.89,-17.01 3.831,-0.947 7.901,-1.287 11.863,-1.292 64.823,-0.076 129.646,-0.056 194.468,-0.047 1.998,0.001 4.002,0.026 5.993,0.182 13.299,1.046 20.17,8.583 20.873,21.936 1.148,21.844 2.654,43.669 4.018,65.502 0.993,15.884 1.919,31.772 3.027,47.647 1.175,16.85 2.564,33.684 3.796,50.531 0.762,10.415 1.364,20.843 2.131,31.258 0.218,2.952 0.526,5.937 1.22,8.804 1.052,4.34 5.611,6.362 12.783,6.214 14.8,-0.307 29.601,-0.55 44.401,-0.798 2.652,-0.045 5.307,-0.038 7.959,0.034 4.424,0.122 6.985,-2.316 7.546,-6.343 0.934,-6.701 1.546,-13.461 1.952,-20.217 0.834,-13.908 1.269,-27.841 2.186,-41.742 1.089,-16.512 2.55,-32.998 3.769,-49.501 0.501,-6.784 0.734,-13.587 1.185,-20.375 1.252,-18.842 2.594,-37.677 3.824,-56.52 0.79,-12.088 1.36,-24.191 2.181,-36.277 1.201,-17.676 2.566,-35.341 3.811,-53.013 0.768,-10.917 1.423,-21.841 2.166,-32.759 1.28,-18.84 2.631,-37.674 3.863,-56.517 0.498,-7.625 0.644,-15.272 1.153,-22.895 1.196,-17.849 2.663,-35.681 3.731,-53.536 0.683,-11.45 0.593,-22.946 1.309,-34.392 1.023,-16.35 2.518,-32.668 3.709,-49.008 0.832,-11.412 1.442,-22.842 2.248,-34.256 0.513,-7.25 1.028,-14.508 1.876,-21.722 0.614,-5.209 -0.454,-9.264 -4.945,-12.552 -14.579,-10.674 -28.823,-21.816 -43.578,-32.236 -3.512,-2.481 -8.507,-4.008 -12.828,-4.026 -62.989,-0.252 -125.979,-0.173 -188.968,-0.173" /></g><g
                 id="g36"
                 transform="translate(155.9097,28.834)"><path
                   id="path34"
                   style="fill:#2f640c;fill-opacity:1;fill-rule:nonzero;stroke:none"
                   d="m 0,0 c 1.182,-1.756 2.364,-3.513 3.545,-5.269 -2.077,-0.86 -4.112,-1.857 -6.251,-2.524 -1.063,-0.331 -2.397,-0.326 -3.462,0.001 -1.991,0.61 -3.874,1.566 -5.802,2.379 l 3.231,5.446 c 0.285,-0.148 0.57,-0.296 0.855,-0.444 v 24.34 c -2.201,2.739 -3.554,4.424 -4.908,6.109 2.035,0.995 3.992,2.255 6.133,2.898 1.526,0.459 3.3,0.089 5.54,0.089 V 20.56 c 3.987,0.28 7.442,0.932 10.827,0.669 5.892,-0.458 9.253,-4.368 9.382,-10.253 0.085,-3.827 0.016,-7.657 0.927,-10.984 1.201,-1.757 2.402,-3.513 3.603,-5.27 -2.082,-0.858 -4.099,-2.008 -6.265,-2.484 -1.906,-0.42 -4.073,-0.446 -5.946,0.043 -1.289,0.336 -2.799,1.674 -3.205,2.898 -0.268,0.807 1.008,2.531 2.014,3.274 2.155,1.592 3.37,11.748 1.497,14.511 C 9.856,15.707 4.999,15.661 1.458,12.504 0.277,11.451 -0.585,9.591 -0.792,7.995 -1.153,5.213 -0.893,2.351 -0.893,-0.478 -0.595,-0.318 -0.297,-0.159 0,0" /></g><g
                 id="g40"
                 transform="translate(92.6777,38.7725)"><path
                   id="path38"
                   style="fill:#306307;fill-opacity:1;fill-rule:nonzero;stroke:none"
                   d="m 0,0 c -4.626,6.705 -12.991,6.659 -16.808,0 z m 7.785,-7.017 h -24.487 c -0.208,-0.455 -0.416,-0.911 -0.624,-1.366 2.039,-1.145 4.048,-3.185 6.122,-3.254 4.578,-0.149 9.183,0.919 13.788,1.019 1.767,0.039 3.562,-1.205 5.344,-1.865 -1.177,-1.493 -2.161,-4.037 -3.563,-4.291 -5.501,-1.002 -11.177,-1.997 -16.704,-1.651 -6.945,0.435 -12.034,6.145 -12.802,12.652 -0.872,7.388 2.627,13.465 9.806,16.058 14.356,5.187 25.484,-5.54 23.12,-17.302" /></g><g
                 id="g44"
                 transform="translate(553.6963,30.1377)"><path
                   id="path42"
                   style="fill:#2f640c;fill-opacity:1;fill-rule:nonzero;stroke:none"
                   d="m 0,0 c -2.079,0.717 -3.788,1.483 -5.579,1.888 -3.558,0.803 -7.474,0.766 -10.642,2.309 -2.295,1.118 -4.845,4.12 -5.036,6.465 -0.189,2.316 1.947,6.335 3.94,7.007 4.517,1.522 9.566,1.51 14.414,1.97 1.087,0.103 2.272,-0.308 3.343,-0.68 1.551,-0.538 4.093,-0.99 4.337,-1.954 0.527,-2.078 -0.143,-4.458 -0.323,-6.714 -1.815,0.187 -4.099,-0.262 -5.36,0.673 -4.428,3.276 -9.01,3.631 -14.284,-0.236 2.77,-0.707 4.913,-1.246 7.052,-1.799 3.354,-0.868 7.108,-1.093 9.928,-2.83 2.177,-1.34 4.361,-4.58 4.37,-6.984 0.01,-2.363 -2.28,-6.2 -4.331,-6.814 -4.91,-1.469 -10.266,-1.505 -15.457,-1.929 -1.251,-0.102 -2.638,0.966 -3.83,0.755 -5.624,-0.993 -5.696,2.65 -5.275,6.341 0.156,1.376 1.208,3.271 2.336,3.723 0.952,0.383 2.921,-0.658 3.89,-1.623 C -12.43,-4.485 -4.512,-4.687 0,0" /></g><g
                 id="g48"
                 transform="translate(230.9263,40.8828)"><path
                   id="path46"
                   style="fill:#2f640c;fill-opacity:1;fill-rule:nonzero;stroke:none"
                   d="m 0,0 c 3.388,-0.812 5.565,-1.336 7.744,-1.856 3.061,-0.732 6.577,-0.768 9.052,-2.393 2.334,-1.531 4.861,-4.701 4.923,-7.21 0.061,-2.442 -2.405,-6.378 -4.629,-7.147 -4.53,-1.566 -9.634,-1.586 -14.524,-1.945 -2.048,-0.15 -4.248,0.169 -6.195,0.822 -1.314,0.44 -3.239,1.819 -3.259,2.811 -0.049,2.429 0.848,4.877 1.365,7.316 1.591,-0.606 3.562,-0.812 4.705,-1.893 3.837,-3.626 11.504,-3.821 16.545,0.52 -2.074,0.805 -3.715,1.67 -5.462,2.072 -3.395,0.779 -7.166,0.652 -10.181,2.128 -2.458,1.204 -4.898,3.892 -5.803,6.466 -1.253,3.561 1.156,6.893 4.562,7.779 4.366,1.134 9.042,1.129 13.596,1.451 1.095,0.078 2.225,-0.669 3.355,-0.728 C 20.377,7.957 22.601,4.207 20.34,0.209 18.699,-2.693 16.801,-1.93 14.687,-0.099 10.322,3.681 6.153,3.875 0,0" /></g><g
                 id="g52"
                 transform="translate(493.9834,29.0957)"><path
                   id="path50"
                   style="fill:#2f640c;fill-opacity:1;fill-rule:nonzero;stroke:none"
                   d="m 0,0 c 0,2.456 0.023,5.452 -0.007,8.448 -0.025,2.475 0.565,4.809 -2.633,6.499 -2.432,1.286 -1.139,5.076 1.839,5.329 5.905,0.504 11.859,0.935 17.769,0.727 6.029,-0.213 9.574,-4.288 9.882,-10.41 0.132,-2.659 -0.252,-5.37 0.127,-7.982 0.238,-1.648 1.714,-3.086 2.156,-4.746 0.432,-1.632 0.26,-3.425 0.352,-5.146 -4.022,-0.03 -8.045,-0.06 -12.067,-0.089 0.081,1.748 -0.486,3.973 0.377,5.146 1.877,2.556 3.638,13.12 1.382,14.946 -1.545,1.251 -4.613,2.132 -6.231,1.424 C 10.565,13.104 8.014,10.824 7.11,8.468 6.109,5.855 6.882,2.564 6.882,-0.067 8.541,-1.685 11.334,-3.287 11.154,-4.418 10.098,-11.072 4.609,-7.201 1.086,-8.031 -1.705,-8.688 -4.672,-8.006 -4.462,-4.409 -4.384,-3.078 -1.996,-1.882 0,0" /></g><g
                 id="g56"
                 transform="translate(339.2256,41.8828)"><path
                   id="path54"
                   style="fill:#2f640c;fill-opacity:1;fill-rule:nonzero;stroke:none"
                   d="M 0,0 C -1.362,1.505 -3.847,3.002 -3.857,4.517 -3.88,7.854 -0.785,7.711 1.765,7.671 3.571,7.644 5.379,7.666 7.791,7.666 7.791,1.73 7.818,-3.868 7.78,-9.467 c -0.02,-3.072 0.296,-5.804 4.333,-5.83 4.391,-0.028 8.905,2.845 9.087,5.904 0.118,1.993 0.025,3.998 0.026,5.998 V 0.844 C 19.818,0.965 18.499,0.72 17.647,1.24 16.523,1.927 14.884,3.398 15.053,4.2 c 0.265,1.265 1.736,3.038 2.898,3.207 3.091,0.447 6.289,0.152 10.021,0.152 0,-5.595 -0.017,-11.049 0.007,-16.502 0.01,-2.402 -0.647,-4.983 2.573,-6.279 0.694,-0.28 1.207,-2.455 0.871,-3.438 -0.326,-0.953 -1.803,-2.035 -2.858,-2.131 -5.849,-0.526 -11.72,-0.97 -17.59,-1.052 -6.028,-0.085 -9.502,3.523 -9.734,9.594 -0.082,2.163 -0.014,4.333 -0.015,6.499 V 0.239 C 0.817,0.159 0.408,0.08 0,0" /></g><g
                 id="g60"
                 transform="translate(209.9634,34.8379)"><path
                   id="path58"
                   style="fill:#2f640c;fill-opacity:1;fill-rule:nonzero;stroke:none"
                   d="m 0,0 c 0.03,4.599 -5.001,9.039 -10.157,8.964 -5.091,-0.074 -9.677,-4.166 -9.789,-8.735 -0.111,-4.545 4.374,-8.438 9.786,-8.494 C -4.95,-8.318 -0.028,-4.314 0,0 m -9.983,-14.854 c -9.535,-0.018 -16.719,6.269 -16.837,14.735 -0.12,8.51 7.451,15.617 16.709,15.686 C -0.876,15.637 6.564,8.762 6.735,0 6.896,-8.268 -0.497,-14.837 -9.983,-14.854" /></g><g
                 id="g64"
                 transform="translate(383.8145,41.1748)"><path
                   id="path62"
                   style="fill:#2f640c;fill-opacity:1;fill-rule:nonzero;stroke:none"
                   d="m 0,0 c -2.894,2.063 -4.699,3.35 -6.505,4.637 1.738,1.718 3.477,3.438 5.215,5.157 2.706,1.995 -1.282,7.921 4.325,8.108 6.083,0.204 2.365,-6.052 4.563,-9.529 3.188,0 6.851,0.347 10.393,-0.155 C 19.617,7.987 21.007,6.091 22.503,4.949 20.948,3.902 19.487,2.181 17.82,1.95 14.405,1.479 10.881,1.809 6.757,1.809 c 0,-4.504 -0.259,-8.777 0.165,-12.981 0.121,-1.193 2.281,-3.143 3.428,-3.089 3.568,0.169 7.078,1.342 10.653,1.698 1.688,0.167 3.475,-0.641 5.217,-1.007 -0.87,-1.715 -1.311,-4.333 -2.685,-4.987 -5.487,-2.607 -11.362,-3.752 -17.41,-1.835 -3.913,1.241 -6.079,3.925 -6.116,8.112 C -0.03,-7.787 0,-3.294 0,0" /></g><g
                 id="g68"
                 transform="translate(125.5078,19.0391)"><path
                   id="path66"
                   style="fill:#2f640c;fill-opacity:1;fill-rule:nonzero;stroke:none"
                   d="m 0,0 c -13.629,0.584 -21.172,9.412 -17.439,20.902 2.614,8.048 11.532,12.19 21.359,9.896 0.967,-0.226 1.88,-0.736 2.851,-0.869 6.417,-0.884 7.756,-2.479 6.412,-8.568 -0.292,-1.322 -1.713,-3.084 -2.882,-3.32 -1.066,-0.216 -2.964,1.066 -3.679,2.202 -2.476,3.932 -6.461,5.446 -11.481,3.901 -4.39,-1.352 -7.058,-4.998 -6.602,-9.331 0.544,-5.165 4.15,-7.168 8.698,-6.997 C 1.075,7.963 4.853,9.32 8.7,9.806 10.507,10.034 12.415,9.475 14.277,9.272 13.566,7.457 13.339,4.63 12.055,4.018 8.26,2.209 4.048,1.275 0,0" /></g><g
                 id="g72"
                 transform="translate(286.8037,34.6748)"><path
                   id="path70"
                   style="fill:#306307;fill-opacity:1;fill-rule:nonzero;stroke:none"
                   d="m 0,0 c 0.1,4.583 -4.862,9.101 -10.034,9.136 -5.141,0.035 -9.692,-3.903 -9.91,-8.574 -0.213,-4.566 4.176,-8.526 9.605,-8.666 C -5.225,-8.236 -0.092,-4.213 0,0 m -9.855,-14.686 c -9.634,-0.043 -16.828,6.139 -16.958,14.573 -0.134,8.603 7.323,15.78 16.526,15.905 C -1.124,15.916 6.518,8.954 6.698,0.318 6.872,-8.056 -0.396,-14.644 -9.855,-14.686" /></g><g
                 id="g76"
                 transform="translate(468.5693,43.8125)"><path
                   id="path74"
                   style="fill:#306307;fill-opacity:1;fill-rule:nonzero;stroke:none"
                   d="m 0,0 c -5.4,-0.097 -9.906,-4.4 -9.711,-9.275 0.171,-4.276 4.685,-7.943 9.813,-7.973 5.167,-0.031 10.156,4.066 10.133,8.32 C 10.211,-4.34 5.13,0.092 0,0 m 0.293,-23.823 c -9.605,-0.022 -16.769,6.208 -16.872,14.672 -0.104,8.563 7.439,15.727 16.629,15.792 9.178,0.064 16.777,-6.936 16.893,-15.56 0.112,-8.368 -7.167,-14.884 -16.65,-14.904" /></g><g
                 id="g80"
                 transform="translate(318.5342,27.5215)"><path
                   id="path78"
                   style="fill:#2f640c;fill-opacity:1;fill-rule:nonzero;stroke:none"
                   d="m 0,0 c 3.345,0 5.904,0.336 8.303,-0.139 1.244,-0.246 2.204,-1.925 3.293,-2.958 -1.13,-1.145 -2.224,-3.237 -3.394,-3.281 -7.818,-0.291 -15.658,-0.268 -23.479,-0.006 -1.129,0.037 -2.198,1.899 -3.294,2.916 1.141,1.15 2.131,3.015 3.455,3.295 2.514,0.53 5.22,0.153 8.112,0.153 v 27.267 c -1.812,0.081 -3.909,-0.256 -5.643,0.387 -1.402,0.519 -2.366,2.22 -3.524,3.397 1.11,1.058 2.147,2.917 3.346,3.03 4.079,0.38 8.216,0.145 12.825,0.145 z" /></g><g
                 id="g84"
                 transform="translate(433.4375,27.5254)"><path
                   id="path82"
                   style="fill:#2f640c;fill-opacity:1;fill-rule:nonzero;stroke:none"
                   d="M 0,0 C 3.21,0 5.897,0.375 8.395,-0.152 9.718,-0.433 10.709,-2.28 11.851,-3.42 10.631,-4.46 9.442,-6.354 8.188,-6.4 0.547,-6.678 -7.114,-6.681 -14.754,-6.387 c -1.246,0.048 -2.417,2.029 -3.622,3.116 1.221,1.088 2.308,2.841 3.693,3.121 2.519,0.509 5.214,0.145 8.03,0.145 v 15.466 c -1.868,0 -3.913,-0.429 -5.631,0.137 -1.364,0.448 -2.327,2.114 -3.468,3.239 1.078,1.048 2.08,2.885 3.248,2.997 3.934,0.379 7.926,0.145 12.504,0.145 z" /></g><path
                 id="path86"
                 style="fill:#2f640c;fill-opacity:1;fill-rule:nonzero;stroke:none"
                 d="m 425.14,61.694 h 7.327 v -6.556 h -7.327 z" /><g
                 id="g90"
                 transform="translate(391.6074,130.3994)"><path
                   id="path88"
                   style="fill:#fdfdfd;fill-opacity:1;fill-rule:nonzero;stroke:none"
                   d="m 0,0 -0.633,1.646 c -7.808,-2.963 -15.618,-5.928 -23.428,-8.892 0.212,-0.551 0.423,-1.101 0.634,-1.651 C -15.617,-5.932 -7.809,-2.966 0,0 m 87.853,149.377 c -0.486,7.421 -0.821,14.856 -1.489,22.262 -1.433,15.893 -6.228,30.901 -12.922,45.269 -11.27,24.196 -27.705,44.284 -48.853,60.611 -33.472,25.839 -71.808,34.52 -113.033,30.719 -25.479,-2.349 -49.014,-11.353 -70.396,-25.998 -22.095,-15.133 -39.535,-34.42 -51.761,-57.932 -14.498,-27.885 -20.15,-57.749 -17.176,-89.363 2.272,-24.155 9.025,-46.538 21.472,-67.329 17.348,-28.977 41.337,-50.366 72.089,-64.33 27.405,-12.444 56.152,-15.081 85.594,-11.626 33.791,3.966 62.56,18.701 87.195,41.996 16.362,15.472 28.908,33.673 37.468,54.283 8.098,19.499 12.905,39.957 11.812,61.438 M -9.552,312.821 c 1.373,-0.65 2.724,-1.353 4.127,-1.931 1.107,-0.456 2.277,-0.756 3.418,-1.125 0.104,0.453 0.207,0.906 0.311,1.359 -12.708,6.493 -26.254,10.878 -40.203,13.438 -14.154,2.598 -28.552,4.125 -43.023,2.223 -10.328,-1.358 -20.816,-2.037 -30.938,-4.327 -23.64,-5.348 -44.851,-16.086 -64.105,-30.813 -5.888,-4.504 -12.552,-8.04 -18.183,-12.816 -4.734,-4.015 -9.077,-8.555 -12.719,-13.831 -5.446,-7.892 -12.478,-14.735 -17.543,-22.834 -14.342,-22.932 -21.297,-48.53 -23.861,-75.169 -1.054,-10.96 0.108,-22.223 1.11,-33.27 2.166,-23.884 9.096,-46.366 20.488,-67.576 13.065,-24.324 30.883,-44.475 53.157,-60.431 20.203,-14.473 41.962,-25.39 67.475,-28.201 16.796,-1.85 33.354,-4.689 50.378,-3.172 23.416,2.086 45.804,7.957 66.445,18.993 18.413,9.846 34.646,22.909 48.54,38.661 0.536,0.607 0.692,1.55 1.024,2.335 -6.572,-4.92 -12.027,-10.823 -18.197,-15.849 -23.035,-18.76 -48.923,-31.664 -78.366,-36.909 -1.762,-0.314 -3.563,-0.652 -5.337,-0.608 -4.384,0.106 -8.764,0.636 -13.144,0.617 -6.936,-0.03 -13.869,-0.39 -20.806,-0.518 -0.334,-0.006 -0.684,0.869 -1.67,2.204 7.459,0.433 14.111,0.621 20.719,1.261 6.547,0.634 13.051,1.724 19.573,2.614 -0.054,0.44 -0.107,0.88 -0.161,1.32 -17.868,-3.379 -35.754,-3.635 -53.764,-1.105 -19.116,2.687 -37.32,8.527 -54.059,17.708 -28.212,15.474 -50.44,37.246 -66.3,65.696 -11.675,20.941 -19.072,43.081 -20.923,66.707 -1.238,15.799 -1.187,31.842 1.795,47.674 3.566,18.936 10.013,36.816 19.711,53.374 10.449,17.841 22.439,34.514 39.275,47.185 11.109,8.361 22.506,16.149 35.266,21.789 11.948,3.599 23.904,7.174 35.832,10.841 0.966,0.297 1.741,1.216 2.605,1.846 0.497,0.468 0.994,0.937 1.491,1.406 3.947,-0.334 7.894,-0.941 11.84,-0.927 4.351,0.015 8.719,1.045 13.045,0.853 11.839,-0.524 23.661,-1.449 35.488,-2.234 2.393,-0.159 4.782,-0.4 7.173,-0.603 2.319,-0.458 4.638,-0.916 6.959,-1.374 4.959,-2.153 9.914,-4.319 14.915,-6.371 0.104,-0.043 0.749,1.231 1.142,1.89 m 126.448,265.764 c 0.702,-2.767 1.368,-4.309 1.45,-5.88 0.739,-14.292 1.197,-28.6 2.09,-42.882 1.088,-17.398 2.514,-34.775 3.799,-52.16 0.686,-9.275 1.434,-18.546 2.064,-27.825 1.687,-24.857 3.349,-49.715 4.978,-74.576 1.413,-21.558 2.749,-43.121 4.153,-64.679 1.607,-24.688 3.289,-49.372 4.867,-74.062 1.102,-17.244 1.986,-34.501 3.148,-51.741 1.52,-22.534 3.356,-45.048 4.8,-67.587 1.541,-24.045 2.725,-48.113 4.179,-72.165 0.933,-15.433 1.952,-30.865 3.186,-46.277 0.447,-5.579 -1.435,-8.982 -6.198,-12.273 -12.684,-8.766 -24.881,-18.245 -37.152,-27.595 -3.547,-2.703 -7.094,-4.467 -11.739,-4.45 -26.162,0.093 -52.324,-0.055 -78.486,-0.06 -94.152,-0.015 -188.305,-0.007 -282.456,-10e-4 -2.666,0 -5.345,0.248 -7.995,0.062 -5.251,-0.37 -9.493,1.41 -13.687,4.612 -12.926,9.87 -26.204,19.279 -39.135,29.143 -1.748,1.333 -3.314,4.281 -3.235,6.416 0.672,18.262 1.702,36.512 2.709,54.761 0.641,11.617 1.53,23.222 2.123,34.842 1.102,21.584 1.812,43.191 3.164,64.76 1.331,21.204 3.392,42.361 4.876,63.556 1.207,17.229 1.983,34.486 3.045,51.724 1.276,20.724 2.624,41.443 3.994,62.162 1.292,19.562 2.676,39.118 3.979,58.68 1.36,20.405 2.59,40.818 4.024,61.217 1.83,26.023 3.922,52.027 5.677,78.054 0.984,14.594 1.573,29.215 2.225,43.829 0.383,8.572 1.079,9.268 9.272,9.428 10.968,0.215 21.93,0.737 32.898,0.9 3.452,0.05 7.221,0.077 10.264,-1.234 2.021,-0.871 4.04,-4.026 4.289,-6.349 1.351,-12.553 2.235,-25.159 3.119,-37.758 2.315,-33.01 4.542,-66.027 6.813,-99.04 1.391,-20.238 2.978,-40.465 4.144,-60.716 1.083,-18.826 11.333,-28.8 30.275,-28.809 67.649,-0.029 135.302,0.219 202.948,-0.275 16.733,-0.122 31.886,8.914 33,33.486 1.265,27.891 3.321,55.75 5.223,83.61 1.879,27.51 3.945,55.008 6.037,82.504 0.742,9.752 1.927,19.471 2.648,29.225 0.228,3.061 1.987,4.045 4.379,4.345 4.099,0.515 8.232,0.988 12.355,1.031 12.461,0.131 24.925,0.047 37.889,0.047" /></g><g
                 id="g94"
                 transform="translate(92.6777,38.7725)"><path
                   id="path92"
                   style="fill:#fdfdfc;fill-opacity:1;fill-rule:nonzero;stroke:none"
                   d="M 0,0 H -16.808 C -12.991,6.659 -4.626,6.705 0,0" /></g><g
                 id="g98"
                 transform="translate(209.9634,34.8379)"><path
                   id="path96"
                   style="fill:#fdfdfc;fill-opacity:1;fill-rule:nonzero;stroke:none"
                   d="m 0,0 c -0.028,-4.314 -4.95,-8.318 -10.16,-8.265 -5.412,0.056 -9.897,3.949 -9.786,8.494 0.112,4.569 4.698,8.661 9.789,8.735 C -5.001,9.039 0.03,4.599 0,0" /></g><g
                 id="g102"
                 transform="translate(286.8037,34.6748)"><path
                   id="path100"
                   style="fill:#fdfdfc;fill-opacity:1;fill-rule:nonzero;stroke:none"
                   d="m 0,0 c -0.092,-4.213 -5.225,-8.236 -10.339,-8.104 -5.429,0.14 -9.818,4.1 -9.605,8.666 0.218,4.671 4.769,8.609 9.91,8.574 C -4.862,9.101 0.1,4.583 0,0" /></g><g
                 id="g106"
                 transform="translate(468.5693,43.8125)"><path
                   id="path104"
                   style="fill:#fdfdfc;fill-opacity:1;fill-rule:nonzero;stroke:none"
                   d="m 0,0 c 5.13,0.092 10.211,-4.34 10.235,-8.928 0.023,-4.254 -4.966,-8.351 -10.133,-8.32 -5.128,0.03 -9.642,3.697 -9.813,7.973 C -9.906,-4.4 -5.4,-0.097 0,0" /></g><g
                 id="g110"
                 transform="translate(315.8076,357.4658)"><path
                   id="path108"
                   style="fill:#2e6304;fill-opacity:1;fill-rule:nonzero;stroke:none"
                   d="m 0,0 c 0.546,0.061 0.272,0.03 -0.001,0 z m -40.462,48.171 c 0.341,0.865 0.472,2.041 0.912,2.17 2.258,0.666 4.627,1.51 6.89,1.35 1.024,-0.072 1.892,-2.329 2.831,-3.595 -1.656,-1.138 -3.189,-2.56 -4.999,-3.349 -3.013,-1.312 -7.755,-0.023 -7.739,-5.599 10e-4,-0.308 -1.073,-0.681 -1.687,-0.919 -2.309,-0.897 -4.653,-1.708 -6.953,-2.626 -4.316,-1.727 -6.041,-5.331 -6.569,-9.603 -0.544,-4.407 2.39,-6.399 5.997,-7.284 3.019,-0.741 6.266,-1.387 9.3,-1.054 5.704,0.624 8.812,-2.864 9.578,-8.731 0.184,-1.404 0.932,-2.734 1.421,-4.098 1.762,1.369 2.961,2.965 2.577,3.928 -1.796,4.499 0.501,6.65 3.902,8.882 2.237,1.467 3.529,3.674 0.019,5.76 -0.816,0.485 -1.358,2.249 -1.236,3.337 0.348,3.133 1.101,6.221 1.849,10.135 2.576,0 6.063,0.793 8.941,-0.193 3.932,-1.346 8.229,-3.322 10.869,-6.339 3.692,-4.219 3.134,-4.779 7.556,-1.219 2.617,2.107 4.372,1.799 6.248,-1.149 2.538,-3.988 3.965,-9.571 11.32,-6.707 3.312,1.289 7.455,-3.442 7.596,-7.435 C 28.295,10.087 29.054,5.707 23.727,4.786 18.151,3.823 12.493,3.348 6.888,2.542 5.248,2.307 3.665,1.672 0.895,0.895 c 2.99,-0.741 4.66,-1.155 6.364,-1.577 -2.263,-6.654 -1.043,-8.279 8.022,-9.469 -1.624,-1.43 -2.409,-2.45 -3.445,-2.959 -1.749,-0.86 -4.182,-0.896 -5.397,-2.166 -3.228,-3.378 -5.214,-2.76 -6.636,1.694 -2.664,-0.93 -5.493,-1.153 -7.167,-2.66 -3.539,-3.188 -6.372,-7.143 -9.685,-10.602 -3.222,-3.364 -4.593,-7.53 -6.368,-11.689 -1.548,-3.624 -4.338,-7.474 -7.642,-9.415 -4.958,-2.914 -4.151,-6.216 -3.086,-10.413 0.864,-3.403 1.163,-6.948 1.839,-11.232 -2.318,0.322 -4.154,0.045 -4.656,0.737 -2.788,3.841 -6.53,6.565 -9.865,9.714 -3.168,2.991 -4.754,3.517 -8.054,1.667 -1.135,-0.635 -2.529,-1.321 -3.743,-1.224 -8.027,0.642 -12.927,-2.499 -15.543,-10.451 -1.733,-5.272 -1.212,-11.491 3.181,-15.076 3.27,-2.669 9.418,-2.814 9.989,0.105 1.424,7.264 6.326,5.64 11.406,5.424 -1.409,-4.741 -5.517,-8.81 -2.607,-13.916 9.853,-0.59 9.854,-0.59 10.412,-10.796 0.245,-4.49 3.042,-7.368 6.494,-6.683 7.204,1.43 9.435,-0.077 10.718,-6.179 2.372,0.177 4.63,0.738 6.758,0.422 4.116,-0.611 8.172,-1.662 12.227,-2.636 2.228,-0.536 4.694,-0.839 6.54,-2.037 3.407,-2.212 6.387,-5.073 9.653,-7.518 1.021,-0.765 2.366,-1.449 3.6,-1.52 9.575,-0.55 12.916,-3.237 15.145,-11.626 9.941,-3.791 19.246,-7.42 28.617,-10.868 3.055,-1.123 7.252,-1.304 6.072,-5.958 -0.753,-2.969 -3.025,-5.541 -4.531,-8.337 -1.494,-2.771 -2.992,-5.55 -4.284,-8.418 -1.271,-2.823 -2.12,-5.839 -3.446,-8.632 -3.048,-6.423 -7.621,-10.793 -15.244,-11.229 -1.647,-0.094 -4.563,-1.381 -4.606,-2.235 -0.229,-4.492 -3.52,-6.274 -6.4,-8.528 -5.535,-4.331 -11.05,-8.685 -16.621,-12.969 -0.613,-0.472 -1.574,-0.851 -2.305,-0.754 -6.745,0.893 -9.581,-5.088 -14.496,-7.723 1.933,-1.059 3.65,-1.62 5.354,-1.581 7.291,0.169 14.594,0.296 21.862,0.837 24.482,1.818 46.682,10.325 67.163,23.553 17.498,11.3 31.738,25.982 43.224,43.254 2.346,3.528 3.221,8.082 4.529,12.24 1.725,5.476 3.354,10.994 4.742,16.563 0.885,3.549 1.859,7.249 1.711,10.837 -0.185,4.539 -2.374,9.095 -2.075,13.533 0.482,7.145 -1.016,9.008 -8.199,6.756 -11.189,-3.509 -20.35,-1.533 -27.091,8.714 -3.875,5.891 -8.76,11.338 -4.364,19.184 0.602,1.073 -0.136,3.224 -0.798,4.618 -2.759,5.811 -2.221,9.608 1.846,14.571 3.328,4.062 6.76,8.146 9.353,12.672 2.591,4.522 4.199,9.607 6.586,15.272 4.32,-3.758 7.905,-2.972 11.912,-1.407 4.362,1.704 9.587,-1.552 12.027,-5.55 2.173,-3.562 5.279,-6.554 7.973,-9.797 0.454,0.286 0.909,0.572 1.364,0.859 0.055,0.896 0.471,1.989 0.107,2.659 -2.098,3.861 0.58,9.495 -6.533,11.89 -3.897,1.311 -5.923,8.181 -8.853,12.636 -4.789,-0.204 -7.91,-2.886 -8.6,-7.686 -0.457,-3.18 -1.51,-4.37 -4.767,-3.96 -3.666,0.463 -7.387,0.49 -11.282,0.719 -0.537,6.586 -0.995,12.194 -1.525,18.693 4.435,-0.687 8.334,-1.291 12.234,-1.895 0.247,0.388 0.494,0.776 0.741,1.165 -2.625,3.327 -5.249,6.655 -7.874,9.983 7.358,-1.262 9.147,5.285 13.691,8.132 -3.89,4.781 -7.518,9.717 -11.631,14.207 -11.718,12.792 -25.314,23.252 -40.603,31.443 -1.191,0.639 -3.35,0.454 -4.602,-0.209 -2.699,-1.427 -5.046,-4.814 -7.633,-4.914 -8.131,-0.314 -6.139,-6.221 -6.874,-10.71 -0.188,-1.138 0.414,-2.825 -0.178,-3.392 -1.328,-1.275 -4.461,-3.017 -4.627,-2.806 -3.371,4.268 -8.1,2.586 -12.292,3.262 -2.183,0.351 -4.643,1.18 -6.22,2.622 -3.122,2.856 -5.507,6.512 -8.591,9.418 -3.076,2.897 -4.913,5.704 -1.976,9.709 -2.802,0.503 -6.046,0.374 -2.81,4.302 0.469,0.569 0.035,2.832 -0.63,3.23 -3.599,2.154 -7.219,4.879 -11.18,5.67 -4.883,0.975 -10.131,0.575 -15.178,0.192 -25.052,-1.901 -47.74,-10.633 -68.584,-24.389 -4.214,-2.781 -8.117,-6.033 -12.163,-9.069 0.215,-0.439 0.43,-0.878 0.645,-1.316 2.871,0.931 5.699,2.036 8.623,2.756 5.687,1.4 11.421,3.507 17.148,3.546 4.05,0.027 6.339,1.488 8.565,3.995 3.255,3.666 10.316,3.919 13.766,-0.003 M -99.157,-69.457 c -0.473,0.282 -0.946,0.563 -1.418,0.845 0.199,-0.672 0.398,-1.344 0.597,-2.016 0.673,-1.575 1.346,-3.151 2.018,-4.726 l -0.668,-1.125 c -1.527,0.937 -3.454,1.564 -4.479,2.889 -1.271,1.643 -1.768,3.875 -2.645,5.831 -2.26,5.038 -4.54,10.067 -6.827,15.092 -0.332,0.729 -0.626,1.919 -1.15,2.05 -6.077,1.524 -5.284,7.014 -6.125,11.165 -0.897,4.429 -2.065,9.623 -0.6,13.542 3.199,8.554 1.024,15.609 -3.676,23.622 -24.037,-46.191 -26.88,-92.716 -5.109,-139.506 21.076,-45.299 57.284,-72.633 106.669,-84.3 -0.293,2.516 -0.641,4.357 -0.69,6.204 -0.069,2.607 -0.129,5.244 0.182,7.825 0.999,8.298 2.472,16.557 3.05,24.88 0.132,1.905 -2.144,4.87 -4.075,5.865 -7.173,3.697 -12.534,8.802 -15.972,16.166 -1.201,2.575 -3.243,4.911 -5.35,6.875 -3.284,3.06 -3.462,5.2 10e-4,8.208 -4.601,3.86 -0.254,6.902 1.115,10.033 1.093,2.496 3.579,4.462 4.364,6.998 1.678,5.423 2.656,11.062 4.06,17.228 -3.21,1.598 -7.611,3.731 -11.944,5.996 -0.788,0.412 -1.71,1.277 -1.867,2.072 -1.22,6.177 -5.965,7.161 -11.064,8.786 -5.028,1.603 -8.621,6.232 -14.997,5.937 -3.385,-0.158 -7.248,2.959 -10.324,5.338 -2.545,1.968 -4.401,4.916 -6.293,7.62 -2.403,3.435 -4.534,7.062 -6.783,10.606 m 262.809,-8.232 c 1.094,-21.482 -3.714,-41.939 -11.811,-61.438 -8.56,-20.61 -21.107,-38.811 -37.468,-54.283 -24.635,-23.295 -53.404,-38.03 -87.195,-41.996 -29.443,-3.455 -58.189,-0.819 -85.594,11.626 -30.752,13.964 -54.741,35.352 -72.089,64.33 -12.447,20.791 -19.201,43.174 -21.473,67.329 -2.973,31.613 2.679,61.477 17.177,89.362 12.226,23.513 29.666,42.8 51.76,57.933 21.382,14.644 44.917,23.648 70.397,25.997 41.225,3.802 79.561,-4.879 113.033,-30.719 21.148,-16.326 37.583,-36.414 48.853,-60.61 6.694,-14.368 11.488,-29.376 12.922,-45.27 0.668,-7.405 1.003,-14.841 1.488,-22.261" /></g><g
                 id="g114"
                 transform="translate(365.998,447.7012)"><path
                   id="path112"
                   style="fill:#2f640c;fill-opacity:1;fill-rule:nonzero;stroke:none"
                   d="M 0,0 C -2.32,0.458 -4.64,0.916 -6.959,1.374 -7.657,2.04 -8.266,3.136 -9.067,3.304 -15.188,4.58 -21.313,6.389 -27.5,6.672 -39.129,7.205 -50.806,7.036 -62.45,6.706 -66.488,6.591 -70.488,5.131 -74.505,4.285 l -1.491,-1.406 c -1.527,0.312 -3.188,1.179 -4.562,0.85 -12.434,-2.979 -24.859,-6.049 -36.066,-12.588 -0.856,-0.29 -1.704,-0.581 -2.547,-0.862 0.006,0.009 0.093,-0.102 0.093,-0.102 l -0.006,0.198 2.367,0.738 c 0.761,-0.307 1.523,-0.614 2.284,-0.921 -12.759,-5.639 -24.156,-13.427 -35.265,-21.789 -16.837,-12.671 -28.826,-29.343 -39.276,-47.185 -9.698,-16.558 -16.144,-34.438 -19.711,-53.373 -2.982,-15.832 -3.032,-31.875 -1.794,-47.675 1.851,-23.626 9.248,-45.766 20.922,-66.707 15.861,-28.449 38.089,-50.222 66.3,-65.695 16.739,-9.182 34.944,-15.022 54.06,-17.708 18.009,-2.531 35.895,-2.275 53.763,1.104 0.054,-0.439 0.108,-0.88 0.162,-1.319 -6.523,-0.891 -13.027,-1.981 -19.574,-2.615 -6.607,-0.64 -13.259,-0.828 -20.718,-1.261 0.985,-1.335 1.335,-2.21 1.669,-2.203 6.937,0.128 13.871,0.487 20.806,0.517 4.38,0.019 8.761,-0.511 13.145,-0.617 1.773,-0.044 3.574,0.294 5.337,0.608 29.442,5.246 55.331,18.149 78.366,36.91 6.17,5.025 11.625,10.928 18.196,15.848 -0.332,-0.785 -0.487,-1.727 -1.023,-2.335 -13.895,-15.752 -30.127,-28.815 -48.54,-38.661 -20.642,-11.036 -43.03,-16.907 -66.446,-18.993 -17.023,-1.517 -33.582,1.322 -50.378,3.172 -25.512,2.811 -47.272,13.728 -67.475,28.201 -22.273,15.956 -40.092,36.107 -53.157,60.432 -11.392,21.21 -18.322,43.691 -20.487,67.575 -1.002,11.048 -2.164,22.31 -1.11,33.27 2.563,26.639 9.518,52.238 23.86,75.169 5.065,8.099 12.097,14.943 17.544,22.834 3.641,5.276 7.984,9.816 12.718,13.831 5.632,4.777 12.296,8.312 18.184,12.816 19.253,14.727 40.464,25.465 64.105,30.813 10.121,2.29 20.609,2.969 30.937,4.327 14.471,1.902 28.87,0.375 43.023,-2.222 13.949,-2.56 27.495,-6.946 40.203,-13.439 -0.103,-0.453 -0.207,-0.905 -0.31,-1.359 -1.142,0.37 -2.312,0.669 -3.418,1.125 -1.404,0.578 -2.754,1.282 -4.127,1.931 -1.834,0.717 -3.62,1.617 -5.511,2.113 C 7.063,-1.454 3.519,-0.776 0,0" /></g><g
                 id="g118"
                 transform="translate(291.4932,451.9863)"><path
                   id="path116"
                   style="fill:#fdfdfc;fill-opacity:1;fill-rule:nonzero;stroke:none"
                   d="m 0,0 c 4.017,0.846 8.017,2.306 12.055,2.42 11.644,0.331 23.321,0.499 34.95,-0.033 6.186,-0.283 12.312,-2.093 18.433,-3.368 0.801,-0.168 1.41,-1.264 2.108,-1.93 -2.391,0.203 -4.779,0.444 -7.173,0.603 -11.827,0.785 -23.648,1.71 -35.487,2.234 C 20.56,0.118 16.191,-0.912 11.84,-0.927 7.895,-0.941 3.947,-0.333 0,0" /></g><g
                 id="g122"
                 transform="translate(251.5654,437.8931)"><path
                   id="path120"
                   style="fill:#fdfdfc;fill-opacity:1;fill-rule:nonzero;stroke:none"
                   d="m 0,0 c -0.762,0.307 -1.523,0.614 -2.284,0.921 l 0.099,0.029 c 11.2,6.538 23.626,9.608 36.06,12.587 1.374,0.329 3.034,-0.537 4.562,-0.849 -0.864,-0.631 -1.639,-1.55 -2.605,-1.847 C 23.904,7.175 11.948,3.599 0,0" /></g><g
                 id="g126"
                 transform="translate(391.6074,130.3994)"><path
                   id="path124"
                   style="fill:#fdfdfc;fill-opacity:1;fill-rule:nonzero;stroke:none"
                   d="m 0,0 c -7.809,-2.966 -15.617,-5.932 -23.427,-8.897 -0.211,0.55 -0.422,1.1 -0.634,1.651 7.81,2.964 15.62,5.929 23.428,8.892 z" /></g><g
                 id="g130"
                 transform="translate(365.998,447.7012)"><path
                   id="path128"
                   style="fill:#fdfdfc;fill-opacity:1;fill-rule:nonzero;stroke:none"
                   d="m 0,0 c 3.519,-0.776 7.063,-1.454 10.547,-2.368 1.891,-0.496 3.677,-1.396 5.511,-2.113 C 15.664,-5.14 15.02,-6.414 14.915,-6.371 9.914,-4.319 4.959,-2.153 0,0" /></g><g
                 id="g134"
                 transform="translate(296.0781,269.6719)"><path
                   id="path132"
                   style="fill:#fdfdfc;fill-opacity:1;fill-rule:nonzero;stroke:none"
                   d="M 0,0 C 5.129,-1.213 10.068,-2.26 16.094,1.176 13.67,2.756 11.838,4.842 9.778,5.1 5.954,5.577 1.292,6.495 0,0 m -24.842,10.502 c 7.02,0.748 13.121,-0.767 17.722,-6.795 2.471,0.243 5.22,0.515 8.273,0.815 -5.704,7.982 -20.917,11.242 -25.995,5.98 m 4.109,125.463 c -3.449,3.922 -10.51,3.669 -13.765,0.003 -2.227,-2.507 -4.515,-3.968 -8.565,-3.995 -5.727,-0.039 -11.461,-2.146 -17.149,-3.546 -2.923,-0.72 -5.751,-1.825 -8.623,-2.756 -0.215,0.438 -0.43,0.877 -0.645,1.316 4.046,3.035 7.95,6.288 12.164,9.069 20.844,13.756 43.532,22.487 68.584,24.389 5.046,0.383 10.294,0.783 15.177,-0.192 3.961,-0.791 7.581,-3.516 11.181,-5.67 0.664,-0.398 1.099,-2.661 0.63,-3.23 -3.236,-3.928 0.008,-3.799 2.809,-4.302 -2.936,-4.005 -1.099,-6.812 1.977,-9.709 3.084,-2.906 5.469,-6.562 8.591,-9.418 1.577,-1.442 4.037,-2.271 6.22,-2.622 4.192,-0.676 8.92,1.006 12.292,-3.262 0.166,-0.211 3.298,1.531 4.626,2.806 0.592,0.567 -0.009,2.254 0.178,3.392 0.736,4.489 -1.257,10.396 6.874,10.71 2.587,0.1 4.935,3.487 7.633,4.914 1.253,0.663 3.411,0.847 4.603,0.209 15.289,-8.191 28.884,-18.651 40.602,-31.443 4.113,-4.49 7.741,-9.426 11.631,-14.207 -4.544,-2.847 -6.332,-9.394 -13.69,-8.132 2.625,-3.328 5.249,-6.656 7.874,-9.983 -0.247,-0.389 -0.495,-0.777 -0.742,-1.165 -3.899,0.604 -7.798,1.208 -12.233,1.895 0.529,-6.499 0.987,-12.107 1.524,-18.693 3.896,-0.229 7.617,-0.256 11.283,-0.719 3.256,-0.41 4.309,0.78 4.766,3.96 0.691,4.8 3.812,7.482 8.601,7.686 2.929,-4.456 4.956,-11.325 8.852,-12.636 7.114,-2.395 4.436,-8.03 6.534,-11.89 0.364,-0.67 -0.052,-1.763 -0.108,-2.659 -0.455,-0.287 -0.909,-0.573 -1.363,-0.859 -2.694,3.243 -5.801,6.235 -7.974,9.796 -2.439,3.999 -7.665,7.255 -12.026,5.551 -4.008,-1.565 -7.593,-2.351 -11.912,1.406 -2.388,-5.665 -3.995,-10.75 -6.586,-15.271 -2.594,-4.526 -6.026,-8.61 -9.354,-12.672 -4.066,-4.963 -4.604,-8.76 -1.845,-14.571 0.662,-1.394 1.399,-3.545 0.797,-4.618 -4.395,-7.846 0.49,-13.293 4.365,-19.184 6.741,-10.247 15.901,-12.224 27.091,-8.714 7.182,2.252 8.68,0.389 8.199,-6.756 -0.299,-4.438 1.889,-8.994 2.075,-13.533 0.147,-3.588 -0.826,-7.288 -1.711,-10.837 -1.389,-5.569 -3.018,-11.087 -4.742,-16.563 -1.309,-4.158 -2.184,-8.712 -4.53,-12.24 -11.486,-17.272 -25.725,-31.954 -43.223,-43.254 -20.482,-13.228 -42.682,-21.735 -67.163,-23.553 -7.269,-0.541 -14.572,-0.668 -21.863,-0.837 -1.704,-0.039 -3.42,0.522 -5.353,1.581 4.914,2.635 7.751,8.616 14.495,7.723 0.732,-0.097 1.692,0.282 2.306,0.754 5.57,4.284 11.086,8.638 16.621,12.969 2.88,2.254 6.171,4.035 6.399,8.528 0.043,0.854 2.959,2.141 4.607,2.235 7.623,0.436 12.195,4.806 15.244,11.229 1.325,2.792 2.175,5.809 3.445,8.632 1.292,2.868 2.79,5.647 4.284,8.418 1.506,2.796 3.779,5.367 4.532,8.337 1.179,4.654 -3.018,4.835 -6.073,5.958 -9.371,3.447 -18.675,7.077 -28.617,10.868 -2.228,8.389 -5.569,11.076 -15.144,11.626 -1.235,0.071 -2.58,0.755 -3.6,1.52 -3.267,2.445 -6.246,5.306 -9.653,7.517 -1.846,1.199 -4.313,1.501 -6.54,2.038 -4.055,0.974 -8.111,2.025 -12.227,2.636 -2.128,0.316 -4.386,-0.245 -6.759,-0.423 -1.282,6.103 -3.513,7.61 -10.717,6.18 -3.452,-0.685 -6.249,2.193 -6.495,6.683 -0.558,10.206 -0.558,10.206 -10.412,10.796 -2.91,5.106 1.199,9.175 2.608,13.916 -5.081,0.216 -9.983,1.84 -11.406,-5.424 -0.572,-2.919 -6.72,-2.774 -9.99,-0.105 -4.393,3.585 -4.914,9.804 -3.18,15.076 2.615,7.952 7.516,11.093 15.542,10.451 1.215,-0.097 2.608,0.589 3.743,1.224 3.301,1.85 4.886,1.324 8.054,-1.667 3.336,-3.149 7.077,-5.873 9.866,-9.715 0.501,-0.691 2.337,-0.414 4.656,-0.736 -0.676,4.284 -0.976,7.829 -1.84,11.232 -1.065,4.197 -1.872,7.499 3.086,10.413 3.305,1.941 6.095,5.791 7.642,9.415 1.776,4.159 3.146,8.325 6.369,11.689 3.312,3.459 6.146,7.414 9.684,10.602 1.674,1.507 4.503,1.73 7.167,2.66 1.422,-4.454 3.408,-5.072 6.637,-1.694 1.215,1.27 3.647,1.306 5.396,2.166 1.037,0.509 1.822,1.529 3.446,2.959 -9.066,1.19 -10.285,2.815 -8.023,9.469 -1.704,0.422 -3.374,0.836 -6.364,1.576 2.771,0.778 4.354,1.413 5.993,1.648 5.606,0.806 11.264,1.281 16.839,2.244 5.327,0.921 4.568,5.301 4.435,9.047 -0.142,3.993 -4.285,8.724 -7.596,7.435 -7.356,-2.864 -8.782,2.719 -11.32,6.707 -1.876,2.948 -3.631,3.256 -6.248,1.149 -4.422,-3.56 -3.865,-3 -7.556,1.219 -2.641,3.017 -6.937,4.993 -10.869,6.339 -2.879,0.986 -6.366,0.193 -8.942,0.193 -0.748,-3.914 -1.5,-7.002 -1.849,-10.135 -0.121,-1.088 0.421,-2.852 1.237,-3.337 3.51,-2.086 2.218,-4.293 -0.02,-5.76 -3.4,-2.232 -5.697,-4.383 -3.902,-8.882 0.385,-0.963 -0.814,-2.559 -2.576,-3.928 -0.489,1.364 -1.238,2.694 -1.421,4.098 -0.767,5.867 -3.874,9.355 -9.579,8.731 -3.034,-0.333 -6.28,0.313 -9.299,1.054 -3.608,0.885 -6.541,2.877 -5.997,7.284 0.527,4.272 2.252,7.876 6.568,9.602 2.301,0.919 4.644,1.73 6.954,2.626 0.614,0.239 1.688,0.612 1.687,0.92 -0.017,5.576 4.726,4.287 7.739,5.599 1.809,0.789 3.342,2.211 4.999,3.349 -0.939,1.266 -1.808,3.523 -2.831,3.595 -2.264,0.16 -4.632,-0.684 -6.891,-1.35 -0.439,-0.129 -0.571,-1.305 -0.912,-2.17" /></g><g
                 id="g138"
                 transform="translate(216.6509,288.0098)"><path
                   id="path136"
                   style="fill:#fdfdfc;fill-opacity:1;fill-rule:nonzero;stroke:none"
                   d="m 0,0 c 2.249,-3.545 4.379,-7.172 6.783,-10.607 1.891,-2.704 3.748,-5.652 6.293,-7.62 3.076,-2.378 6.939,-5.496 10.324,-5.338 6.375,0.295 9.969,-4.334 14.997,-5.937 5.099,-1.625 9.844,-2.609 11.064,-8.786 0.157,-0.795 1.079,-1.66 1.867,-2.072 4.333,-2.265 8.734,-4.398 11.944,-5.995 -1.404,-6.166 -2.382,-11.806 -4.061,-17.229 -0.785,-2.536 -3.271,-4.502 -4.363,-6.998 -1.369,-3.131 -5.717,-6.173 -1.114,-10.033 -3.464,-3.008 -3.287,-5.148 -0.003,-8.208 2.107,-1.964 4.149,-4.3 5.351,-6.875 3.438,-7.364 8.798,-12.469 15.972,-16.166 1.931,-0.995 4.207,-3.96 4.074,-5.865 -0.578,-8.323 -2.05,-16.582 -3.049,-24.88 -0.311,-2.58 -0.251,-5.218 -0.182,-7.825 0.049,-1.847 0.397,-3.688 0.69,-6.204 -49.385,11.667 -85.593,39.001 -106.67,84.3 -21.77,46.79 -18.927,93.315 5.109,139.506 4.701,-8.013 6.875,-15.068 3.677,-23.622 -1.466,-3.919 -0.298,-9.113 0.599,-13.542 0.842,-4.15 0.049,-9.641 6.126,-11.165 0.524,-0.131 0.818,-1.321 1.15,-2.05 2.287,-5.025 4.567,-10.054 6.826,-15.092 0.878,-1.956 1.375,-4.188 2.646,-5.831 1.025,-1.325 2.952,-1.952 4.479,-2.889 l 0.668,1.125 C 0.524,-4.323 -0.148,-2.747 -0.821,-1.172 -0.547,-0.781 -0.274,-0.391 0,0" /></g><g
                 id="g142"
                 transform="translate(315.8076,357.4658)"><path
                   id="path140"
                   style="fill:#fdfdfc;fill-opacity:1;fill-rule:nonzero;stroke:none"
                   d="M 0,0 H -0.001 C 0.272,0.03 0.546,0.061 0,0" /></g><g
                 id="g146"
                 transform="translate(215.8296,286.8379)"><path
                   id="path144"
                   style="fill:#fdfdfc;fill-opacity:1;fill-rule:nonzero;stroke:none"
                   d="M 0,0 C -0.199,0.672 -0.398,1.344 -0.597,2.016 L 0.821,1.172 C 0.547,0.781 0.274,0.391 0,0" /></g><g
                 id="g150"
                 transform="translate(249.2812,438.814)"><path
                   id="path148"
                   style="fill:#fdfdfc;fill-opacity:1;fill-rule:nonzero;stroke:none"
                   d="m 0,0 -2.367,-0.738 -0.092,-0.105 c 0.848,0.29 1.696,0.581 2.552,0.871 C 0.1,0.029 0,0 0,0" /></g><g
                 id="g154"
                 transform="translate(246.9141,438.0757)"><path
                   id="path152"
                   style="fill:#fdfdfc;fill-opacity:1;fill-rule:nonzero;stroke:none"
                   d="m 0,0 0.006,-0.198 c 0,0 -0.087,0.111 -0.093,0.102 C -0.092,-0.105 0,0 0,0" /></g><g
                 id="g158"
                 transform="translate(271.2358,280.1738)"><path
                   id="path156"
                   style="fill:#2f640c;fill-opacity:1;fill-rule:nonzero;stroke:none"
                   d="M 0,0 C 5.079,5.262 20.291,2.002 25.996,-5.979 22.942,-6.28 20.193,-6.552 17.722,-6.795 13.121,-0.767 7.02,0.748 0,0" /></g><g
                 id="g162"
                 transform="translate(296.0781,269.6719)"><path
                   id="path160"
                   style="fill:#2f640c;fill-opacity:1;fill-rule:nonzero;stroke:none"
                   d="M 0,0 C 1.292,6.495 5.954,5.577 9.778,5.1 11.838,4.842 13.67,2.756 16.094,1.176 10.068,-2.26 5.129,-1.213 0,0" /></g></g></g></g></g></g></g></svg>