<?xml version="1.0" encoding="UTF-8" standalone="no"?>
<svg
   xmlns:dc="http://purl.org/dc/elements/1.1/"
   xmlns:cc="http://creativecommons.org/ns#"
   xmlns:rdf="http://www.w3.org/1999/02/22-rdf-syntax-ns#"
   xmlns:svg="http://www.w3.org/2000/svg"
   xmlns="http://www.w3.org/2000/svg"
   viewBox="0 0 816 1056"
   height="1056"
   width="816"
   xml:space="preserve"
   id="svg2"
   version="1.1"><metadata
     id="metadata8"><rdf:RDF><cc:Work
         rdf:about=""><dc:format>image/svg+xml</dc:format><dc:type
           rdf:resource="http://purl.org/dc/dcmitype/StillImage" /></cc:Work></rdf:RDF></metadata><defs
     id="defs6"><clipPath
       id="clipPath18"
       clipPathUnits="userSpaceOnUse"><path
         id="path16"
         d="M 0,792 H 612 V 0 H 0 Z" /></clipPath><clipPath
       id="clipPath26"
       clipPathUnits="userSpaceOnUse"><path
         id="path24"
         d="M -194,896 H 806 V -104 H -194 Z" /></clipPath></defs><g
     transform="matrix(1.3333333,0,0,-1.3333333,0,1056)"
     id="g10"><g
       id="g12"><g
         clip-path="url(#clipPath18)"
         id="g14"><g
           id="g20"><g
             id="g22" /><g
             id="g180"><g
               id="g178"
               clip-path="url(#clipPath26)"><path
                 id="path28"
                 style="fill:#fefefe;fill-opacity:1;fill-rule:nonzero;stroke:none"
                 d="m 378.874,60.258 h -7.716 v -6.314 h 7.716 z m -0.099,-11.319 h -7.47 V 17.127 h 7.47 z M 365.24,22.547 c -6.668,0.161 -7.93,0.818 -8.131,5.142 -0.252,5.458 -0.06,10.937 -0.06,16.54 2.786,0.162 5.22,0.301 7.981,0.46 -0.116,1.648 -0.213,3.022 -0.325,4.611 h -7.503 c -0.132,3.012 -0.254,5.789 -0.374,8.545 h -4.514 c -2.33,-3.61 -0.484,-10.515 -7.833,-8.931 -2.154,-5.232 2.007,-4.201 4.51,-4.881 0,-5.292 -0.115,-10.443 0.025,-15.587 0.289,-10.667 6.515,-14.597 16.971,-10.561 -0.246,1.537 -0.501,3.13 -0.747,4.662 m -55.878,0.112 c -7.885,0.031 -8.462,0.567 -8.487,7.89 -0.035,10.254 -0.009,20.508 -0.009,31.253 -3.032,-0.279 -5.539,-0.508 -8.055,-0.739 0,-10.898 -0.151,-21.193 0.04,-31.481 0.219,-11.792 5.167,-15.271 16.956,-11.987 -0.135,1.537 -0.276,3.131 -0.445,5.064 M 186.973,47.44 c -7.348,4.168 -15.836,3.502 -20.93,-1.498 -5.021,-4.929 -6.191,-15.438 -2.488,-22.358 3.14,-5.867 10.061,-8.603 17.658,-6.98 5.989,1.279 6.293,1.875 4.106,7.934 -4.547,-1.934 -9.163,-3.732 -13.398,0.431 -2.883,2.834 -3.323,11.414 -0.976,15.147 3.795,6.034 9.101,3.625 14.318,2.043 0.637,1.966 1.181,3.648 1.71,5.281 m 294.367,0.264 c -5.475,2.796 -10.846,2.99 -16.3,1.768 -3.743,-0.839 -6.183,-3.285 -6.772,-7.129 -0.616,-4.012 0.914,-7.278 4.475,-9.242 2.603,-1.436 5.613,-2.17 8.107,-3.747 1.538,-0.973 2.445,-2.942 3.635,-4.463 -1.763,-0.954 -3.55,-2.733 -5.286,-2.685 -3.346,0.094 -6.665,1.22 -9.983,1.915 -1.602,-5.918 -1.477,-6.379 4.369,-7.192 3.399,-0.473 6.957,-0.518 10.359,-0.089 4.521,0.57 7.587,3.173 8.214,8.014 0.639,4.932 -1.321,8.393 -5.873,10.37 -2.129,0.924 -4.438,1.542 -6.377,2.757 -1.522,0.956 -2.601,2.617 -3.877,3.963 1.805,0.775 3.598,2.141 5.418,2.18 2.577,0.056 5.176,-0.868 8.126,-1.443 0.556,1.581 1.13,3.215 1.765,5.023 M 226.576,17.306 c 6.051,-0.194 11.263,-0.795 16.397,-0.394 4.544,0.357 7.452,3.331 8.073,8.112 0.614,4.732 -1.291,8.095 -5.566,10.073 -2.703,1.25 -5.6,2.122 -8.184,3.567 -1.074,0.602 -1.562,2.254 -2.316,3.429 1.177,0.721 2.377,2.084 3.527,2.043 3.243,-0.115 6.467,-0.807 9.994,-1.314 0.514,1.566 1.051,3.203 2.031,6.191 -5.747,0.297 -10.806,1.074 -15.764,0.652 -3.966,-0.337 -7.06,-2.927 -7.648,-7.382 -0.564,-4.271 1.091,-7.518 4.92,-9.47 2.502,-1.275 5.344,-1.969 7.662,-3.491 1.526,-1.001 2.389,-3.01 3.549,-4.569 -1.795,-0.907 -3.615,-2.604 -5.381,-2.55 -3.218,0.099 -6.403,1.235 -10.017,2.03 -0.316,-1.715 -0.635,-3.442 -1.277,-6.927 m 28.872,16.342 c -0.171,-10.647 5.893,-17.509 15.471,-17.507 9.602,0.002 15.731,6.409 15.941,16.662 0.212,10.309 -5.735,17.133 -15.109,17.336 -10.217,0.22 -16.13,-5.761 -16.303,-16.491 m 129.691,-0.45 c 0.02,-10.301 6.088,-16.984 15.483,-17.056 9.766,-0.076 15.905,6.523 15.929,17.115 0.022,10.341 -5.989,16.898 -15.512,16.923 -10.032,0.025 -15.921,-6.264 -15.9,-16.982 M 222.018,33.016 c 0.037,10.901 -5.687,17.183 -15.623,17.145 -9.811,-0.037 -15.506,-6.141 -15.594,-16.715 -0.09,-10.608 6.032,-17.365 15.676,-17.305 9.616,0.059 15.506,6.456 15.541,16.875 M 451.93,17.159 c 0,7.714 0.372,15.194 -0.099,22.62 -0.525,8.28 -7.304,12.381 -15.388,9.741 -2.153,-0.705 -4.116,-1.99 -6.166,-3.008 0.098,0.407 0.197,0.815 0.294,1.222 -2.583,0.595 -5.166,1.19 -7.769,1.789 v -32.38 h 7.794 c 0,6.456 -0.156,12.755 0.049,19.045 0.165,5.067 3.204,7.906 7.805,7.777 5.251,-0.147 5.441,-4.016 5.497,-7.778 0.096,-6.283 0.027,-12.568 0.027,-19.028 z M 156.595,31.47 c 1.094,9.092 -1.57,15.098 -7.557,17.594 -6.204,2.587 -13.649,0.933 -17.771,-3.95 -5.262,-6.23 -4.921,-18.735 0.668,-24.468 5.512,-5.657 17.082,-6.035 23.808,-0.729 -0.364,1.543 -0.734,3.113 -1.108,4.701 -13.011,-4.127 -18.827,-2.022 -18.211,6.852 z m 155.984,17.581 c 0,-7.7 -0.349,-15.021 0.104,-22.291 0.41,-6.576 5.218,-10.176 12.868,-10.635 7.296,-0.438 13.86,2.966 14.387,8.73 0.73,7.984 0.183,16.084 0.183,24.11 h -7.359 c 0,-6.723 0.086,-13.191 -0.033,-19.653 -0.071,-3.896 -1.574,-6.881 -6.067,-7.001 -4.164,-0.112 -5.999,2.094 -6.054,7.307 -0.067,6.424 -0.015,12.849 -0.015,19.433 z M 306.2,76.994 c 62.989,0 125.98,0.039 188.969,-0.069 5.436,-0.01 9.933,1.565 14.203,4.79 14.022,10.587 28.1,21.099 42.28,31.472 4.563,3.336 5.988,7.422 5.26,12.902 -0.912,6.87 -1.391,13.803 -1.877,20.721 -0.812,11.581 -1.411,23.176 -2.226,34.756 -1.21,17.172 -2.672,34.327 -3.751,51.506 -0.678,10.782 -0.635,21.609 -1.301,32.392 -1.082,17.521 -2.585,35.017 -3.71,52.538 -0.883,13.745 -1.341,27.519 -2.209,41.266 -1.168,18.514 -2.548,37.016 -3.838,55.524 -0.381,5.46 -0.749,10.92 -1.152,16.379 -1.267,17.171 -2.627,34.336 -3.796,51.514 -0.845,12.417 -1.385,24.855 -2.161,37.277 -1.25,20.009 -2.582,40.012 -3.882,60.017 -0.377,5.793 -0.72,11.589 -1.157,17.377 -1.25,16.501 -2.683,32.989 -3.772,49.5 -0.916,13.902 -1.358,27.834 -2.192,41.743 -0.396,6.589 -1.072,13.171 -1.89,19.723 -0.578,4.632 -3.438,6.949 -8.204,6.786 -2.485,-0.086 -4.976,-0.127 -7.461,-0.086 -14.801,0.245 -29.6,0.62 -44.401,0.742 -7.672,0.063 -12.794,-1.137 -13.331,-10.177 -0.422,-7.095 -1.159,-14.171 -1.688,-21.261 -1.628,-21.805 -3.285,-43.608 -4.81,-65.42 -1.11,-15.875 -2.037,-31.763 -3.029,-47.647 -1.364,-21.832 -2.852,-43.658 -4.018,-65.502 -0.712,-13.323 -7.636,-20.815 -20.972,-21.843 -1.658,-0.128 -3.328,-0.17 -4.992,-0.17 -65.323,-0.008 -130.646,-0.028 -195.969,0.048 -3.794,0.004 -7.706,0.354 -11.358,1.319 -8.67,2.289 -14.008,7.839 -14.819,17.083 -0.433,4.947 -0.679,9.91 -1.092,14.858 -1.268,15.175 -2.752,30.334 -3.813,45.522 -0.949,13.566 -1.438,27.163 -2.147,40.745 -0.329,6.292 -0.58,12.592 -1.072,18.872 -1.214,15.515 -2.66,31.012 -3.796,46.532 -0.87,11.901 -1.283,23.834 -2.14,35.735 -0.635,8.811 -2.719,10.553 -11.462,10.554 -17.831,0.001 -35.663,-0.132 -53.49,0.083 -5.114,0.062 -7.832,-2.294 -8.927,-6.79 -0.697,-2.864 -0.831,-5.888 -1.004,-8.852 -0.752,-12.924 -1.315,-25.859 -2.155,-38.777 -1.205,-18.519 -2.665,-37.021 -3.875,-55.54 -0.822,-12.582 -1.312,-25.186 -2.111,-37.77 -1.239,-19.518 -2.623,-39.028 -3.931,-58.542 -0.71,-10.59 -1.328,-21.186 -2.096,-31.771 -1.246,-17.18 -2.627,-34.351 -3.861,-51.532 -0.773,-10.751 -1.331,-21.518 -2.072,-32.272 -1.276,-18.52 -2.698,-37.032 -3.906,-55.557 -0.83,-12.748 -1.312,-25.517 -2.11,-38.267 -1.18,-18.863 -2.517,-37.717 -3.76,-56.576 C 63.06,226.662 61.988,210.477 61,194.286 c -1.061,-17.371 -2.021,-34.748 -3.039,-52.121 -0.339,-5.796 -0.18,-11.692 -1.25,-17.352 -0.985,-5.216 0.753,-8.554 4.635,-11.458 13.277,-9.928 26.605,-19.79 39.759,-29.879 5.87,-4.502 11.995,-6.663 19.625,-6.629 61.823,0.262 123.646,0.147 185.47,0.147 M -194,896 H 806 V -104 H -194 Z" /><g
                 id="g32"
                 transform="translate(306.7363,84.9707)"><path
                   id="path30"
                   style="fill:#306307;fill-opacity:1;fill-rule:nonzero;stroke:none"
                   d="m 0,0 c 0.001,-0.026 0.001,-0.054 0.001,-0.08 61.656,0 123.312,0.037 184.969,-0.07 5.01,-0.008 8.801,1.851 12.592,4.845 10.292,8.128 20.183,17.032 31.409,23.626 9.437,5.545 13.376,11.977 11.27,22.423 -0.13,0.647 -0.083,1.328 -0.125,1.993 -1.526,24.229 -3.048,48.457 -4.583,72.686 -0.798,12.592 -1.59,25.183 -2.432,37.772 -1.253,18.727 -2.58,37.448 -3.812,56.175 -0.479,7.295 -0.697,14.609 -1.187,21.902 -1.237,18.396 -2.6,36.784 -3.834,55.18 -0.789,11.76 -1.386,23.533 -2.164,35.294 -1.236,18.731 -2.563,37.456 -3.827,56.185 -0.76,11.275 -1.434,22.555 -2.217,33.828 -1.234,17.723 -2.574,35.439 -3.777,53.164 -0.799,11.77 -1.351,23.557 -2.168,35.327 -1.585,22.86 -3.381,45.708 -4.886,68.574 -0.864,13.114 -1.231,26.262 -2.098,39.377 -0.11,1.643 -1.855,4.505 -2.944,4.554 -14.284,0.648 -28.591,1.303 -42.879,1.086 -8.997,-0.135 -10.354,-2.003 -10.901,-9.206 -1.295,-17.062 -2.701,-34.116 -3.941,-51.182 -1.723,-23.691 -3.4,-47.387 -4.978,-71.088 -1.534,-23.055 -3.289,-46.105 -4.269,-69.186 -1.041,-24.514 -16.242,-33.539 -33.057,-33.415 -67.647,0.498 -135.301,0.247 -202.953,0.277 -18.891,0.008 -29.118,10.018 -30.2,28.887 -1.162,20.251 -2.752,40.477 -4.146,60.716 -2.263,32.846 -4.488,65.696 -6.793,98.54 -0.885,12.599 -1.768,25.204 -3.079,37.762 -0.254,2.429 -1.975,5.852 -3.933,6.696 -3.188,1.375 -7.134,1.349 -10.752,1.3 -10.968,-0.15 -21.93,-0.678 -32.898,-0.896 -7.989,-0.159 -8.826,-0.954 -9.189,-9.005 -0.668,-14.78 -1.245,-29.569 -2.237,-44.329 -1.748,-26.027 -3.84,-52.032 -5.671,-78.055 -1.424,-20.232 -2.611,-40.481 -4.011,-60.716 -1.605,-23.201 -3.417,-46.388 -4.971,-69.592 -1.143,-17.074 -2.022,-34.165 -3.011,-51.249 -1.008,-17.41 -1.836,-34.83 -3.052,-52.224 -1.481,-21.196 -3.547,-42.354 -4.877,-63.558 -1.352,-21.567 -2.058,-43.175 -3.161,-64.759 -0.593,-11.62 -1.497,-23.224 -2.132,-34.841 -1.007,-18.416 -1.999,-36.833 -2.709,-55.261 -0.072,-1.858 1.36,-4.423 2.903,-5.594 13.747,-10.436 27.602,-20.738 41.626,-30.799 2.38,-1.708 5.718,-2.93 8.617,-2.938 C -124.312,-0.039 -62.155,0 0,0 m -0.536,-7.977 c -61.824,0 -123.648,0.116 -185.47,-0.147 -7.63,-0.033 -13.756,2.127 -19.625,6.629 -13.154,10.09 -26.483,19.951 -39.76,29.88 -3.881,2.903 -5.619,6.241 -4.634,11.457 1.069,5.66 0.91,11.556 1.25,17.352 1.018,17.373 1.978,34.75 3.039,52.121 0.988,16.191 2.06,32.376 3.126,48.563 1.243,18.859 2.579,37.713 3.759,56.576 0.798,12.75 1.28,25.52 2.111,38.268 1.207,18.524 2.63,37.036 3.906,55.556 0.74,10.754 1.299,21.521 2.071,32.272 1.235,17.181 2.616,34.352 3.862,51.532 0.767,10.585 1.386,21.182 2.095,31.772 1.308,19.514 2.692,39.023 3.932,58.542 0.799,12.583 1.289,25.187 2.111,37.769 1.209,18.519 2.67,37.021 3.874,55.54 0.841,12.918 1.404,25.854 2.156,38.777 0.172,2.965 0.306,5.989 1.004,8.852 1.094,4.496 3.813,6.852 8.926,6.791 17.828,-0.216 35.66,-0.083 53.491,-0.084 8.743,0 10.827,-1.743 11.461,-10.554 0.857,-11.901 1.27,-23.834 2.141,-35.735 1.136,-15.52 2.582,-31.017 3.796,-46.532 0.492,-6.28 0.743,-12.579 1.071,-18.872 0.709,-13.582 1.199,-27.179 2.147,-40.744 1.062,-15.189 2.546,-30.348 3.813,-45.522 0.413,-4.949 0.659,-9.912 1.093,-14.858 0.811,-9.245 6.149,-14.794 14.818,-17.084 3.653,-0.965 7.564,-1.314 11.359,-1.319 65.322,-0.076 130.645,-0.056 195.968,-0.048 1.665,0 3.334,0.042 4.993,0.17 13.336,1.028 20.259,8.52 20.971,21.844 1.166,21.843 2.655,43.669 4.019,65.502 0.992,15.883 1.919,31.771 3.028,47.647 1.526,21.812 3.183,43.614 4.811,65.419 0.529,7.09 1.265,14.166 1.687,21.262 0.537,9.039 5.659,10.239 13.331,10.176 14.802,-0.122 29.601,-0.497 44.402,-0.742 2.485,-0.041 4.975,10e-4 7.461,0.086 4.765,0.164 7.626,-2.154 8.204,-6.785 0.818,-6.553 1.494,-13.134 1.889,-19.724 0.834,-13.908 1.277,-27.84 2.193,-41.742 1.089,-16.511 2.521,-33 3.771,-49.501 0.438,-5.788 0.781,-11.583 1.157,-17.376 1.3,-20.006 2.632,-40.009 3.882,-60.018 0.777,-12.422 1.317,-24.86 2.161,-37.277 1.169,-17.178 2.53,-34.342 3.796,-51.514 0.404,-5.458 0.772,-10.919 1.153,-16.379 1.29,-18.508 2.67,-37.009 3.838,-55.524 0.868,-13.747 1.326,-27.521 2.209,-41.266 1.125,-17.52 2.627,-35.016 3.71,-52.538 0.666,-10.783 0.623,-21.61 1.3,-32.391 1.079,-17.18 2.541,-34.334 3.751,-51.506 0.816,-11.58 1.414,-23.176 2.227,-34.757 0.485,-6.918 0.965,-13.851 1.877,-20.721 0.727,-5.479 -0.697,-9.565 -5.26,-12.902 -14.181,-10.372 -28.259,-20.885 -42.28,-31.472 -4.271,-3.224 -8.767,-4.8 -14.203,-4.79 -62.99,0.109 -125.98,0.069 -188.969,0.069" /></g><g
                 id="g36"
                 transform="translate(312.5791,49.0508)"><path
                   id="path34"
                   style="fill:#3b6c13;fill-opacity:1;fill-rule:nonzero;stroke:none"
                   d="m 0,0 h 8.014 c 0,-6.584 -0.052,-13.009 0.015,-19.433 0.055,-5.213 1.89,-7.419 6.054,-7.307 4.493,0.12 5.996,3.105 6.067,7.001 0.119,6.463 0.033,12.93 0.033,19.653 h 7.359 c 0,-8.025 0.547,-16.126 -0.183,-24.109 -0.527,-5.765 -7.091,-9.169 -14.387,-8.731 -7.65,0.459 -12.458,4.059 -12.868,10.635 C -0.349,-15.021 0,-7.7 0,0" /></g><g
                 id="g40"
                 transform="translate(149.3589,36.6973)"><path
                   id="path38"
                   style="fill:#36690d;fill-opacity:1;fill-rule:nonzero;stroke:none"
                   d="M 0,0 C -0.186,4.893 -2.013,7.727 -6.557,7.603 -11.152,7.477 -13.079,4.595 -13.373,0 Z m 7.236,-5.228 h -20.171 c -0.616,-8.874 5.2,-10.978 18.211,-6.851 0.374,-1.588 0.745,-3.158 1.108,-4.701 -6.726,-5.306 -18.296,-4.928 -23.808,0.728 -5.589,5.734 -5.93,18.239 -0.668,24.469 4.122,4.883 11.568,6.537 17.771,3.95 C 5.667,9.871 8.33,3.864 7.236,-5.228" /></g><g
                 id="g44"
                 transform="translate(451.9297,17.1592)"><path
                   id="path42"
                   style="fill:#36690d;fill-opacity:1;fill-rule:nonzero;stroke:none"
                   d="m 0,0 h -7.956 c 0,6.46 0.069,12.745 -0.026,19.027 -0.057,3.763 -0.247,7.632 -5.497,7.779 -4.602,0.129 -7.641,-2.71 -7.806,-7.778 -0.204,-6.289 -0.049,-12.589 -0.049,-19.045 h -7.794 v 32.381 c 2.604,-0.599 5.187,-1.194 7.77,-1.789 -0.098,-0.407 -0.197,-0.815 -0.294,-1.222 2.049,1.018 4.012,2.303 6.166,3.007 8.084,2.641 14.862,-1.461 15.387,-9.74 C 0.372,15.193 0,7.714 0,0" /></g><g
                 id="g48"
                 transform="translate(214.2969,33.25)"><path
                   id="path46"
                   style="fill:#336609;fill-opacity:1;fill-rule:nonzero;stroke:none"
                   d="m 0,0 c -0.312,1.751 -0.502,3.561 -0.968,5.296 -0.977,3.638 -3.317,5.555 -7.22,5.451 -3.737,-0.099 -6.059,-2.28 -6.627,-5.565 -0.578,-3.342 -0.529,-6.923 -0.018,-10.286 0.557,-3.671 3.27,-5.739 7.046,-5.706 3.524,0.032 5.928,1.915 6.819,5.397 C -0.522,-3.668 -0.324,-1.86 0,0 M 7.721,-0.234 C 7.686,-10.653 1.796,-17.05 -7.82,-17.109 c -9.644,-0.06 -15.765,6.697 -15.676,17.305 0.088,10.574 5.783,16.678 15.594,16.715 9.936,0.038 15.66,-6.244 15.623,-17.145" /></g><g
                 id="g52"
                 transform="translate(408.7109,32.8896)"><path
                   id="path50"
                   style="fill:#336609;fill-opacity:1;fill-rule:nonzero;stroke:none"
                   d="m 0,0 c -0.29,2.083 -0.345,3.77 -0.782,5.35 -0.91,3.291 -2.813,5.579 -6.559,5.769 -3.873,0.196 -6.809,-1.537 -7.29,-5.244 -0.515,-3.97 -0.594,-8.298 0.53,-12.054 0.575,-1.92 4.22,-4.08 6.426,-4.026 2.195,0.053 4.782,2.389 6.335,4.393 C -0.165,-4.296 -0.347,-1.729 0,0 m -23.572,0.309 c -0.021,10.717 5.868,17.006 15.9,16.981 C 1.852,17.266 7.862,10.708 7.84,0.367 7.816,-10.225 1.677,-16.823 -8.089,-16.748 c -9.395,0.072 -15.463,6.756 -15.483,17.057" /></g><g
                 id="g56"
                 transform="translate(279.2012,33.1855)"><path
                   id="path54"
                   style="fill:#336609;fill-opacity:1;fill-rule:nonzero;stroke:none"
                   d="M 0,0 C -0.53,2.342 -0.44,4.858 -1.621,6.407 -3.063,8.3 -5.564,10.5 -7.62,10.512 c -2.28,0.013 -5.503,-1.739 -6.672,-3.7 -2.568,-4.308 -2.557,-9.441 0.113,-13.746 1.17,-1.887 4.137,-3.578 6.335,-3.638 1.973,-0.053 4.591,1.839 5.86,3.628 C -0.655,-5.071 -0.594,-2.298 0,0 m -23.753,0.463 c 0.172,10.729 6.086,16.711 16.303,16.49 C 1.923,16.75 7.871,9.927 7.659,-0.383 c -0.21,-10.253 -6.34,-16.66 -15.941,-16.662 -9.578,-0.002 -15.642,6.86 -15.471,17.508" /></g><g
                 id="g60"
                 transform="translate(226.5762,17.3057)"><path
                   id="path58"
                   style="fill:#34680b;fill-opacity:1;fill-rule:nonzero;stroke:none"
                   d="M 0,0 C 0.642,3.485 0.96,5.212 1.277,6.928 4.891,6.133 8.076,4.996 11.293,4.897 c 1.767,-0.053 3.586,1.643 5.382,2.55 -1.16,1.559 -2.024,3.569 -3.55,4.57 -2.317,1.521 -5.16,2.215 -7.662,3.491 -3.828,1.951 -5.484,5.198 -4.92,9.47 0.589,4.455 3.683,7.044 7.649,7.381 4.957,0.422 10.017,-0.355 15.764,-0.652 -0.98,-2.987 -1.517,-4.625 -2.031,-6.19 -3.527,0.506 -6.751,1.198 -9.994,1.313 -1.15,0.041 -2.35,-1.321 -3.527,-2.043 0.754,-1.175 1.242,-2.827 2.316,-3.429 2.584,-1.445 5.481,-2.317 8.184,-3.567 C 23.179,15.813 25.083,12.45 24.47,7.719 23.849,2.938 20.941,-0.037 16.396,-0.394 11.263,-0.795 6.051,-0.193 0,0" /></g><g
                 id="g64"
                 transform="translate(481.3398,47.7041)"><path
                   id="path62"
                   style="fill:#34680b;fill-opacity:1;fill-rule:nonzero;stroke:none"
                   d="m 0,0 c -0.635,-1.808 -1.209,-3.442 -1.765,-5.023 -2.95,0.575 -5.548,1.499 -8.126,1.443 -1.82,-0.039 -3.613,-1.405 -5.418,-2.18 1.276,-1.346 2.355,-3.008 3.877,-3.963 1.939,-1.215 4.248,-1.833 6.377,-2.757 4.552,-1.977 6.512,-5.438 5.873,-10.371 -0.627,-4.84 -3.693,-7.443 -8.214,-8.013 -3.402,-0.429 -6.959,-0.384 -10.359,0.089 -5.846,0.813 -5.971,1.274 -4.369,7.192 3.318,-0.695 6.637,-1.821 9.983,-1.915 1.736,-0.048 3.523,1.731 5.287,2.685 -1.191,1.521 -2.098,3.49 -3.636,4.462 -2.493,1.578 -5.504,2.312 -8.107,3.747 -3.561,1.965 -5.09,5.231 -4.475,9.243 0.59,3.843 3.029,6.29 6.772,7.129 C -10.846,2.99 -5.475,2.796 0,0" /></g><g
                 id="g68"
                 transform="translate(186.9731,47.4404)"><path
                   id="path66"
                   style="fill:#36690d;fill-opacity:1;fill-rule:nonzero;stroke:none"
                   d="m 0,0 c -0.529,-1.634 -1.073,-3.315 -1.71,-5.281 -5.217,1.582 -10.523,3.991 -14.318,-2.043 -2.347,-3.734 -1.908,-12.314 0.976,-15.148 4.235,-4.163 8.851,-2.364 13.398,-0.43 2.187,-6.059 1.883,-6.656 -4.106,-7.935 -7.597,-1.622 -14.518,1.113 -17.658,6.981 -3.703,6.919 -2.533,17.428 2.488,22.358 5.094,5 13.582,5.666 20.93,1.498" /></g><g
                 id="g72"
                 transform="translate(309.3623,22.6592)"><path
                   id="path70"
                   style="fill:#34680b;fill-opacity:1;fill-rule:nonzero;stroke:none"
                   d="m 0,0 c 0.169,-1.934 0.31,-3.527 0.444,-5.064 -11.788,-3.285 -16.736,0.195 -16.955,11.987 -0.192,10.288 -0.04,20.583 -0.04,31.48 2.516,0.232 5.023,0.461 8.055,0.74 0,-10.746 -0.026,-20.999 0.009,-31.253 C -8.462,0.566 -7.885,0.031 0,0" /></g><g
                 id="g76"
                 transform="translate(365.2402,22.5469)"><path
                   id="path74"
                   style="fill:#336609;fill-opacity:1;fill-rule:nonzero;stroke:none"
                   d="m 0,0 c 0.246,-1.532 0.501,-3.125 0.747,-4.662 -10.456,-4.036 -16.683,-0.106 -16.972,10.561 -0.139,5.144 -0.024,10.295 -0.024,15.587 -2.503,0.68 -6.664,-0.351 -4.51,4.881 7.349,-1.584 5.503,5.321 7.833,8.931 h 4.514 c 0.12,-2.756 0.242,-5.533 0.374,-8.545 h 7.503 c 0.112,-1.589 0.209,-2.963 0.325,-4.61 -2.762,-0.16 -5.195,-0.299 -7.981,-0.46 0,-5.604 -0.192,-11.082 0.06,-16.54 C -7.931,0.818 -6.668,0.161 0,0" /></g><path
                 id="path78"
                 style="fill:#2e6304;fill-opacity:1;fill-rule:nonzero;stroke:none"
                 d="m 378.775,17.127 h -7.47 v 31.812 h 7.47 z" /><path
                 id="path80"
                 style="fill:#3b6c13;fill-opacity:1;fill-rule:nonzero;stroke:none"
                 d="m 378.874,53.943 h -7.716 v 6.314 h 7.716 z" /><g
                 id="g84"
                 transform="translate(391.6152,130.5459)"><path
                   id="path82"
                   style="fill:#fdfdfd;fill-opacity:1;fill-rule:nonzero;stroke:none"
                   d="m 0,0 -0.63,1.392 c -7.927,-3.027 -15.854,-6.053 -23.782,-9.079 l 0.571,-1.444 C -15.894,-6.087 -7.947,-3.044 0,0 m -75.961,-9.715 c 48.62,-0.53 85.482,14.772 116.161,44.975 36.144,35.584 50.71,79.255 47.149,129.321 -4.978,69.947 -65.478,139.864 -148.715,144.194 -96.33,5.013 -166.715,-73.603 -167.453,-157.512 -0.787,-89.478 72.826,-163.429 152.858,-160.978 m 50.195,327.037 c 4.985,-2.157 9.966,-4.323 14.991,-6.385 0.068,-0.028 0.678,1.264 1.036,1.94 1.362,-0.776 2.676,-1.665 4.103,-2.294 1.17,-0.515 2.476,-0.722 3.721,-1.066 0.129,0.618 0.259,1.236 0.389,1.854 -16.045,6.858 -32.238,13.224 -50.041,14.163 -9.546,0.374 -19.096,1.119 -28.638,1.045 -20.924,-0.162 -41.087,-4.429 -60.53,-12.188 -17.799,-7.102 -33.087,-18.214 -48.152,-29.734 -3.511,-2.685 -7.682,-4.591 -10.894,-7.564 -3.965,-3.67 -7.372,-7.976 -10.794,-12.191 -6.055,-7.461 -12.705,-14.584 -17.75,-22.691 -14.556,-23.398 -21.646,-49.449 -24.014,-76.649 -0.927,-10.649 0.174,-21.562 1.189,-32.275 2.227,-23.524 8.93,-45.728 20.182,-66.641 17.277,-32.11 42.055,-56.641 73.946,-73.931 14.718,-7.981 30.232,-13.449 47.255,-15.472 18.132,-2.154 35.986,-4.53 54.353,-2.568 44.166,4.72 80.549,24.098 110.252,56.691 0.679,0.745 1.085,1.738 1.618,2.614 -0.761,0.71 -1.521,1.419 -2.282,2.129 -0.643,-1.546 -0.899,-3.48 -1.994,-4.57 C 47.433,26.82 42.663,22.077 37.496,17.836 18.116,1.929 -3.703,-9.4 -27.927,-15.932 c -5.561,-1.5 -11.595,-3.912 -16.895,-2.976 -5.484,0.968 -10.288,0.739 -15.622,-0.021 -6.191,-0.883 -12.597,-0.278 -18.909,-0.226 -0.398,0.004 -0.791,0.806 -2.085,2.218 8.942,0.545 16.859,1.028 24.777,1.51 5.481,0.788 10.964,1.577 16.445,2.365 l -0.346,1.905 c -5.351,-1.126 -10.703,-2.252 -16.054,-3.377 -12.738,0.603 -25.53,0.661 -38.201,1.937 -19.202,1.936 -37.333,8.356 -54.079,17.529 -28.385,15.547 -50.684,37.517 -66.564,66.119 -11.548,20.798 -18.614,42.846 -20.678,66.296 -1.1,12.504 -0.483,25.299 0.701,37.837 2.778,29.42 14.326,55.633 31.284,79.584 3.527,4.98 7.39,9.721 11.098,14.573 1.769,1.624 3.696,3.112 5.257,4.915 1.317,1.52 2.209,3.409 3.29,5.134 14.516,9.568 27.918,20.893 44.016,27.971 11.95,3.512 23.91,6.984 35.829,10.594 1.177,0.357 2.099,1.558 3.139,2.367 0.347,0.343 0.694,0.685 1.041,1.028 6.307,-1.779 12.535,-1.947 18.632,0.866 0.281,0.129 0.659,0.1 0.985,0.072 11.177,-0.955 22.348,-1.966 33.531,-2.847 2.511,-0.198 5.057,0.051 7.587,0.094 l 7.09,-1.186 c 2.298,-0.343 4.595,-0.685 6.892,-1.027 M -84.879,-45.575 c -62.155,0 -124.311,-0.039 -186.467,0.126 -2.899,0.008 -6.237,1.23 -8.617,2.938 -14.024,10.061 -27.879,20.363 -41.626,30.799 -1.543,1.171 -2.974,3.735 -2.903,5.594 0.71,18.428 1.702,36.845 2.709,55.261 0.635,11.617 1.539,23.221 2.132,34.84 1.103,21.584 1.809,43.193 3.161,64.76 1.33,21.204 3.396,42.361 4.877,63.558 1.216,17.393 2.044,34.814 3.052,52.223 0.989,17.084 1.868,34.176 3.011,51.25 1.554,23.204 3.366,46.391 4.971,69.592 1.4,20.235 2.587,40.484 4.011,60.716 1.831,26.023 3.923,52.027 5.672,78.055 0.991,14.76 1.568,29.549 2.236,44.328 0.363,8.052 1.201,8.847 9.189,9.006 10.968,0.218 21.93,0.746 32.898,0.896 3.618,0.049 7.564,0.074 10.752,-1.3 1.958,-0.844 3.679,-4.267 3.933,-6.696 1.311,-12.558 2.194,-25.163 3.079,-37.762 2.305,-32.844 4.53,-65.694 6.793,-98.541 1.394,-20.238 2.984,-40.464 4.146,-60.715 1.082,-18.87 11.309,-28.879 30.201,-28.887 67.651,-0.03 135.305,0.221 202.952,-0.278 16.815,-0.123 32.016,8.901 33.057,33.416 0.98,23.081 2.735,46.13 4.269,69.186 1.579,23.701 3.255,47.397 4.978,71.088 1.24,17.066 2.646,34.12 3.941,51.182 0.547,7.203 1.904,9.07 10.901,9.206 14.288,0.216 28.595,-0.438 42.879,-1.086 1.089,-0.049 2.835,-2.911 2.944,-4.555 0.867,-13.114 1.234,-26.262 2.098,-39.376 1.505,-22.867 3.301,-45.714 4.886,-68.575 0.817,-11.769 1.369,-23.556 2.168,-35.326 1.203,-17.725 2.543,-35.441 3.777,-53.164 0.783,-11.273 1.457,-22.554 2.217,-33.829 1.264,-18.729 2.591,-37.454 3.828,-56.185 0.777,-11.76 1.374,-23.533 2.163,-35.293 1.234,-18.397 2.597,-36.784 3.834,-55.18 0.49,-7.294 0.708,-14.607 1.187,-21.902 1.232,-18.728 2.559,-37.448 3.812,-56.175 0.842,-12.589 1.634,-25.181 2.432,-37.772 1.535,-24.229 3.057,-48.457 4.583,-72.686 0.042,-0.665 -0.005,-1.347 0.125,-1.993 2.106,-10.446 -1.833,-16.878 -11.27,-22.423 -11.226,-6.595 -21.117,-15.498 -31.408,-23.626 -3.791,-2.994 -7.582,-4.853 -12.593,-4.846 -61.656,0.108 -123.313,0.071 -184.969,0.071 0,0.026 0,0.053 -0.001,0.08" /></g><g
                 id="g88"
                 transform="translate(149.3589,36.6973)"><path
                   id="path86"
                   style="fill:#e9efe5;fill-opacity:1;fill-rule:nonzero;stroke:none"
                   d="m 0,0 h -13.373 c 0.294,4.595 2.221,7.477 6.816,7.603 C -2.013,7.727 -0.186,4.893 0,0" /></g><g
                 id="g92"
                 transform="translate(214.2969,33.25)"><path
                   id="path90"
                   style="fill:#fdfdfc;fill-opacity:1;fill-rule:nonzero;stroke:none"
                   d="m 0,0 c -0.324,-1.86 -0.522,-3.668 -0.968,-5.413 -0.891,-3.482 -3.295,-5.365 -6.819,-5.397 -3.776,-0.033 -6.489,2.035 -7.046,5.706 -0.511,3.363 -0.56,6.944 0.018,10.286 0.568,3.285 2.89,5.466 6.627,5.565 3.903,0.104 6.243,-1.813 7.22,-5.451 C -0.502,3.561 -0.312,1.751 0,0" /></g><g
                 id="g96"
                 transform="translate(408.7109,32.8896)"><path
                   id="path94"
                   style="fill:#f6f8f4;fill-opacity:1;fill-rule:nonzero;stroke:none"
                   d="m 0,0 c -0.347,-1.729 -0.165,-4.296 -1.34,-5.812 -1.553,-2.004 -4.14,-4.34 -6.335,-4.393 -2.206,-0.054 -5.851,2.106 -6.426,4.026 -1.124,3.756 -1.045,8.084 -0.53,12.054 0.481,3.707 3.417,5.44 7.29,5.244 3.746,-0.19 5.649,-2.478 6.559,-5.769 C -0.345,3.77 -0.29,2.083 0,0" /></g><g
                 id="g100"
                 transform="translate(279.2012,33.1855)"><path
                   id="path98"
                   style="fill:#f6f8f4;fill-opacity:1;fill-rule:nonzero;stroke:none"
                   d="m 0,0 c -0.594,-2.298 -0.655,-5.071 -1.984,-6.944 -1.269,-1.789 -3.887,-3.681 -5.86,-3.628 -2.198,0.06 -5.165,1.751 -6.335,3.638 -2.67,4.305 -2.681,9.438 -0.113,13.746 1.169,1.961 4.392,3.713 6.672,3.7 C -5.564,10.5 -3.063,8.3 -1.621,6.407 -0.44,4.858 -0.53,2.342 0,0" /></g><g
                 id="g104"
                 transform="translate(316.5166,357.6299)"><path
                   id="path102"
                   style="fill:#2e6304;fill-opacity:1;fill-rule:nonzero;stroke:none"
                   d="m 0,0 h -0.777 c 0.102,-0.083 0.194,-0.202 0.311,-0.237 0.122,-0.037 0.272,-0.006 0.402,0.025 C -0.03,-0.203 -0.023,-0.085 0,0 m 116.755,-27.045 c 0.069,-0.502 0.138,-1.003 0.207,-1.505 2.859,0.27 5.851,0.096 8.551,0.899 5.883,1.747 10.963,-0.707 13.966,-6.059 1.911,-3.406 5.235,-6.019 7.925,-8.988 0.569,0.366 1.137,0.731 1.704,1.097 -0.613,2.784 -1.131,5.591 -1.867,8.342 -0.698,2.613 -1.801,3.995 -4.775,5.658 -4.158,2.324 -6.217,8.405 -9.22,12.947 -5.057,-0.263 -7.597,-3.248 -8.901,-8.111 -0.391,-1.458 -2.451,-2.635 -3.978,-3.56 -0.987,-0.599 -2.393,-0.504 -3.612,-0.72 M 19.501,57.289 c -1.184,2.685 -2.593,4.994 -2.263,5.277 2.553,2.192 0.682,3.455 -0.686,4.863 -6.104,6.283 -14.183,6.389 -21.823,5.765 -18.78,-1.534 -36.885,-6.125 -53.932,-14.429 -11.025,-5.371 -21.198,-12.001 -30.331,-20.443 3.118,0.322 5.945,1.419 8.866,2.138 5.686,1.401 11.421,3.527 17.144,3.55 4.06,0.017 6.344,1.491 8.574,3.984 3.282,3.669 10.334,3.938 13.763,0 0.345,0.864 0.478,2.03 0.919,2.162 2.254,0.675 4.617,1.532 6.878,1.38 1.027,-0.068 1.908,-2.319 2.854,-3.58 -1.649,-1.145 -3.175,-2.566 -4.976,-3.373 -2.988,-1.337 -7.787,0.04 -7.746,-5.582 0.003,-0.307 -1.07,-0.685 -1.683,-0.924 -2.309,-0.897 -4.646,-1.723 -6.952,-2.628 -4.343,-1.706 -6.038,-5.334 -6.588,-9.588 -0.569,-4.397 2.357,-6.39 5.966,-7.308 2.853,-0.726 5.864,-1.062 8.814,-1.129 7.053,-0.162 9.169,-2.035 10.047,-9.127 0.155,-1.258 0.986,-2.434 1.504,-3.648 1.708,1.374 2.918,2.964 2.537,3.92 -1.783,4.483 0.462,6.664 3.879,8.894 2.232,1.457 3.567,3.649 0.07,5.764 -0.822,0.497 -1.383,2.239 -1.265,3.32 0.344,3.136 1.094,6.226 1.775,9.813 0.493,0.065 1.6,0.272 2.717,0.344 6.706,0.438 13.049,-0.754 17.254,-6.397 3.416,-4.586 3.083,-4.91 7.447,-1.369 2.607,2.118 4.385,1.849 6.253,-1.102 2.537,-4.009 3.943,-9.585 11.304,-6.727 3.316,1.288 7.487,-3.425 7.629,-7.405 C 27.584,9.965 28.375,5.564 23.052,4.631 17.479,3.654 11.819,3.189 6.215,2.387 4.562,2.149 2.965,1.522 0.16,0.747 c 3.011,-0.746 4.678,-1.16 6.373,-1.581 -2.199,-6.724 -1.006,-8.322 8.001,-9.445 -1.58,-1.44 -2.343,-2.485 -3.37,-2.991 -1.749,-0.861 -4.199,-0.874 -5.406,-2.144 -3.207,-3.378 -5.196,-2.819 -6.371,0.851 -4.954,0.57 -8.141,-1.261 -10.165,-5.321 -0.569,-1.141 -1.758,-1.983 -2.697,-2.928 -4.446,-4.478 -8.713,-8.778 -10.513,-15.406 -1.027,-3.78 -4.34,-7.827 -7.752,-9.863 -4.943,-2.947 -4.168,-6.214 -3.124,-10.402 0.849,-3.412 1.18,-6.952 1.868,-11.225 -2.304,0.286 -4.104,-0.021 -4.645,0.664 -2.914,3.69 -6.622,6.535 -9.834,9.719 -3.425,3.395 -5.176,3.351 -8.507,1.456 -0.986,-0.562 -2.231,-1.092 -3.307,-1.004 -7.992,0.648 -12.967,-2.379 -15.569,-10.399 -1.725,-5.319 -1.267,-11.451 3.129,-15.083 3.219,-2.663 9.418,-2.851 10,0.029 1.446,7.161 6.298,5.737 11.661,5.448 -1.246,-2.549 -2.706,-4.624 -3.254,-6.918 -0.528,-2.212 -0.114,-4.649 -0.114,-6.866 0.999,-0.176 1.325,-0.275 1.654,-0.285 9.399,-0.321 9.688,-0.632 9.279,-10.074 -0.194,-4.468 2.9,-7.945 6.452,-7.25 7.293,1.427 9.489,-0.039 10.768,-6.188 2.342,0.191 4.592,0.776 6.707,0.462 4.117,-0.61 8.169,-1.677 12.225,-2.651 2.229,-0.535 4.704,-0.812 6.549,-2.007 3.409,-2.207 6.388,-5.069 9.652,-7.519 1.023,-0.767 2.356,-1.471 3.59,-1.553 9.725,-0.644 13.008,-3.275 15.22,-11.821 11.081,-4.017 21.732,-7.766 32.253,-11.848 1.225,-0.475 2.681,-3.034 2.384,-4.211 -0.723,-2.865 -2.226,-5.598 -3.781,-8.162 -0.995,-1.638 -3.575,-2.725 -3.84,-4.327 -1.109,-6.662 -3.853,-12.379 -7.57,-17.973 -2,-3.011 -3.614,-4.942 -7.439,-5.424 -3.306,-0.417 -8.514,-1.57 -9.191,-3.619 -1.318,-3.979 -3.715,-6.14 -6.617,-8.398 -5.547,-4.314 -11.039,-8.699 -16.599,-12.996 -0.619,-0.477 -1.591,-0.908 -2.305,-0.79 -6.857,1.136 -9.502,-5.251 -14.565,-7.641 1.906,-1.095 3.607,-1.681 5.294,-1.643 7.29,0.166 14.586,0.359 21.861,0.825 19.137,1.227 36.985,7.079 53.929,15.76 23.495,12.038 42.219,29.51 56.751,51.412 2.33,3.513 3.027,8.141 4.316,12.304 1.602,5.175 3.212,10.359 4.48,15.621 0.926,3.847 1.871,7.839 1.78,11.742 -0.103,4.377 -2.232,8.789 -1.923,13.073 0.522,7.248 -0.902,8.938 -8.103,6.881 -10.063,-2.876 -19.066,-2.75 -25.8,7.107 -4.438,6.494 -10.403,12.199 -5.64,21.148 0.557,1.046 -0.381,3.178 -1.101,4.559 -2.304,4.419 -2.162,8.682 0.735,12.634 4.683,6.395 10.287,12.204 12.088,20.319 0.169,0.761 0.761,1.472 1.28,2.107 4.799,5.867 4.725,6.147 -2.843,8.61 -0.444,5.455 -0.902,11.061 -1.431,17.556 4.446,-0.689 8.333,-1.291 12.222,-1.893 0.251,0.387 0.501,0.775 0.752,1.163 -2.625,3.327 -5.25,6.655 -7.874,9.982 7.356,-1.258 9.147,5.285 13.691,8.132 -3.888,4.78 -7.516,9.716 -11.629,14.206 -11.717,12.791 -25.312,23.251 -40.6,31.442 -1.191,0.639 -3.35,0.46 -4.603,-0.202 -2.698,-1.427 -5.044,-4.815 -7.631,-4.915 -8.122,-0.315 -6.137,-6.221 -6.88,-10.705 -0.189,-1.138 0.415,-2.823 -0.177,-3.392 -1.326,-1.277 -4.453,-3.027 -4.621,-2.816 -3.375,4.25 -8.092,2.603 -12.291,3.262 -2.182,0.342 -4.648,1.174 -6.221,2.617 -3.24,2.975 -5.794,6.687 -8.957,9.758 -2.813,2.732 -4.599,5.319 -2.743,7.572 M -99.866,-69.622 c -0.472,0.282 -0.945,0.564 -1.418,0.846 0.199,-0.671 0.398,-1.343 0.597,-2.015 0.673,-1.576 1.346,-3.151 2.019,-4.728 -0.215,-0.379 -0.43,-0.759 -0.644,-1.139 -1.535,0.941 -3.47,1.572 -4.503,2.903 -1.273,1.64 -1.768,3.874 -2.646,5.831 -2.26,5.037 -4.539,10.066 -6.827,15.091 -0.332,0.729 -0.625,1.919 -1.149,2.051 -6.076,1.524 -5.286,7.011 -6.126,11.164 -0.896,4.429 -2.065,9.622 -0.601,13.541 3.198,8.554 1.028,15.611 -3.675,23.623 -24.035,-46.19 -26.88,-92.713 -5.11,-139.503 21.076,-45.299 57.284,-72.633 106.67,-84.3 -0.293,2.515 -0.641,4.355 -0.69,6.203 -0.069,2.607 -0.129,5.244 0.181,7.824 1,8.299 2.472,16.557 3.05,24.881 0.133,1.905 -2.143,4.869 -4.074,5.865 -7.174,3.697 -12.535,8.801 -15.972,16.166 -1.202,2.574 -3.244,4.911 -5.351,6.874 -3.284,3.06 -3.462,5.201 0.002,8.208 -4.602,3.86 -0.255,6.903 1.114,10.033 1.093,2.497 3.58,4.462 4.364,6.998 1.679,5.423 2.656,11.062 4.06,17.228 -3.209,1.598 -7.61,3.732 -11.943,5.997 -0.788,0.411 -1.71,1.276 -1.867,2.071 -1.22,6.176 -5.964,7.163 -11.064,8.786 -5.029,1.601 -8.619,6.235 -14.997,5.936 -3.384,-0.159 -7.247,2.961 -10.324,5.339 -2.545,1.969 -4.402,4.916 -6.293,7.619 -2.404,3.436 -4.534,7.063 -6.783,10.607 m 99.004,-167.177 c -80.032,-2.451 -153.646,71.5 -152.859,160.978 C -152.982,8.088 -82.598,86.704 13.732,81.691 96.97,77.361 157.47,7.444 162.447,-62.503 166.009,-112.569 151.442,-156.24 115.299,-191.824 84.62,-222.027 47.758,-237.329 -0.862,-236.799" /></g><g
                 id="g108"
                 transform="translate(291.1323,451.8955)"><path
                   id="path106"
                   style="fill:#2f640c;fill-opacity:1;fill-rule:nonzero;stroke:none"
                   d="m 0,0 c -0.347,-0.342 -0.694,-0.685 -1.042,-1.027 -2.104,0.285 -4.345,1.179 -6.288,0.742 -6.08,-1.368 -12.182,-2.874 -18.022,-5.016 -5.743,-2.106 -11.176,-5.054 -16.746,-7.633 -0.67,-0.327 -1.34,-0.654 -2.009,-0.982 -0.094,-0.21 -0.188,-0.42 -0.282,-0.631 0.072,0.23 0.145,0.46 0.217,0.69 0.673,0.33 1.346,0.659 2.02,0.989 0.714,-0.373 1.429,-0.747 2.143,-1.12 -16.098,-7.079 -29.5,-18.403 -44.016,-27.971 -3.28,-2.612 -6.576,-5.204 -9.769,-7.917 -0.114,-0.097 0.792,-1.394 1.222,-2.132 -3.708,-4.852 -7.572,-9.594 -11.098,-14.574 -16.958,-23.95 -28.506,-50.163 -31.285,-79.584 -1.183,-12.537 -1.8,-25.333 -0.7,-37.837 2.064,-23.449 9.13,-45.498 20.677,-66.296 15.881,-28.601 38.18,-50.571 66.565,-66.119 16.746,-9.173 34.877,-15.593 54.079,-17.528 12.67,-1.277 25.463,-1.334 38.201,-1.938 -0.069,-0.295 -0.083,-0.593 -0.045,-0.892 -7.918,-0.483 -15.835,-0.965 -24.778,-1.511 1.295,-1.411 1.688,-2.214 2.086,-2.218 6.312,-0.052 12.718,-0.656 18.909,0.227 5.334,0.759 10.138,0.988 15.622,0.02 5.299,-0.935 11.334,1.477 16.895,2.977 24.224,6.531 46.043,17.86 65.423,33.767 5.167,4.242 9.937,8.985 14.684,13.703 1.095,1.09 1.351,3.025 1.994,4.571 0.76,-0.71 1.521,-1.419 2.282,-2.129 -0.533,-0.877 -0.939,-1.869 -1.618,-2.614 -29.703,-32.593 -66.086,-51.972 -110.252,-56.692 -18.367,-1.962 -36.221,0.414 -54.353,2.569 -17.023,2.022 -32.537,7.491 -47.256,15.471 -31.89,17.29 -56.668,41.822 -73.945,73.931 -11.252,20.913 -17.955,43.117 -20.182,66.642 -1.015,10.712 -2.116,21.625 -1.189,32.275 2.368,27.199 9.458,53.251 24.014,76.648 5.045,8.108 11.695,15.231 17.75,22.692 3.422,4.215 6.829,8.521 10.794,12.19 3.212,2.973 7.383,4.88 10.894,7.565 15.065,11.52 30.353,22.631 48.152,29.734 C -20.809,0.8 -0.646,5.067 20.278,5.229 29.82,5.303 39.37,4.558 48.916,4.184 L 48.851,2.81 C 47.597,2.759 46.344,2.708 45.091,2.657 30.711,5.569 16.403,2.995 2.08,2.012 1.344,1.961 0.691,0.699 0,0" /></g><g
                 id="g112"
                 transform="translate(291.1323,451.8955)"><path
                   id="path110"
                   style="fill:#9bad8e;fill-opacity:1;fill-rule:nonzero;stroke:none"
                   d="M 0,0 C 0.691,0.699 1.344,1.961 2.08,2.012 16.403,2.995 30.711,5.569 45.091,2.657 45.83,2.173 46.507,1.444 47.315,1.246 51.77,0.154 56.257,-0.808 60.734,-1.814 58.205,-1.857 55.659,-2.106 53.148,-1.909 41.965,-1.027 30.793,-0.017 19.617,0.938 19.291,0.966 18.913,0.996 18.632,0.866 12.535,-1.947 6.307,-1.778 0,0" /></g><g
                 id="g116"
                 transform="translate(251.1235,437.9072)"><path
                   id="path114"
                   style="fill:#9bad8e;fill-opacity:1;fill-rule:nonzero;stroke:none"
                   d="m 0,0 c -0.714,0.374 -1.429,0.747 -2.144,1.12 l 0.056,-0.065 c 5.568,2.578 11.002,5.527 16.745,7.633 5.84,2.141 11.942,3.647 18.022,5.015 1.943,0.437 4.184,-0.457 6.288,-0.742 C 37.927,12.152 37.006,10.95 35.829,10.593 23.91,6.983 11.949,3.511 0,0" /></g><g
                 id="g120"
                 transform="translate(339.9834,454.7056)"><path
                   id="path118"
                   style="fill:#658c4c;fill-opacity:1;fill-rule:nonzero;stroke:none"
                   d="m 0,0 0.064,1.374 c 17.804,-0.938 33.997,-7.305 50.041,-14.163 -0.129,-0.618 -0.259,-1.235 -0.388,-1.854 -1.245,0.344 -2.551,0.551 -3.721,1.066 -1.428,0.63 -2.741,1.518 -4.103,2.294 -1.749,0.704 -3.449,1.604 -5.259,2.072 -3.557,0.918 -7.175,1.596 -10.768,2.373 -2.298,0.342 -4.595,0.685 -6.892,1.027 -1.992,1.024 -3.882,2.415 -5.995,2.996 C 8.716,-1.644 4.333,-0.913 0,0" /></g><g
                 id="g124"
                 transform="translate(391.6152,130.5459)"><path
                   id="path122"
                   style="fill:#9bad8e;fill-opacity:1;fill-rule:nonzero;stroke:none"
                   d="m 0,0 c -7.947,-3.044 -15.894,-6.087 -23.841,-9.131 l -0.571,1.444 c 7.928,3.026 15.855,6.052 23.782,9.079 z" /></g><g
                 id="g128"
                 transform="translate(339.9834,454.7056)"><path
                   id="path126"
                   style="fill:#e9efe5;fill-opacity:1;fill-rule:nonzero;stroke:none"
                   d="m 0,0 c 4.333,-0.913 8.716,-1.644 12.979,-2.815 2.113,-0.581 4.003,-1.972 5.995,-2.996 -2.364,0.395 -4.727,0.791 -7.091,1.186 -4.477,1.007 -8.964,1.969 -13.419,3.061 -0.808,0.198 -1.485,0.927 -2.224,1.411 C -2.507,-0.102 -1.254,-0.051 0,0" /></g><g
                 id="g132"
                 transform="translate(365.8496,447.8677)"><path
                   id="path130"
                   style="fill:#9bad8e;fill-opacity:1;fill-rule:nonzero;stroke:none"
                   d="m 0,0 c 3.593,-0.777 7.211,-1.455 10.768,-2.373 1.81,-0.468 3.509,-1.368 5.258,-2.072 C 15.669,-5.121 15.059,-6.413 14.99,-6.384 9.966,-4.323 4.984,-2.157 0,0" /></g><g
                 id="g136"
                 transform="translate(198.5605,399.8872)"><path
                   id="path134"
                   style="fill:#658c4c;fill-opacity:1;fill-rule:nonzero;stroke:none"
                   d="M 0,0 C -0.43,0.738 -1.336,2.036 -1.222,2.132 1.971,4.846 5.267,7.437 8.546,10.049 7.466,8.323 6.574,6.435 5.257,4.915 3.695,3.111 1.769,1.624 0,0" /></g><g
                 id="g140"
                 transform="translate(334.9541,115.1191)"><path
                   id="path138"
                   style="fill:#658c4c;fill-opacity:1;fill-rule:nonzero;stroke:none"
                   d="M 0,0 C -0.038,0.3 -0.023,0.598 0.045,0.893 5.396,2.018 10.748,3.144 16.1,4.27 L 16.445,2.365 C 10.964,1.577 5.481,0.788 0,0" /></g><g
                 id="g144"
                 transform="translate(295.7803,270.1084)"><path
                   id="path142"
                   style="fill:#fdfdfc;fill-opacity:1;fill-rule:nonzero;stroke:none"
                   d="M 0,0 C 5.522,-2.336 10.526,-2.539 15.555,0.2 11.768,6.832 5.557,6.778 0,0 m -7.333,3.246 c 2.192,0.183 3.991,0.236 5.753,0.517 0.939,0.149 1.815,0.692 2.719,1.057 -0.582,0.656 -1.04,1.559 -1.768,1.923 -3.816,1.91 -7.646,3.812 -11.573,5.475 -6.197,2.625 -8.728,2.077 -12.224,-2.259 7.368,1.106 14.43,-1.644 17.093,-6.713 m 47.57,141.564 c -1.856,-2.253 -0.07,-4.84 2.743,-7.571 3.164,-3.072 5.717,-6.784 8.958,-9.758 1.573,-1.444 4.039,-2.276 6.22,-2.618 4.199,-0.659 8.916,0.989 12.291,-3.261 0.168,-0.211 3.295,1.539 4.621,2.815 0.592,0.569 -0.011,2.255 0.177,3.393 0.743,4.483 -1.242,10.39 6.88,10.705 2.587,0.1 4.934,3.487 7.632,4.914 1.253,0.662 3.411,0.841 4.602,0.202 15.288,-8.191 28.883,-18.651 40.6,-31.442 4.113,-4.49 7.741,-9.425 11.63,-14.206 -4.545,-2.846 -6.336,-9.389 -13.692,-8.131 2.624,-3.328 5.249,-6.656 7.874,-9.983 -0.251,-0.388 -0.501,-0.775 -0.752,-1.163 -3.888,0.603 -7.776,1.204 -12.222,1.894 0.529,-6.496 0.987,-12.102 1.431,-17.556 7.568,-2.464 7.642,-2.743 2.843,-8.61 -0.518,-0.635 -1.111,-1.346 -1.28,-2.108 -1.801,-8.114 -7.404,-13.924 -12.088,-20.318 -2.896,-3.952 -3.039,-8.216 -0.734,-12.635 0.719,-1.381 1.657,-3.513 1.1,-4.559 -4.762,-8.949 1.202,-14.654 5.64,-21.148 6.734,-9.856 15.737,-9.982 25.801,-7.106 7.2,2.056 8.625,0.367 8.102,-6.881 -0.308,-4.284 1.821,-8.697 1.923,-13.074 0.091,-3.903 -0.853,-7.894 -1.78,-11.742 -1.268,-5.261 -2.878,-10.446 -4.48,-15.621 -1.289,-4.163 -1.986,-8.791 -4.316,-12.304 -14.531,-21.902 -33.256,-39.374 -56.751,-51.412 -16.943,-8.68 -34.792,-14.533 -53.929,-15.759 -7.275,-0.466 -14.571,-0.66 -21.861,-0.826 -1.687,-0.038 -3.388,0.548 -5.294,1.643 5.063,2.391 7.708,8.777 14.565,7.642 0.714,-0.119 1.686,0.312 2.305,0.79 5.561,4.296 11.053,8.681 16.6,12.996 2.901,2.258 5.299,4.419 6.616,8.397 0.678,2.049 5.886,3.202 9.191,3.619 3.826,0.483 5.44,2.413 7.44,5.424 3.717,5.595 6.461,11.312 7.569,17.974 0.266,1.601 2.845,2.688 3.84,4.327 1.556,2.563 3.059,5.297 3.781,8.161 0.297,1.178 -1.159,3.736 -2.384,4.212 -10.521,4.081 -21.171,7.83 -32.253,11.848 -2.211,8.546 -5.495,11.176 -15.219,11.821 -1.235,0.082 -2.568,0.785 -3.591,1.553 -3.264,2.45 -6.242,5.311 -9.651,7.518 -1.846,1.196 -4.321,1.473 -6.549,2.007 -4.057,0.975 -8.109,2.041 -12.225,2.651 -2.116,0.315 -4.366,-0.27 -6.707,-0.461 -1.28,6.149 -3.475,7.615 -10.768,6.188 -3.553,-0.695 -6.647,2.781 -6.453,7.249 0.41,9.442 0.121,9.754 -9.279,10.074 -0.329,0.011 -0.654,0.11 -1.654,0.285 0,2.217 -0.414,4.655 0.115,6.867 0.547,2.294 2.007,4.369 3.253,6.918 -5.363,0.289 -10.214,1.712 -11.661,-5.449 -0.581,-2.88 -6.78,-2.691 -10,-0.029 -4.395,3.633 -4.854,9.765 -3.129,15.083 2.602,8.021 7.578,11.048 15.57,10.399 1.075,-0.087 2.32,0.443 3.306,1.004 3.331,1.896 5.082,1.94 8.508,-1.456 3.211,-3.183 6.92,-6.028 9.834,-9.718 0.541,-0.686 2.341,-0.378 4.645,-0.665 -0.688,4.274 -1.019,7.814 -1.869,11.225 -1.044,4.189 -1.818,7.455 3.124,10.402 3.412,2.037 6.725,6.083 7.752,9.864 1.8,6.628 6.067,10.927 10.514,15.405 0.938,0.945 2.127,1.787 2.696,2.929 2.024,4.059 5.211,5.89 10.165,5.321 1.176,-3.671 3.164,-4.23 6.371,-0.852 1.207,1.271 3.657,1.284 5.406,2.145 1.028,0.506 1.79,1.551 3.371,2.99 -9.007,1.123 -10.201,2.722 -8.001,9.446 -1.696,0.42 -3.363,0.834 -6.374,1.581 2.805,0.775 4.402,1.402 6.055,1.639 5.605,0.803 11.265,1.268 16.837,2.244 5.323,0.934 4.532,5.334 4.399,9.074 -0.143,3.979 -4.314,8.693 -7.629,7.405 -7.362,-2.859 -8.768,2.718 -11.305,6.726 -1.867,2.952 -3.646,3.22 -6.253,1.103 -4.363,-3.541 -4.03,-3.218 -7.446,1.368 -4.205,5.644 -10.549,6.835 -17.255,6.398 -1.116,-0.073 -2.224,-0.28 -2.717,-0.344 -0.681,-3.587 -1.431,-6.678 -1.775,-9.814 -0.118,-1.081 0.443,-2.823 1.265,-3.32 3.497,-2.114 2.162,-4.307 -0.07,-5.764 -3.417,-2.229 -5.662,-4.411 -3.878,-8.893 0.38,-0.956 -0.83,-2.546 -2.538,-3.92 -0.518,1.214 -1.348,2.39 -1.504,3.647 -0.877,7.092 -2.994,8.965 -10.046,9.127 -2.951,0.068 -5.961,0.404 -8.814,1.129 -3.609,0.918 -6.536,2.911 -5.967,7.309 0.551,4.254 2.245,7.882 6.589,9.588 2.305,0.905 4.642,1.73 6.951,2.628 0.614,0.239 1.686,0.616 1.684,0.924 -0.041,5.621 4.758,4.245 7.745,5.582 1.801,0.806 3.327,2.227 4.977,3.372 -0.947,1.261 -1.828,3.512 -2.854,3.581 -2.262,0.151 -4.625,-0.705 -6.878,-1.38 -0.442,-0.133 -0.574,-1.299 -0.919,-2.163 -3.429,3.938 -10.482,3.67 -13.764,0 -2.229,-2.493 -4.514,-3.967 -8.574,-3.983 -5.722,-0.023 -11.458,-2.149 -17.144,-3.551 -2.921,-0.719 -5.748,-1.816 -8.865,-2.137 9.132,8.442 19.305,15.072 30.331,20.442 17.047,8.304 35.151,12.896 53.932,14.429 7.639,0.624 15.719,0.518 21.822,-5.765 1.368,-1.408 3.239,-2.671 0.687,-4.863 -0.33,-0.283 1.079,-2.592 2.262,-5.277" /></g><g
                 id="g148"
                 transform="translate(216.6509,288.0088)"><path
                   id="path146"
                   style="fill:#fdfdfc;fill-opacity:1;fill-rule:nonzero;stroke:none"
                   d="m 0,0 c 2.249,-3.545 4.379,-7.172 6.783,-10.607 1.891,-2.704 3.748,-5.651 6.293,-7.62 3.076,-2.377 6.94,-5.498 10.324,-5.338 6.377,0.298 9.968,-4.336 14.997,-5.937 5.1,-1.623 9.844,-2.61 11.064,-8.786 0.157,-0.795 1.079,-1.66 1.867,-2.071 4.333,-2.265 8.734,-4.399 11.943,-5.996 -1.404,-6.166 -2.381,-11.806 -4.06,-17.229 -0.785,-2.536 -3.272,-4.501 -4.364,-6.998 -1.369,-3.13 -5.716,-6.173 -1.113,-10.033 -3.465,-3.007 -3.288,-5.148 -0.003,-8.208 2.107,-1.963 4.149,-4.3 5.351,-6.874 3.437,-7.365 8.798,-12.469 15.971,-16.166 1.931,-0.996 4.207,-3.96 4.075,-5.865 -0.578,-8.324 -2.05,-16.582 -3.05,-24.881 -0.31,-2.579 -0.25,-5.217 -0.182,-7.824 0.049,-1.848 0.398,-3.688 0.69,-6.203 -49.385,11.667 -85.593,39.001 -106.669,84.3 -21.77,46.79 -18.925,93.314 5.109,139.503 4.703,-8.012 6.874,-15.069 3.676,-23.623 -1.465,-3.919 -0.296,-9.112 0.6,-13.541 0.841,-4.152 0.051,-9.64 6.127,-11.164 0.524,-0.132 0.817,-1.322 1.149,-2.051 2.287,-5.025 4.567,-10.054 6.827,-15.091 0.878,-1.957 1.372,-4.191 2.645,-5.831 1.033,-1.331 2.969,-1.962 4.504,-2.903 0.214,0.38 0.428,0.76 0.643,1.14 -0.673,1.576 -1.345,3.151 -2.018,4.727 C -0.547,-0.78 -0.273,-0.391 0,0" /></g><g
                 id="g152"
                 transform="translate(433.2715,330.585)"><path
                   id="path150"
                   style="fill:#f6f8f4;fill-opacity:1;fill-rule:nonzero;stroke:none"
                   d="m 0,0 c 1.219,0.216 2.625,0.121 3.612,0.72 1.527,0.925 3.587,2.102 3.978,3.56 1.305,4.863 3.845,7.848 8.901,8.111 3.003,-4.542 5.062,-10.623 9.22,-12.947 2.975,-1.663 4.077,-3.046 4.775,-5.658 0.736,-2.751 1.254,-5.558 1.868,-8.342 -0.568,-0.366 -1.136,-0.731 -1.705,-1.097 -2.69,2.968 -6.014,5.582 -7.925,8.988 C 19.721,-1.313 14.641,1.141 8.758,-0.606 6.058,-1.409 3.066,-1.235 0.207,-1.505 0.138,-1.003 0.069,-0.502 0,0" /></g><g
                 id="g156"
                 transform="translate(215.8301,286.8389)"><path
                   id="path154"
                   style="fill:#fdfdfc;fill-opacity:1;fill-rule:nonzero;stroke:none"
                   d="M 0,0 C -0.199,0.672 -0.398,1.344 -0.598,2.015 -0.125,1.733 0.348,1.451 0.821,1.169 0.547,0.779 0.273,0.39 0,0" /></g><g
                 id="g160"
                 transform="translate(316.5166,357.6299)"><path
                   id="path158"
                   style="fill:#fdfdfc;fill-opacity:1;fill-rule:nonzero;stroke:none"
                   d="M 0,0 C -0.023,-0.085 -0.03,-0.203 -0.064,-0.212 -0.194,-0.243 -0.344,-0.274 -0.466,-0.237 -0.583,-0.202 -0.675,-0.083 -0.777,0 Z" /></g><g
                 id="g164"
                 transform="translate(248.98,439.0273)"><path
                   id="path162"
                   style="fill:#9bad8e;fill-opacity:1;fill-rule:nonzero;stroke:none"
                   d="m 0,0 c -0.673,-0.33 -1.346,-0.659 -2.02,-0.989 l 0.065,-0.058 c 0.67,0.327 1.34,0.654 2.01,0.982 C 0.055,-0.065 0,0 0,0" /></g><g
                 id="g168"
                 transform="translate(246.9604,438.0381)"><path
                   id="path166"
                   style="fill:#9bad8e;fill-opacity:1;fill-rule:nonzero;stroke:none"
                   d="m 0,0 c -0.072,-0.23 -0.145,-0.46 -0.217,-0.69 0.094,0.211 0.188,0.421 0.281,0.632 C 0.065,-0.058 0,0 0,0" /></g><g
                 id="g172"
                 transform="translate(288.4478,273.3545)"><path
                   id="path170"
                   style="fill:#3b6c13;fill-opacity:1;fill-rule:nonzero;stroke:none"
                   d="m 0,0 c -2.663,5.069 -9.726,7.819 -17.093,6.713 3.495,4.336 6.026,4.884 12.224,2.259 C -0.942,7.309 2.888,5.407 6.703,3.497 7.431,3.133 7.889,2.229 8.472,1.574 7.567,1.209 6.691,0.666 5.752,0.517 3.99,0.236 2.191,0.183 0,0" /></g><g
                 id="g176"
                 transform="translate(295.7803,270.1084)"><path
                   id="path174"
                   style="fill:#3b6c13;fill-opacity:1;fill-rule:nonzero;stroke:none"
                   d="M 0,0 C 5.557,6.778 11.768,6.832 15.555,0.2 10.526,-2.539 5.522,-2.336 0,0" /></g></g></g></g></g></g></g></svg>