<svg xmlns="http://www.w3.org/2000/svg" xmlns:xlink="http://www.w3.org/1999/xlink" xmlns:lucid="lucid" width="1896" height="1489"><g transform="translate(0 -168)" lucid:page-tab-id="PaLdq~84CkD7"><path d="M180.48 310.3v10m0 10v19.98m0 10v20m0 10v19.98m0 10v20m0 10v19.98m0 10v20m0 10v19.98m0 10v20m0 10v19.98m0 10v20m0 10v19.98m0 10v20m0 10v19.98m0 10v20m0 10v19.98m0 10v20m0 10v19.98m0 10v20m0 10v19.98m0 10v20m0 10v19.98m0 10v10.09l-.03.05-.03.04-.03.04-.04.03-.05.02-.03.02h-.05l-.05.02h-.09l-.05.02-.04.03-.05.03-.03.03-.02.06-.02.04v10.05m0 10v20m0 9.98v20m0 10v20m0 10v19.98m0 10v20m0 10v20m0 10v20m0 10v19.98m0 10v20m0 10v20m0 9.98v20m0 10v20m0 10v19.98m0 10v20m0 10v20m0 10l-.02 19.98m0 10v20m0 10v19.98m0 10v20m0 10v20m0 10v19.98m0 10v10" stroke="#999" stroke-width="2" fill="none"/><path d="M180.47 309.3h1v1.02h-2v-1.02z" stroke="#999" stroke-width=".05" fill="#999"/><path d="M179.86 1630.45v1.03M1447.6 310.3v9.8m0 9.83v19.63m0 9.82V379m0 9.83v19.63m0 9.82v19.63m0 9.83v19.64m0 9.8v19.65m0 9.8v19.65m0 9.8v19.65m0 9.8v19.65m0 9.8v19.65m0 9.8v19.65m0 9.8v19.65m0 9.82v19.63m0 9.82v19.62m0 9.82v19.63m0 9.82v19.62m0 9.82v19.63m0 9.82v19.62m0 9.82v19.63m0 9.82v19.62m0 9.82v19.63m0 9.82v9.92l-.04.1-.04.1-.06.1-.07.1-.1.06-.1.06-.1.04-.1.03-.1.02h-.13l-.1.03-.1.04-.1.05-.1.07-.06.1-.05.08-.04.1-.02.12v9.98m0 10v19.96m0 9.98v19.97m0 10v19.97m0 9.98v19.97m0 10v19.96m0 9.98v19.97m0 10v19.96m0 9.97v19.97m0 10v19.96m0 9.98v19.97m0 10V1299m0 10v19.96m0 10v19.96m0 9.98v19.97m0 10v19.96m0 9.98v19.98m0 10v19.96m0 9.98v19.97m0 9.98v19.97m0 9.98v19.97m0 10v19.96m0 9.98v19.97m0 10v9.98" stroke="#999" stroke-width="2" fill="none"/><path d="M1447.6 309.3l1-.04v1.06h-2v-1.07z" stroke="#999" stroke-width=".05" fill="#999"/><path d="M1446.18 1648.46v1.02" stroke="#999" stroke-width="2" fill="none"/><path d="M1426.18 440.6a5 5 0 0 1 5-5h30a5 5 0 0 1 5 5v1162.65a5 5 0 0 1-5 5h-30a5 5 0 0 1-5-5z" stroke="#666" stroke-width="2" fill="#f2f2f2"/><path d="M180.48 308.8c-27.6 0-50-22.4-50-50 0-27.62 22.4-50 50-50 27.62 0 50 22.38 50 50 0 27.6-22.38 50-50 50z" stroke="#333" fill="#fff"/><path d="M130.48 308.8h100" stroke="#333" fill="none"/><use xlink:href="#a" transform="matrix(1,0,0,1,90.48252102343042,308.7957912945176) translate(44.898924525900455 18.06552119129439)"/><use xlink:href="#b" transform="matrix(1,0,0,1,90.48252102343042,308.7957912945176) translate(48.066663484790624 45.16380297823598)"/><path d="M160.48 434.13a5 5 0 0 1 5-5h30a5 5 0 0 1 5 5v1169.12a5 5 0 0 1-5 5h-30a5 5 0 0 1-5-5z" stroke="#666" stroke-width="2" fill="#f2f2f2"/><path d="M1497.6 258.8c0 27.6-22.4 50-50 50-27.62 0-50-22.4-50-50 0-27.62 22.38-50 50-50 27.6 0 50 22.38 50 50z" stroke="#333" fill="#fff"/><path d="M1457.6 202.8l-10 6 10 7.2" stroke="#333" fill="none"/><use xlink:href="#c" transform="matrix(1,0,0,1,1357.5959230852861,308.7957912945176) translate(20.529289168893968 18.06552119129439)"/><path d="M1044.82 308.8c-27.6 0-50-22.4-50-50 0-27.62 22.4-50 50-50 27.62 0 50 22.38 50 50 0 27.6-22.38 50-50 50z" stroke="#333" fill="#fff"/><path d="M994.82 308.8h100" stroke="#333" fill="none"/><use xlink:href="#d" transform="matrix(1,0,0,1,954.8240403186464,308.7957912945176) translate(41.13527427771413 18.06552119129439)"/><path d="M1044.82 310.3v9.84m0 9.84v19.68m0 9.84v19.7m0 9.83v19.68m0 9.85v19.7m0 9.83v19.68m0 9.84v19.7m0 9.83v19.68m0 9.85v19.68m0 9.85v19.68m0 9.84v19.68m0 9.85v19.68m0 9.85v19.68m0 9.84v19.7m0 9.83v19.68m0 9.84v19.7m0 9.83v19.68m0 9.84v19.7m0 9.83v19.68m0 9.84v19.7m0 9.83v19.68m0 9.84v19.68m0 9.85v9.87l.02.04v.05l.03.03.02.03.02.03.03.02.04.02h.1l.04.02h.03l.03.02.03.03.03.03.02.03v.04l.02.04v9.97m0 9.98v19.94m0 9.98v19.95m0 9.97v19.95m0 9.97v19.94m0 9.97v19.96m0 9.98v19.94m0 9.98v19.95m0 9.98v19.95m0 9.97v19.95m0 9.97v19.95m0 9.98v19.94m0 9.97v19.95m0 9.97v19.94m0 9.97v19.96m0 9.97v19.95m0 9.98V1449m0 9.98v19.95m0 9.97v19.95m0 9.97v19.95m0 9.97v19.95m0 9.97v19.94m0 10v19.94m0 9.97v9.98" stroke="#999" stroke-width="2" fill="none"/><path d="M1044.8 309.3h1.02v1.02h-2v-1.02z" stroke="#999" stroke-width=".05" fill="#999"/><path d="M1045.3 1648.46v1.02" stroke="#999" stroke-width="2" fill="none"/><path d="M1025.3 440.6a5 5 0 0 1 5-5h30a5 5 0 0 1 5 5v1162.65a5 5 0 0 1-5 5h-30a5 5 0 0 1-5-5z" stroke="#666" stroke-width="2" fill="#f2f2f2"/><path d="M727 310.3v9.9m0 9.92v19.83m0 9.9v19.83m0 9.92v19.82m0 9.9v19.84m0 9.9v19.84m0 9.9v19.83m0 9.92v19.82m0 9.9v19.84m0 9.92v19.83m0 9.9v19.83m0 9.92v19.82m0 9.9v19.84m0 9.9v19.84m0 9.9v19.83m0 9.92v19.82m0 9.9v19.84m0 9.92v19.83m0 9.9v19.83m0 9.92v19.82m0 9.9v19.84m0 9.9v19.84m0 9.9v19.83m0 9.92v19.82m0 9.9v19.84m0 9.92v19.83m0 9.9v19.83m0 9.92v19.82m0 9.9v19.84m0 9.9v19.84m0 9.9v19.83m0 9.92v19.82m0 9.9v19.84m0 9.92v19.83m0 9.9v19.83m0 9.92v19.82m0 9.9v19.84m0 9.9v19.84m0 9.9v19.83m0 9.92v19.82m0 9.9v19.84m0 9.92v19.83m0 9.9v19.83m0 9.92v19.82m0 9.9v19.84m0 9.9v9.92" stroke="#999" stroke-width="2" fill="none"/><path d="M727 309.3h1.02v1.02h-2v-1.02z" stroke="#999" stroke-width=".05" fill="#999"/><path d="M727 1648.46v1.02" stroke="#999" stroke-width="2" fill="none"/><path d="M707 912.22a5 5 0 0 1 5-5h30a5 5 0 0 1 5 5v691.03a5 5 0 0 1-5 5h-30a5 5 0 0 1-5-5z" stroke="#666" stroke-width="2" fill="#f2f2f2"/><path d="M727 308.8c-27.6 0-50-22.4-50-50 0-27.62 22.4-50 50-50 27.63 0 50 22.38 50 50 0 27.6-22.37 50-50 50z" stroke="#333" fill="#fff"/><path d="M677 308.8h100" stroke="#333" fill="none"/><use xlink:href="#e" transform="matrix(1,0,0,1,637.0141373211817,308.7957912945176) translate(46.78074964999362 18.06552119129439)"/><path d="M1756.87 310.3v9.9m0 9.92v19.83m0 9.9v19.83m0 9.92v19.82m0 9.9v19.84m0 9.9v19.84m0 9.9v19.83m0 9.92v19.82m0 9.9v19.84m0 9.92v19.83m0 9.9v19.83m0 9.92v19.82m0 9.9v19.84m0 9.9v19.84m0 9.9v19.83m0 9.92v19.82m0 9.9v19.84m0 9.92v19.83m0 9.9v19.83m0 9.92v19.82m0 9.9v19.84m0 9.9v19.84m0 9.9v19.83m0 9.92v19.82m0 9.9v19.84m0 9.92v19.83m0 9.9v19.83m0 9.92v19.82m0 9.9v19.84m0 9.9v19.84m0 9.9v19.83m0 9.92v19.82m0 9.9v19.84m0 9.92v19.83m0 9.9v19.83m0 9.92v19.82m0 9.9v19.84m0 9.9v19.84m0 9.9v19.83m0 9.92v19.82m0 9.9v19.84m0 9.92v19.83m0 9.9v19.83m0 9.92v19.82m0 9.9v19.84m0 9.9v9.92" stroke="#999" stroke-width="2" fill="none"/><path d="M1756.87 309.3l1-.04v1.06h-2v-1.07z" stroke="#999" stroke-width=".05" fill="#999"/><path d="M1756.87 1648.46v1.02" stroke="#999" stroke-width="2" fill="none"/><path d="M1736.87 440.6a5 5 0 0 1 5-5h30a5 5 0 0 1 5 5v1162.65a5 5 0 0 1-5 5h-30a5 5 0 0 1-5-5z" stroke="#666" stroke-width="2" fill="#f2f2f2"/><path d="M1806.87 258.8c0 27.6-22.38 50-50 50-27.6 0-50-22.4-50-50 0-27.62 22.4-50 50-50 27.62 0 50 22.38 50 50z" stroke="#333" fill="#fff"/><path d="M1766.87 202.8l-10 6 10 7.2" stroke="#333" fill="none"/><use xlink:href="#f" transform="matrix(1,0,0,1,1666.87427360075,308.7957912945176) translate(8.454244622629474 18.06552119129439)"/><use xlink:href="#g" transform="matrix(1,0,0,1,1666.87427360075,308.7957912945176) translate(78.709049255441 18.06552119129439)"/><use xlink:href="#h" transform="matrix(1,0,0,1,1666.87427360075,308.7957912945176) translate(110.07280132366044 18.06552119129439)"/><path d="M458.23 1445.94H330.38a.03.03 0 0 1-.03-.03.03.03 0 0 0-.03-.02H219.98" stroke="#333" stroke-width="2" fill="none"/><path d="M459.23 1446.94h-1.03v-2h1.03z" stroke="#333" stroke-width=".05" fill="#333"/><path d="M204.7 1445.88l14.28-4.64v9.27z" stroke="#333" stroke-width="2" fill="#333"/><use xlink:href="#i" transform="matrix(1,0,0,1,248.9006904316752,1414.7771465166036) translate(0.0049999999999954525 18.06552119129439)"/><use xlink:href="#j" transform="matrix(1,0,0,1,248.9006904316752,1414.7771465166036) translate(95.16262377497776 18.06552119129439)"/><path d="M202.42 456.2h803.38" stroke="#333" stroke-width="2" fill="none"/><path d="M202.45 457.2h-1.03v-2h1.03z" stroke="#333" stroke-width=".05" fill="#333"/><path d="M1021.07 456.2l-14.27 4.65v-9.27z" stroke="#333" stroke-width="2" fill="#333"/><use xlink:href="#k" transform="matrix(1,0,0,1,252.28693486912502,425.1160057538706) translate(0.0049999999999954525 18.06552119129439)"/><use xlink:href="#l" transform="matrix(1,0,0,1,252.28693486912502,425.1160057538706) translate(97.73445144457176 18.06552119129439)"/><use xlink:href="#m" transform="matrix(1,0,0,1,252.28693486912502,425.1160057538706) translate(129.0982035127912 18.06552119129439)"/><path d="M1067.24 476.85h141.8l.02-.03h197.62" stroke="#333" stroke-width="2" fill="none"/><path d="M1067.27 477.85h-1.03v-2h1.03z" stroke="#333" stroke-width=".05" fill="#333"/><path d="M1421.94 476.82l-14.26 4.64v-9.27z" stroke="#333" stroke-width="2" fill="#333"/><use xlink:href="#n" transform="matrix(1,0,0,1,1091.830604556223,445.75251362079905) translate(0.0049999999999954525 18.06552119129439)"/><use xlink:href="#m" transform="matrix(1,0,0,1,1091.830604556223,445.75251362079905) translate(74.65072992236225 18.06552119129439)"/><path d="M1023.3 600.7h-3.94m-7.9 0h-7.88m-7.9 0h-7.9m-7.88 0H972m-7.9 0h-7.88m-7.9 0h-7.9m-7.88 0h-7.9m-7.88 0h-7.9m-7.9 0h-7.88m-7.9 0h-7.9m-7.88 0h-7.9m-7.9 0h-7.88m-7.9 0h-7.9m-7.88 0h-7.9m-7.9 0h-7.88m-7.9 0h-7.88m-7.9 0h-7.9m-7.88 0H751m-7.9 0h-7.88m-7.9 0h-7.9m-7.88 0h-7.9m-7.9 0h-7.88m-7.9 0h-7.9m-7.88 0h-7.9m-7.9 0h-7.88m-7.9 0h-7.88m-7.9 0h-3.94v.02h-3.94m-7.86 0h-7.86m-7.86 0h-7.86m-7.86 0h-7.86m-7.85 0h-7.86m-7.86 0h-7.85m-7.86 0h-7.87m-7.86 0h-7.86m-7.84 0h-7.86m-7.86 0h-7.86m-7.86 0h-7.86m-7.86 0h-7.85m-7.86 0h-7.87m-7.86 0h-7.86m-7.85 0h-7.86m-7.87 0h-7.85m-7.86 0h-7.86m-7.86 0h-7.86m-7.86 0h-7.86m-7.85 0h-7.86m-7.85 0h-7.86m-7.87 0h-7.86m-7.86 0h-7.85m-7.85 0h-7.86m-7.86 0h-7.86m-7.86 0h-3.93" stroke="#333" stroke-width="2" fill="none"/><path d="M1024.3 601.7h-1v-2h1z" stroke="#333" stroke-width=".05" fill="#333"/><path d="M204.67 600.72l14.26-4.64v9.27z" stroke="#333" stroke-width="2" fill="#333"/><use xlink:href="#o" transform="matrix(1,0,0,1,777.1195098167352,569.6061257394033) translate(0.0049999999999954525 18.06552119129439)"/><use xlink:href="#p" transform="matrix(1,0,0,1,777.1195098167352,569.6061257394033) translate(96.47990136184298 18.06552119129439)"/><path d="M748.98 1198.5h4.04m8.1 0h8.1m8.08 0h8.1m8.1 0h8.08m8.1 0h8.08m8.1 0h8.1m8.08 0h8.1m8.08 0h8.1m8.1 0h8.08m8.1 0h8.1m8.08 0h8.1m8.08 0h8.1m8.1 0h8.08m8.1 0h8.1m8.08 0h8.1m8.08 0h8.1m8.1 0h8.08m8.1 0h8.08m8.1 0h4.04l.97-2.95 2.45-1.8 1.58-.25 2.96.97 1.8 2.45.24 1.58h4.07m8.15 0h8.14m8.14 0h8.15m8.14 0h8.13m8.15 0h8.14m8.14 0h8.15m8.15 0h8.14m8.14 0h8.14m8.14 0h8.15m8.14 0h8.15m8.14 0h8.14m8.14 0h8.14m8.15 0h8.14m8.15 0h8.15m8.14 0h8.14m8.15 0h8.14m8.14 0h8.16m8.14 0h8.14m8.15 0h8.13m8.14 0h8.15m8.14 0h8.14m8.14 0h8.15m8.13 0h8.14m8.15 0h8.14m8.14 0h4.08l.96-2.95 2.46-1.8 1.58-.25 2.95.97 1.8 2.45.25 1.58h3.9m7.84 0h7.83m7.83 0h7.83m7.84 0h7.83m7.83 0h7.83m7.84 0h7.83m7.83 0h7.83m7.83 0h7.82m7.83 0h7.83m7.83 0h7.84m7.83 0h7.83m7.83 0h7.83m7.83 0h7.82m7.83 0h7.83m7.83 0h7.84m7.84 0h7.83m7.84 0h7.83m7.83 0h3.9" stroke="#333" stroke-width="2" fill="none"/><path d="M749 1199.5h-1.02v-2H749z" stroke="#333" stroke-width=".05" fill="#333"/><path d="M1732.68 1198.5l-14.27 4.64v-9.27z" stroke="#333" stroke-width="2" fill="#333"/><use xlink:href="#q" transform="matrix(1,0,0,1,796.066790759832,1164.656284964407) translate(0.0049999999999954525 19.898281786941588)"/><use xlink:href="#r" transform="matrix(1,0,0,1,796.066790759832,1164.656284964407) translate(104.88552691867127 19.898281786941588)"/><path d="M705.05 1281h-4.23m-8.45 0h-8.46m-8.44 0H667m-8.44 0h-8.46m-8.45 0h-8.45m-8.46 0h-8.45m-8.46 0h-4.23v.02h-4.2m-8.4 0h-8.4m-8.4 0h-8.38m-8.4 0h-8.4m-8.38 0h-8.4m-8.4 0h-4.2" stroke="#333" stroke-width="2" fill="none"/><path d="M706.05 1282h-1.03v-2h1.03z" stroke="#333" stroke-width=".05" fill="#333"/><path d="M504.4 1281.03l14.25-4.64v9.26z" stroke="#333" stroke-width="2" fill="#333"/><use xlink:href="#s" transform="matrix(1,0,0,1,528.4199330141898,1249.9057929626572) translate(0.0049999999999954525 18.06552119129439)"/><use xlink:href="#t" transform="matrix(1,0,0,1,528.4199330141898,1249.9057929626572) translate(62.66977663230242 18.06552119129439)"/><path d="M502.16 1322.28h185.39" stroke="#333" stroke-width="2" fill="none"/><path d="M502.18 1323.28h-1.02v-2h1.02z" stroke="#333" stroke-width=".05" fill="#333"/><path d="M702.8 1322.28l-14.25 4.64v-9.27z" stroke="#333" stroke-width="2" fill="#333"/><use xlink:href="#u" transform="matrix(1,0,0,1,510.23320818696516,1286.542849151928) translate(0.0049999999999954525 18.06552119129439)"/><use xlink:href="#t" transform="matrix(1,0,0,1,510.23320818696516,1286.542849151928) translate(99.05172903143696 18.06552119129439)"/><path d="M749 1342.7h137.08a.1.1 0 0 1 .1.1.1.1 0 0 0 .08.1h119.6" stroke="#333" stroke-width="2" fill="none"/><path d="M749.02 1343.7H748v-2H749z" stroke="#333" stroke-width=".05" fill="#333"/><path d="M1021.1 1342.9l-14.25 4.62v-9.27z" stroke="#333" stroke-width="2" fill="#333"/><use xlink:href="#v" transform="matrix(1,0,0,1,822.851814845919,1311.613801185052) translate(0.005000000000002558 18.06552119129439)"/><use xlink:href="#w" transform="matrix(1,0,0,1,822.851814845919,1311.613801185052) translate(56.397026218658546 18.06552119129439)"/><path d="M202.43 662.46h410.4a.05.05 0 0 0 .04-.06.05.05 0 0 1 .06-.05h392.88" stroke="#333" stroke-width="2" fill="none"/><path d="M202.46 663.46h-1.03v-2h1.03z" stroke="#333" stroke-width=".05" fill="#333"/><path d="M1021.08 662.35L1006.8 667v-9.28z" stroke="#333" stroke-width="2" fill="#333"/><use xlink:href="#x" transform="matrix(1,0,0,1,289.36505892965596,631.3591208352623) translate(0.0049999999999954525 18.06552119129439)"/><use xlink:href="#y" transform="matrix(1,0,0,1,289.36505892965596,631.3591208352623) translate(97.73445144457176 18.06552119129439)"/><use xlink:href="#g" transform="matrix(1,0,0,1,289.36505892965596,631.3591208352623) translate(150.30009991090753 18.06552119129439)"/><use xlink:href="#z" transform="matrix(1,0,0,1,289.36505892965596,631.3591208352623) translate(181.66385197912697 18.06552119129439)"/><path d="M1067.25 579.97h3.97m7.95 0h7.95m7.94 0h7.95m7.96 0h7.94m7.95 0h7.95m7.95 0h7.94m7.94 0h7.95m7.93 0h7.95m7.95 0h7.94m7.95 0h7.95m7.95 0h7.94m7.95 0h7.96m7.94 0h7.95m7.95 0h7.94m7.95 0h7.94m7.95 0h7.93m7.95 0h7.95m7.94 0h7.95m7.95 0h7.95m7.94 0h7.95m7.96 0h7.94m7.95 0h3.99l.02-.02v-.04h3.5m6.9 0h6.93m6.9 0h6.92m6.92 0h3.46l.96-2.96 2.46-1.8 1.58-.25 2.95.95 1.8 2.46.25 1.6h3.9m7.78 0h7.8m7.77 0h7.8m7.78 0h7.8m7.77 0h7.8m7.78 0h7.8m7.78 0h7.78m7.8 0h7.78m7.8 0h7.77m7.78 0h7.8m7.78 0h7.78m7.8 0h7.78m7.8 0h7.78m7.78 0h7.8m7.78 0h7.8m7.77 0h7.8m7.78 0h7.8m7.8 0h3.88" stroke="#333" stroke-width="2" fill="none"/><path d="M1067.27 580.97h-1.02v-2h1.02z" stroke="#333" stroke-width=".05" fill="#333"/><path d="M1732.65 579.9l-14.27 4.62v-9.27z" stroke="#333" stroke-width="2" fill="#333"/><use xlink:href="#A" transform="matrix(1,0,0,1,1071.2887416893734,548.8728437682475) translate(0.0049999999999954525 18.06552119129439)"/><use xlink:href="#B" transform="matrix(1,0,0,1,1071.2887416893734,548.8728437682475) translate(86.44350070001275 18.06552119129439)"/><path d="M202.44 827.4h410.4a.04.04 0 0 0 .04-.05.04.04 0 0 1 .05-.04h392.9" stroke="#333" stroke-width="2" fill="none"/><path d="M202.47 828.4h-1.03v-2h1.03z" stroke="#333" stroke-width=".05" fill="#333"/><path d="M1021.1 827.3l-14.28 4.65v-9.28z" stroke="#333" stroke-width="2" fill="#333"/><use xlink:href="#x" transform="matrix(1,0,0,1,243.3361599073898,796.298075246021) translate(0.0049999999999954525 18.06552119129439)"/><use xlink:href="#C" transform="matrix(1,0,0,1,243.3361599073898,796.298075246021) translate(97.73445144457176 18.06552119129439)"/><path d="M1067.26 889.24h3.98m7.95 0h7.93m7.95 0h7.95m7.95 0h7.94m7.95 0h7.95m7.94 0h7.95m7.96 0h7.95m7.95 0h7.95m7.95 0h7.95m7.94 0h7.95m7.94 0h7.95m7.93 0h7.95m7.95 0h7.94m7.95 0h7.95m7.95 0h7.94m7.95 0h7.96m7.95 0h7.95m7.95 0h7.95m7.94 0h7.94m7.95 0h7.94m7.94 0h7.95m7.95 0h3.99v-.04h.02v-.02h3.46m6.92 0h6.9m6.93 0h6.92m6.92 0h3.46l.96-2.95 2.46-1.8 1.58-.25 2.95.96 1.8 2.46.25 1.58h3.9m7.78 0h7.8m7.77 0h7.8m7.78 0h7.8m7.78 0h7.8m7.78 0h7.8m7.78 0h7.8m7.78 0h7.8m7.77 0h7.8m7.8 0h7.78m7.8 0h7.77m7.8 0h7.78m7.8 0h7.78m7.8 0h7.78m7.8 0h7.78m7.8 0h7.78m7.8 0h7.77m7.8 0h3.9" stroke="#333" stroke-width="2" fill="none"/><path d="M1067.3 890.24h-1.04v-2h1.03z" stroke="#333" stroke-width=".05" fill="#333"/><path d="M1732.66 889.18l-14.26 4.63v-9.26z" stroke="#333" stroke-width="2" fill="#333"/><use xlink:href="#A" transform="matrix(1,0,0,1,1088.9028547079615,858.138577056189) translate(0.0049999999999954525 18.06552119129439)"/><use xlink:href="#D" transform="matrix(1,0,0,1,1088.9028547079615,858.138577056189) translate(86.44350070001275 18.06552119129439)"/><path d="M1424.18 526.4h-4.06m-8.1 0h-8.12m-8.1 0h-8.12m-8.1 0h-8.12m-8.1 0h-8.12m-8.1 0H1339m-8.1 0h-8.13m-8.12 0h-8.1m-8.12 0h-8.1m-8.12 0h-8.1m-8.12 0h-8.1m-8.12 0H1245.72v.02l-.02.02h-4.04m-8.04 0h-8.05m-8.05 0h-8.04m-8.05 0h-8.05m-8.04 0h-8.05m-8.06 0h-8.05m-8.05 0h-8.05m-8.05 0H1129m-8.04 0h-8.05m-8.03 0h-8.05m-8.05 0h-4.02" stroke="#333" stroke-width="2" fill="none"/><path d="M1425.18 527.4h-1.03v-2h1.03z" stroke="#333" stroke-width=".05" fill="#333"/><path d="M1069.48 526.45l14.27-4.64v9.28z" stroke="#333" stroke-width="2" fill="#333"/><use xlink:href="#E" transform="matrix(1,0,0,1,1253.293794760056,495.29020374499953) translate(0.0049999999999954525 18.06552119129439)"/><use xlink:href="#m" transform="matrix(1,0,0,1,1253.293794760056,495.29020374499953) translate(77.72437762504775 18.06552119129439)"/><path d="M1023.33 1012.98h-4.04m-8.1 0h-8.1m-8.1 0h-8.08m-8.1 0h-8.1m-8.08 0h-8.1m-8.08 0h-8.1m-8.1 0h-8.08m-8.1 0H906m-8.1 0h-8.1m-8.08 0h-8.1m-8.08 0h-8.1m-8.1 0h-8.08m-8.1 0h-8.1m-8.08 0h-8.1m-8.08 0h-8.1m-8.1 0h-8.08m-8.1 0h-8.08m-8.1 0h-8.1m-8.08 0H732l-.95-2.96-2.46-1.8-1.6-.24-2.94.96-1.8 2.46-.25 1.58h-3.88m-7.78 0h-7.8m-7.77 0H687m-7.8 0h-7.78m-7.8 0h-7.77m-7.78 0h-7.8m-7.77 0h-7.8m-7.77 0h-7.78m-7.8 0h-7.77m-7.8 0h-7.77m-7.77 0h-7.8m-7.77 0h-7.8m-7.77 0h-7.8m-7.78 0h-3.9" stroke="#333" stroke-width="2" fill="none"/><path d="M1024.33 1013.98h-1.02v-2h1.03z" stroke="#333" stroke-width=".05" fill="#333"/><path d="M504.36 1012.98l14.27-4.64v9.27z" stroke="#333" stroke-width="2" fill="#333"/><use xlink:href="#F" transform="matrix(1,0,0,1,827.9270663165316,981.8772395273268) translate(0.0049999999999954525 18.06552119129439)"/><use xlink:href="#G" transform="matrix(1,0,0,1,827.9270663165316,981.8772395273268) translate(67.18615693012602 18.06552119129439)"/><path d="M502.14 1095.45H722c0-2.76 2.25-5 5-5 2.78 0 5 2.24 5 5h273.84" stroke="#333" stroke-width="2" fill="none"/><path d="M502.16 1096.45h-1.02v-2h1.02z" stroke="#333" stroke-width=".05" fill="#333"/><path d="M1021.1 1095.45l-14.27 4.64v-9.28z" stroke="#333" stroke-width="2" fill="#333"/><use xlink:href="#H" transform="matrix(1,0,0,1,500.60905604784307,1064.3528167518673) translate(0.0049999999999954525 18.06552119129439)"/><use xlink:href="#I" transform="matrix(1,0,0,1,500.60905604784307,1064.3528167518673) translate(53.88792605320098 18.06552119129439)"/><use xlink:href="#J" transform="matrix(1,0,0,1,500.60905604784307,1064.3528167518673) translate(150.4255549191804 18.06552119129439)"/><path d="M502.12 971.74h219.9c0-2.76 2.23-5 5-5 2.76 0 5 2.24 5 5h273.8" stroke="#333" stroke-width="2" fill="none"/><path d="M502.15 972.74h-1.03v-2h1.03z" stroke="#333" stroke-width=".05" fill="#333"/><path d="M1021.1 971.74l-14.27 4.63v-9.27z" stroke="#333" stroke-width="2" fill="#333"/><use xlink:href="#k" transform="matrix(1,0,0,1,500.32695722094724,940.6381605421825) translate(0.0049999999999954525 18.06552119129439)"/><use xlink:href="#g" transform="matrix(1,0,0,1,500.32695722094724,940.6381605421825) translate(97.73445144457176 18.06552119129439)"/><use xlink:href="#K" transform="matrix(1,0,0,1,500.32695722094724,940.6381605421825) translate(129.0982035127912 18.06552119129439)"/><path d="M502.13 1054.2H722c0-2.75 2.25-5 5-5 2.78 0 5 2.25 5 5h273.83" stroke="#333" stroke-width="2" fill="none"/><path d="M502.16 1055.2h-1.03v-2h1.03z" stroke="#333" stroke-width=".05" fill="#333"/><path d="M1021.1 1054.2l-14.27 4.65v-9.27z" stroke="#333" stroke-width="2" fill="#333"/><use xlink:href="#L" transform="matrix(1,0,0,1,510.30274666856076,1023.1154582549157) translate(0.0049999999999954525 18.06552119129439)"/><use xlink:href="#M" transform="matrix(1,0,0,1,510.30274666856076,1023.1154582549157) translate(61.41522654957364 18.06552119129439)"/><path d="M1023.34 1126.38h-4.05m-8.1 0h-8.1m-8.08 0h-8.1m-8.1 0h-8.08m-8.1 0h-8.1m-8.08 0h-8.1m-8.08 0h-8.1m-8.1 0H906m-8.1 0h-8.08m-8.1 0h-8.1m-8.08 0h-8.1m-8.1 0h-8.08m-8.1 0h-8.08m-8.1 0h-8.1m-8.08 0h-8.1m-8.1 0h-8.08m-8.1 0h-8.08m-8.1 0h-8.1m-8.08 0H732l-.95-2.95-2.46-1.8-1.6-.25-2.94.96-1.8 2.46-.25 1.58h-3.88m-7.78 0h-7.78m-7.8 0H687m-7.8 0h-7.78m-7.78 0h-7.8m-7.77 0h-7.78m-7.8 0h-7.78m-7.78 0h-7.8m-7.77 0h-7.8m-7.77 0h-7.78m-7.8 0h-7.77m-7.78 0h-7.8m-7.77 0h-7.78m-7.8 0h-3.88" stroke="#333" stroke-width="2" fill="none"/><path d="M1024.34 1127.38h-1.03v-2h1.04z" stroke="#333" stroke-width=".05" fill="#333"/><path d="M504.37 1126.38l14.27-4.64v9.27z" stroke="#333" stroke-width="2" fill="#333"/><use xlink:href="#s" transform="matrix(1,0,0,1,812.8655270768942,1095.2797334840895) translate(0.0049999999999954525 18.06552119129439)"/><use xlink:href="#D" transform="matrix(1,0,0,1,812.8655270768942,1095.2797334840895) translate(62.66977663230242 18.06552119129439)"/><path d="M1067.3 1367.67h3.96m7.95 0h7.95m7.95 0h7.94m7.95 0h7.93m7.95 0h7.94m7.95 0h7.94m7.96 0h7.94m7.95 0h7.94m7.94 0h7.94m7.95 0h7.94m7.95 0h7.94m7.94 0h7.95m7.94 0h7.94m7.94 0h7.95m7.94 0h7.95m7.94 0h7.95m7.95 0h7.95m7.94 0h7.95m7.93 0h7.95m7.94 0h7.95m7.94 0h7.96m7.94 0h4.02l.03.03h.02v.02l.02.02v.1l.02.02v.02l.03.02.03.02h5.04m9.98 0h10m9.98 0h5l.96-2.94 2.46-1.8 1.58-.25 2.95.97 1.8 2.45.25 1.58h3.9m7.84 0h7.83m7.83 0h7.83m7.84 0h7.84m7.83 0h7.84m7.83 0h7.83m7.83 0h7.83m7.83 0h7.82m7.83 0h7.83m7.83 0h7.84m7.84 0h7.83m7.84 0h7.83m7.83 0h7.83m7.83 0h7.83m7.82 0h7.83m7.83 0h7.83m7.84 0h7.84m7.83 0h3.92" stroke="#333" stroke-width="2" fill="none"/><path d="M1067.32 1368.67h-1.03v-2h1.02z" stroke="#333" stroke-width=".05" fill="#333"/><path d="M1732.7 1367.93l-14.28 4.64v-9.27z" stroke="#333" stroke-width="2" fill="#333"/><use xlink:href="#A" transform="matrix(1,0,0,1,1092.2863395271236,1336.5720657357376) translate(0.0049999999999954525 18.06552119129439)"/><use xlink:href="#j" transform="matrix(1,0,0,1,1092.2863395271236,1336.5720657357376) translate(86.44350070001275 18.06552119129439)"/><path d="M202.48 1493.04h4m7.98 0h8m7.98 0h8m7.98 0h8m7.98 0h8m7.98 0h8m7.98 0h8m7.98 0h8m7.98 0h4.02v.04h.02v.02h.02v.02h3.95m7.88 0h7.9m7.87 0h7.88m7.9 0h7.87m7.88 0h7.88m7.88 0h7.88m7.9 0h7.87m7.9 0h3.93" stroke="#333" stroke-width="2" fill="none"/><path d="M202.5 1494.04h-1.02v-2h1.02z" stroke="#333" stroke-width=".05" fill="#333"/><path d="M456 1493.12l-14.27 4.63v-9.27z" stroke="#333" stroke-width="2" fill="#333"/><use xlink:href="#N" transform="matrix(1,0,0,1,235.7313743717562,1461.9431135541322) translate(0.0049999999999954525 18.06552119129439)"/><use xlink:href="#O" transform="matrix(1,0,0,1,235.7313743717562,1461.9431135541322) translate(86.44350070001275 18.06552119129439)"/><path d="M480.18 310.3v10m0 9.98v20m0 9.98v20m0 9.98v20m0 9.98v20m0 9.98v19.98m0 10v19.98m0 10v19.98m0 10v19.98m0 10v19.98m0 10v19.98m0 10v19.98m0 10v19.98m0 10V710m0 10V740m0 10v19.98m0 10v19.98m0 10v19.97m0 10v19.98m0 10v20m0 10v19.97m0 10v19.98m0 10v10.07l.03.1.04.07.05.06.04.07.07.05.08.05.08.03.08.02h.17l.1.03.08.05.07.04.07.05.05.06.05.1.03.07.02.08v10m0 10v19.98m0 10v19.98m0 10v20m0 10v19.98m0 10v19.98m0 10v19.98m0 10v19.98m0 10v20m0 9.98v20m0 10v19.97m0 10v20m0 9.98v20m0 9.98v20m0 10v19.98m0 10v20m0 9.98v20m0 10v19.98m0 10v19.98m0 10v19.98m0 10v19.98m0 10v20m0 9.98v10" stroke="#999" stroke-width="2" fill="none"/><path d="M480.17 309.3h1v1.02h-2v-1.02z" stroke="#999" stroke-width=".05" fill="#999"/><path d="M481.28 1630.45v1.03" stroke="#999" stroke-width="2" fill="none"/><path d="M460.18 914.88a5 5 0 0 1 5-5h30a5 5 0 0 1 5 5v688.37a5 5 0 0 1-5 5h-30a5 5 0 0 1-5-5z" stroke="#666" stroke-width="2" fill="#f2f2f2"/><path d="M502.14 1177.9h101.42a.03.03 0 0 0 .03-.03.03.03 0 0 1 .02-.03h83.92" stroke="#333" stroke-width="2" fill="none"/><path d="M502.17 1178.9h-1.03v-2h1.03z" stroke="#333" stroke-width=".05" fill="#333"/><path d="M702.8 1177.84l-14.26 4.63v-9.27z" stroke="#333" stroke-width="2" fill="#333"/><use xlink:href="#P" transform="matrix(1,0,0,1,537.7560378110632,1146.7413742401934) translate(0.0049999999999954525 18.06552119129439)"/><use xlink:href="#Q" transform="matrix(1,0,0,1,537.7560378110632,1146.7413742401934) translate(55.205203640066195 18.06552119129439)"/><path d="M202.48 1528.83h273.8c0-2.76 2.24-5 5-5s5 2.24 5 5h126.6a.05.05 0 0 1 .04.05.05.05 0 0 0 .05.04H722c0-2.76 2.25-5 5-5 2.78 0 5 2.24 5 5h273.86" stroke="#333" stroke-width="2" fill="none"/><path d="M202.5 1529.83h-1.02v-2h1.02z" stroke="#333" stroke-width=".05" fill="#333"/><path d="M1021.12 1528.92l-14.26 4.64v-9.27z" stroke="#333" stroke-width="2" fill="#333"/><use xlink:href="#R" transform="matrix(1,0,0,1,266.9877134897488,1500.4778641797795) translate(0.0049999999999954525 16.2327605956472)"/><use xlink:href="#S" transform="matrix(1,0,0,1,266.9877134897488,1500.4778641797795) translate(70.85423634975183 16.2327605956472)"/><path d="M480.18 308.8c-27.6 0-50-22.4-50-50 0-27.62 22.4-50 50-50s50 22.38 50 50c0 27.6-22.4 50-50 50z" stroke="#333" fill="#fff"/><path d="M430.18 308.8h100" stroke="#333" fill="none"/><use xlink:href="#T" transform="matrix(1,0,0,1,390.18046270018897,308.7957912945176) translate(29.279775995927174 18.06552119129439)"/><path d="M1424.2 937.07h-4.07m-8.14 0h-8.14m-8.14 0h-8.14m-8.14 0h-8.14m-8.14 0h-8.14m-8.14 0h-8.13m-8.14 0h-8.13m-8.14 0h-8.14m-8.15 0h-8.14m-8.12 0h-8.14m-8.14 0h-8.14m-8.14 0h-8.14m-8.14 0h-8.14m-8.13 0h-8.14m-8.14 0h-8.15m-8.14 0h-8.13m-8.14 0h-8.13m-8.14 0h-8.14m-8.14 0h-8.14m-8.14 0h-8.14m-8.13 0h-8.14m-8.15 0h-8.14m-8.13 0h-8.14m-8.14 0h-4.08l-.96-2.95-2.46-1.8-1.58-.25-2.95.96-1.8 2.46-.25 1.57h-4.04m-8.1 0h-8.08m-8.1 0h-8.08m-8.08 0h-8.1m-8.08 0h-8.1m-8.08 0h-8.1m-8.08 0h-8.08m-8.1 0h-8.08m-8.1 0h-8.08m-8.1 0h-8.08m-8.1 0h-8.07m-8.08 0h-8.1m-8.08 0h-8.1m-8.08 0h-8.1m-8.08 0h-4.06v.02h-4.07m-8.13 0H793m-8.14 0h-8.13m-8.13 0h-8.13m-8.13 0h-8.13m-8.12 0H732l-.95-2.95-2.46-1.8-1.6-.25-2.94.96-1.8 2.46-.25 1.58h-3.93m-7.9 0h-7.9m-7.9 0h-7.88m-7.9 0h-7.9m-7.9 0h-7.9m-7.88 0h-7.9m-7.9 0h-7.9m-7.88 0h-7.9m-7.9 0h-7.88m-7.9 0h-7.9m-7.9 0h-7.88m-7.9 0h-7.9m-7.9 0h-7.88m-7.9 0h-7.9m-7.88 0h-7.9m-7.9 0h-3.94l-.96-2.95-2.46-1.8-1.58-.25-2.95.96-1.8 2.46-.25 1.58h-4m-7.96 0h-7.98m-7.98 0h-7.97m-8 0h-7.96m-7.98 0h-7.98m-7.97 0h-7.97m-7.97 0h-7.98m-7.98 0h-7.97m-7.98 0h-7.97m-7.98 0h-7.98m-7.97 0h-7.98m-7.97 0h-7.98m-7.97 0h-7.98m-7.98 0h-7.98m-7.98 0h-7.97m-7.98 0h-8m-7.96 0h-4" stroke="#333" stroke-width="2" fill="none"/><path d="M1425.2 938.07h-1.02v-2h1.02z" stroke="#333" stroke-width=".05" fill="#333"/><path d="M204.68 937.1l14.27-4.64v9.27z" stroke="#333" stroke-width="2" fill="#333"/><use xlink:href="#U" transform="matrix(1,0,0,1,1062.4777812518116,905.9707193852569) translate(0.0049999999999954525 18.06552119129439)"/><use xlink:href="#V" transform="matrix(1,0,0,1,1062.4777812518116,905.9707193852569) translate(132.61094374443175 18.06552119129439)"/><path d="M705.04 1236.17h-3.86m-7.72 0h-7.73m-7.72 0h-7.72m-7.72 0h-7.73m-7.72 0h-7.72m-7.72 0h-7.73m-7.72 0h-7.72m-7.72 0h-7.73m-7.72 0h-7.7m-7.74 0h-7.72m-7.73 0h-7.7m-7.74 0h-7.72m-7.73 0h-3.85" stroke="#333" stroke-width="2" fill="none"/><path d="M706.04 1237.17h-1.02v-2h1.02z" stroke="#333" stroke-width=".05" fill="#333"/><path d="M504.38 1236.17l14.27-4.63v9.27z" stroke="#333" stroke-width="2" fill="#333"/><use xlink:href="#v" transform="matrix(1,0,0,1,519.0724634569173,1200.4410337441695) translate(0.0049999999999954525 18.06552119129439)"/><use xlink:href="#t" transform="matrix(1,0,0,1,519.0724634569173,1200.4410337441695) translate(56.39702621865854 18.06552119129439)"/><path d="M1023.35 1402.06h-4.04m-8.1 0h-8.08m-8.1 0h-8.08m-8.1 0h-8.1m-8.08 0h-8.1m-8.1 0h-8.08m-8.1 0h-8.1m-8.08 0H906m-8.08 0h-8.1m-8.1 0h-8.08m-8.1 0h-8.1m-8.08 0h-8.1m-8.1 0h-8.08m-8.1 0h-8.08m-8.1 0h-8.1m-8.08 0h-8.1m-8.1 0h-8.08m-8.1 0h-8.1m-8.08 0H732l-.95-2.95-2.46-1.78-1.6-.26-2.94.97-1.8 2.45-.25 1.58h-3.88m-7.78 0h-7.78m-7.8 0H687m-7.8 0h-7.77m-7.8 0h-7.77m-7.78 0h-7.78m-7.8 0h-7.77m-7.78 0h-7.78m-7.8 0h-7.77m-7.78 0h-7.8m-7.77 0h-7.78m-7.78 0h-7.8m-7.78 0h-7.78m-7.78 0h-3.9" stroke="#333" stroke-width="2" fill="none"/><path d="M1024.35 1403.06h-1.02v-2h1.02z" stroke="#333" stroke-width=".05" fill="#333"/><path d="M504.4 1402.06l14.26-4.63v9.27z" stroke="#333" stroke-width="2" fill="#333"/><use xlink:href="#W" transform="matrix(1,0,0,1,831.2122621565503,1370.96357388316) translate(0.0049999999999954525 18.06552119129439)"/><use xlink:href="#j" transform="matrix(1,0,0,1,831.2122621565503,1370.96357388316) translate(96.54262886597941 18.06552119129439)"/><path d="M1257.1 310.3v9.9m0 9.92v19.83m0 9.9v19.83m0 9.92v19.82m0 9.9v19.84m0 9.9v19.83m0 9.9v19.83m0 9.9v19.84m0 9.9v19.84m0 9.92v19.82m0 9.9v19.84m0 9.9v19.84m0 9.9v19.83m0 9.92v19.82m0 9.9v19.83m0 9.9v19.84m0 9.9V796m0 9.9v19.84m0 9.9v19.84m0 9.9v19.83m0 9.93v19.82m0 9.9v19.84m0 9.9v19.83m0 9.9v19.83m0 9.9v19.84m0 9.9v19.84m0 9.9v19.83m0 9.92v19.8m0 9.92v19.83m0 9.9v19.84m0 9.9v19.82m0 9.9v19.84m0 9.9v19.84m0 9.9v19.83m0 9.92v19.82m0 9.9v19.84m0 9.92v19.83m0 9.9v19.83m0 9.9v19.84m0 9.9v19.84m0 9.9v19.83m0 9.9v19.83m0 9.9v19.84m0 9.9v19.83m0 9.92v19.82m0 9.9v9.93" stroke="#999" stroke-width="2" fill="none"/><path d="M1257.1 309.3h1.02v1.02h-2v-1.02z" stroke="#999" stroke-width=".05" fill="#999"/><path d="M1257.1 1648.44v1.03" stroke="#999" stroke-width="2" fill="none"/><path d="M1237.1 623.56a5 5 0 0 1 5-5h30a5 5 0 0 1 5 5v175.56a5 5 0 0 1-5 5h-30a5 5 0 0 1-5-5z" stroke="#666" stroke-width="2" fill="#f2f2f2"/><path d="M1257.1 308.8c-27.6 0-50-22.4-50-50 0-27.62 22.4-50 50-50 27.63 0 50 22.38 50 50 0 27.6-22.37 50-50 50z" stroke="#333" fill="#fff"/><path d="M1207.1 308.8h100" stroke="#333" fill="none"/><g><use xlink:href="#X" transform="matrix(1,0,0,1,1167.1134020618558,308.7957912945176) translate(4.7846856306478 18.06552119129439)"/><use xlink:href="#Y" transform="matrix(1,0,0,1,1167.1134020618558,308.7957912945176) translate(100.00503690976201 18.06552119129439)"/></g><path d="M1235.14 713.33h-4.2m-8.4 0h-8.38m-8.4 0h-8.4m-8.38 0h-8.4m-8.4 0h-8.4m-8.38 0H1147.05m-8.3 0h-8.3m-8.32 0h-8.3m-8.3 0h-8.3m-8.32 0h-4.14" stroke="#333" stroke-width="2" fill="none"/><path d="M1236.15 714.33h-1.03v-2h1.02z" stroke="#333" stroke-width=".05" fill="#333"/><path d="M1069.5 713.33l14.26-4.63v9.27z" stroke="#333" stroke-width="2" fill="#333"/><g><use xlink:href="#N" transform="matrix(1,0,0,1,1081.0394527132385,677.5980612143071) translate(0.0049999999999954525 18.06552119129439)"/><use xlink:href="#Z" transform="matrix(1,0,0,1,1081.0394527132385,677.5980612143071) translate(86.44350070001275 18.06552119129439)"/></g><path d="M1067.25 673.33h4.2m8.4 0h8.4m8.38 0h8.4m8.4 0h8.38m8.4 0h8.4m8.4 0H1155.34m8.3 0h8.3m8.3 0h8.3m8.32 0h8.3m8.3 0h4.16" stroke="#333" stroke-width="2" fill="none"/><path d="M1067.28 674.33h-1.03v-2h1.03z" stroke="#333" stroke-width=".05" fill="#333"/><path d="M1232.9 673.34l-14.27 4.63v-9.27z" stroke="#333" stroke-width="2" fill="#333"/><g><use xlink:href="#X" transform="matrix(1,0,0,1,1076.6406593116353,637.599836864719) translate(0.0049999999999954525 18.06552119129439)"/><use xlink:href="#Z" transform="matrix(1,0,0,1,1076.6406593116353,637.599836864719) translate(95.22535127911421 18.06552119129439)"/></g><path d="M1734.92 1228.75h-3.94m-7.9 0h-7.87m-7.87 0h-7.88m-7.88 0h-7.88m-7.9 0h-7.88m-7.88 0h-7.88m-7.88 0h-7.88m-7.9 0h-7.87m-7.88 0h-7.88m-7.88 0h-7.9m-7.88 0h-7.88m-7.88 0h-7.88m-7.88 0h-7.9m-7.87 0h-7.88m-7.88 0h-7.88m-7.9 0h-7.88m-7.88 0h-7.88m-7.88 0H1463m-7.88 0h-3.94l-.97-2.96-2.44-1.8-1.58-.25-2.96.96-1.8 2.47-.24 1.58h-4.07m-8.13 0h-8.14m-8.14 0h-8.15m-8.14 0h-8.13m-8.14 0H1372m-8.15 0h-8.14m-8.13 0h-8.13m-8.14 0h-8.14m-8.14 0h-8.14m-8.14 0h-8.14m-8.14 0h-8.14m-8.14 0h-4.07l-.95-2.96-2.46-1.8-1.6-.25-2.94.96-1.8 2.47-.25 1.58h-3.87m-7.76 0h-7.76m-7.75 0h-7.77m-7.76 0h-7.76m-7.76 0h-7.76m-7.77 0h-7.76m-7.75 0h-7.76m-7.77 0h-7.76m-7.77 0h-7.76m-7.76 0h-7.76m-7.76 0H1093m-7.77 0h-7.76m-7.76 0h-7.75m-7.77 0h-3.88l-.96-2.96-2.46-1.8-1.58-.25-2.95.96-1.8 2.47-.25 1.58h-4.02m-8.06 0h-8.05m-8.05 0h-8.06m-8.05 0h-8.05m-8.05 0h-8.05m-8.06 0h-8.06m-8.05 0h-8.07m-8.05 0h-8.05m-8.06 0h-8.05m-8.05 0h-8.06m-8.04 0h-8.05m-8.05 0h-8.05m-8.06 0H843m-8.06 0h-8.06m-8.05 0h-8.05m-8.06 0h-8.05m-8.05 0h-8.06m-8.05 0h-4.02" stroke="#333" stroke-width="2" fill="none"/><path d="M1735.92 1229.75h-1.03v-2h1.02z" stroke="#333" stroke-width=".05" fill="#333"/><path d="M751.22 1228.75l14.26-4.64v9.28z" stroke="#333" stroke-width="2" fill="#333"/><g><use xlink:href="#aa" transform="matrix(1,0,0,1,1524.027289635833,1194.8989272218867) translate(0.0049999999999954525 19.898281786941588)"/><use xlink:href="#ab" transform="matrix(1,0,0,1,1524.027289635833,1194.8989272218867) translate(95.21275105001912 19.898281786941588)"/></g><path d="M1067.26 762.9h3.85m7.7 0h7.7m7.72 0h7.7m7.7 0h7.7m7.7 0h7.7m7.7 0h7.7m7.7 0h7.72m7.7 0h7.7m7.7 0h7.7m7.7 0h7.7m7.7 0h7.72m7.7 0h7.7m7.7 0h3.85l.98-2.97 2.45-1.8 1.58-.24 2.97.95 1.8 2.46.24 1.6h3.87m7.72 0h7.7m7.73 0h7.72m7.72 0h7.72m7.7 0h7.73m7.72 0h7.72m7.72 0h7.7m7.73 0h7.72m7.72 0h7.72m7.7 0h7.33m6.93 0h6.92m6.92 0h6.92m6.92 0h3.46l.96-2.97 2.46-1.8 1.58-.24 2.95.95 1.8 2.46.25 1.6h3.9m7.78 0h7.8m7.77 0h7.8m7.78 0h7.8m7.78 0h7.8m7.78 0h7.8m7.78 0h7.8m7.77 0h7.8m7.78 0h7.8m7.8 0h7.77m7.8 0h7.78m7.8 0h7.78m7.78 0h7.8m7.8 0h7.78m7.8 0h7.77m7.8 0h7.78m7.8 0h7.78m7.8 0h3.9" stroke="#333" stroke-width="2" fill="none"/><path d="M1067.28 763.9h-1.02v-2h1.02z" stroke="#333" stroke-width=".05" fill="#333"/><path d="M1732.65 762.9l-14.26 4.62v-9.27z" stroke="#333" stroke-width="2" fill="#333"/><g><use xlink:href="#A" transform="matrix(1,0,0,1,1079.1736912669548,731.7883161512023) translate(0.0049999999999954525 18.06552119129439)"/><use xlink:href="#Z" transform="matrix(1,0,0,1,1079.1736912669548,731.7883161512023) translate(86.44350070001275 18.06552119129439)"/></g><path d="M1023.32 783.6h-3.95m-7.9 0h-7.88m-7.9 0h-7.9m-7.9 0h-7.88m-7.9 0h-7.9m-7.88 0h-7.9m-7.9 0h-7.88m-7.9 0h-7.9m-7.88 0h-7.9m-7.9 0h-7.88m-7.9 0h-7.9m-7.88 0h-7.9m-7.9 0h-7.88m-7.9 0h-7.9m-7.88 0h-7.9m-7.9 0h-7.88m-7.9 0h-7.88m-7.9 0H751m-7.88 0h-7.9m-7.9 0h-7.88m-7.9 0h-7.9m-7.88 0h-7.9m-7.9 0h-7.88m-7.9 0h-7.9m-7.88 0h-7.9m-7.9 0h-7.88m-7.9 0h-7.87m-7.86 0h-7.87m-7.86 0h-7.85m-7.86 0h-7.86m-7.86 0h-7.86m-7.86 0h-7.86m-7.86 0h-7.85m-7.86 0h-7.87m-7.86 0h-7.86m-7.85 0h-7.86m-7.87 0h-7.85m-7.86 0h-7.86m-7.86 0h-7.86m-7.86 0h-7.86m-7.86 0h-7.85m-7.85 0h-7.86m-7.87 0h-7.86m-7.86 0h-7.85m-7.86 0h-7.86m-7.86 0h-7.86m-7.86 0h-7.86m-7.86 0h-7.86m-7.86 0h-7.85m-7.86 0h-7.85m-7.86 0h-7.87m-7.86 0h-3.93" stroke="#333" stroke-width="2" fill="none"/><path d="M1024.32 784.6h-1.02v-2h1.02z" stroke="#333" stroke-width=".05" fill="#333"/><path d="M204.68 783.6l14.26-4.63v9.27z" stroke="#333" stroke-width="2" fill="#333"/><g><use xlink:href="#ac" transform="matrix(1,0,0,1,785.5711538142282,752.509767398331) translate(0.0049999999999954525 18.06552119129439)"/><use xlink:href="#ad" transform="matrix(1,0,0,1,785.5711538142282,752.509767398331) translate(60.16067646684486 18.06552119129439)"/></g><path d="M1023.36 1587.63h-4.04m-8.1 0h-8.1m-8.08 0h-8.1m-8.1 0h-8.08m-8.1 0h-8.1m-8.08 0h-8.1m-8.1 0h-8.08m-8.1 0H906m-8.08 0h-8.1m-8.08 0h-8.1m-8.1 0h-8.08m-8.1 0h-8.1m-8.08 0h-8.1m-8.1 0h-8.08m-8.1 0h-8.1m-8.08 0h-8.1m-8.1 0h-8.08m-8.1 0h-8.1m-8.08 0H732l-.95-2.95-2.46-1.8-1.6-.25-2.94.96-1.8 2.45-.25 1.58h-3.88m-7.8 0h-7.8m-7.78 0h-7.8m-7.78 0h-7.8m-7.8 0h-7.78m-7.8 0h-7.78m-7.8 0h-7.8m-7.78 0H608.96m-7.9 0h-7.93m-7.9 0h-7.93m-7.9 0h-7.93m-7.9 0h-7.93m-7.9 0h-7.93m-7.9 0h-7.92m-7.9 0h-7.93m-7.9 0h-3.97l-.97-2.95-2.44-1.8-1.58-.25-2.96.96-1.8 2.45-.24 1.58h-4m-8.02 0h-8m-8 0h-8.02m-8 0h-8.02m-8 0h-8.02m-8 0h-8.02m-8 0h-8.02m-8 0h-8.02m-8 0h-8m-8.02 0h-8m-8.02 0h-8m-8.02 0h-8m-8.02 0h-8m-8.02 0h-8m-8 0H248m-8 0H232m-8 0h-4.02" stroke="#333" stroke-width="2" fill="none"/><path d="M1024.36 1588.63h-1.02v-2h1.02z" stroke="#333" stroke-width=".05" fill="#333"/><path d="M204.72 1587.63l14.26-4.64v9.26z" stroke="#333" stroke-width="2" fill="#333"/><g><use xlink:href="#ae" transform="matrix(1,0,0,1,833.8599385043132,1559.2797250859114) translate(0.005000000000002558 16.2327605956472)"/><use xlink:href="#S" transform="matrix(1,0,0,1,833.8599385043132,1559.2797250859114) translate(50.676013109329276 16.2327605956472)"/></g><defs><path fill="#333" d="M30 0v-248h187v28H63v79h144v27H63v87h162V0H30" id="af"/><path fill="#333" d="M210-169c-67 3-38 105-44 169h-31v-121c0-29-5-50-35-48C34-165 62-65 56 0H25l-1-190h30c1 10-1 24 2 32 10-44 99-50 107 0 11-21 27-35 58-36 85-2 47 119 55 194h-31v-121c0-29-5-49-35-48" id="ag"/><path fill="#333" d="M115-194c55 1 70 41 70 98S169 2 115 4C84 4 66-9 55-30l1 105H24l-1-265h31l2 30c10-21 28-34 59-34zm-8 174c40 0 45-34 45-75s-6-73-45-74c-42 0-51 32-51 76 0 43 10 73 51 73" id="ah"/><path fill="#333" d="M114-163C36-179 61-72 57 0H25l-1-190h30c1 12-1 29 2 39 6-27 23-49 58-41v29" id="ai"/><path fill="#333" d="M100-194c63 0 86 42 84 106H49c0 40 14 67 53 68 26 1 43-12 49-29l28 8c-11 28-37 45-77 45C44 4 14-33 15-96c1-61 26-98 85-98zm52 81c6-60-76-77-97-28-3 7-6 17-6 28h103" id="aj"/><path fill="#333" d="M135-143c-3-34-86-38-87 0 15 53 115 12 119 90S17 21 10-45l28-5c4 36 97 45 98 0-10-56-113-15-118-90-4-57 82-63 122-42 12 7 21 19 24 35" id="ak"/><path fill="#333" d="M141-36C126-15 110 5 73 4 37 3 15-17 15-53c-1-64 63-63 125-63 3-35-9-54-41-54-24 1-41 7-42 31l-33-3c5-37 33-52 76-52 45 0 72 20 72 64v82c-1 20 7 32 28 27v20c-31 9-61-2-59-35zM48-53c0 20 12 33 32 33 41-3 63-29 60-74-43 2-92-5-92 41" id="al"/><g id="a"><use transform="matrix(0.06272750413643886,0,0,0.06272750413643886,0,0)" xlink:href="#af"/><use transform="matrix(0.06272750413643886,0,0,0.06272750413643886,15.054600992745327,0)" xlink:href="#ag"/><use transform="matrix(0.06272750413643886,0,0,0.06272750413643886,33.81012472954055,0)" xlink:href="#ah"/><use transform="matrix(0.06272750413643886,0,0,0.06272750413643886,46.35562555682832,0)" xlink:href="#ai"/><use transform="matrix(0.06272750413643886,0,0,0.06272750413643886,53.82019854906455,0)" xlink:href="#aj"/><use transform="matrix(0.06272750413643886,0,0,0.06272750413643886,66.36569937635232,0)" xlink:href="#ak"/><use transform="matrix(0.06272750413643886,0,0,0.06272750413643886,77.65665012091132,0)" xlink:href="#al"/></g><path fill="#333" d="M30-248c87 1 191-15 191 75 0 78-77 80-158 76V0H30v-248zm33 125c57 0 124 11 124-50 0-59-68-47-124-48v98" id="am"/><path fill="#333" d="M96-169c-40 0-48 33-48 73s9 75 48 75c24 0 41-14 43-38l32 2c-6 37-31 61-74 61-59 0-76-41-82-99-10-93 101-131 147-64 4 7 5 14 7 22l-32 3c-4-21-16-35-41-35" id="an"/><path fill="#333" d="M24-231v-30h32v30H24zM24 0v-190h32V0H24" id="ao"/><g id="b"><use transform="matrix(0.06272750413643886,0,0,0.06272750413643886,0,0)" xlink:href="#am"/><use transform="matrix(0.06272750413643886,0,0,0.06272750413643886,15.054600992745327,0)" xlink:href="#al"/><use transform="matrix(0.06272750413643886,0,0,0.06272750413643886,27.6001018200331,0)" xlink:href="#ai"/><use transform="matrix(0.06272750413643886,0,0,0.06272750413643886,35.064674812269324,0)" xlink:href="#an"/><use transform="matrix(0.06272750413643886,0,0,0.06272750413643886,46.35562555682832,0)" xlink:href="#aj"/><use transform="matrix(0.06272750413643886,0,0,0.06272750413643886,58.9011263841161,0)" xlink:href="#ao"/><use transform="matrix(0.06272750413643886,0,0,0.06272750413643886,63.856599210894764,0)" xlink:href="#ai"/><use transform="matrix(0.06272750413643886,0,0,0.06272750413643886,71.32117220313098,0)" xlink:href="#al"/></g><path fill="#333" d="M205 0l-28-72H64L36 0H1l101-248h38L239 0h-34zm-38-99l-47-123c-12 45-31 82-46 123h93" id="ap"/><path fill="#333" d="M85-194c31 0 48 13 60 33l-1-100h32l1 261h-30c-2-10 0-23-3-31C134-8 116 4 85 4 32 4 16-35 15-94c0-66 23-100 70-100zm9 24c-40 0-46 34-46 75 0 40 6 74 45 74 42 0 51-32 51-76 0-42-9-74-50-73" id="aq"/><path fill="#333" d="M117-194c89-4 53 116 60 194h-32v-121c0-31-8-49-39-48C34-167 62-67 57 0H25l-1-190h30c1 10-1 24 2 32 11-22 29-35 61-36" id="ar"/><path fill="#333" d="M59-47c-2 24 18 29 38 22v24C64 9 27 4 27-40v-127H5v-23h24l9-43h21v43h35v23H59v120" id="as"/><path fill="#333" d="M100-194c62-1 85 37 85 99 1 63-27 99-86 99S16-35 15-95c0-66 28-99 85-99zM99-20c44 1 53-31 53-75 0-43-8-75-51-75s-53 32-53 75 10 74 51 75" id="at"/><g id="c"><use transform="matrix(0.06272750413643886,0,0,0.06272750413643886,0,0)" xlink:href="#ap"/><use transform="matrix(0.06272750413643886,0,0,0.06272750413643886,15.054600992745327,0)" xlink:href="#aq"/><use transform="matrix(0.06272750413643886,0,0,0.06272750413643886,27.6001018200331,0)" xlink:href="#ag"/><use transform="matrix(0.06272750413643886,0,0,0.06272750413643886,46.355625556828315,0)" xlink:href="#ao"/><use transform="matrix(0.06272750413643886,0,0,0.06272750413643886,51.31109838360698,0)" xlink:href="#ar"/><use transform="matrix(0.06272750413643886,0,0,0.06272750413643886,63.85659921089476,0)" xlink:href="#ao"/><use transform="matrix(0.06272750413643886,0,0,0.06272750413643886,68.81207203767343,0)" xlink:href="#ak"/><use transform="matrix(0.06272750413643886,0,0,0.06272750413643886,80.10302278223243,0)" xlink:href="#as"/><use transform="matrix(0.06272750413643886,0,0,0.06272750413643886,86.37577319587632,0)" xlink:href="#ai"/><use transform="matrix(0.06272750413643886,0,0,0.06272750413643886,93.84034618811255,0)" xlink:href="#al"/><use transform="matrix(0.06272750413643886,0,0,0.06272750413643886,106.38584701540032,0)" xlink:href="#aq"/><use transform="matrix(0.06272750413643886,0,0,0.06272750413643886,118.93134784268808,0)" xlink:href="#at"/><use transform="matrix(0.06272750413643886,0,0,0.06272750413643886,131.47684866997585,0)" xlink:href="#ai"/></g><path fill="#333" d="M24 0v-261h32V0H24" id="au"/><path fill="#333" d="M96-169c-40 0-48 33-48 73s9 75 48 75c24 0 41-14 43-38l32 2c-6 37-31 61-74 61-59 0-76-41-82-99-10-93 101-131 147-64 4 7 5 14 7 22l-32 3c-4-21-16-35-41-35zm3 187c19-1 33 8 33 26 0 31-30 33-64 32V58c18 2 39 4 41-13 1-15-18-13-34-13L87 0h19" id="av"/><path fill="#333" d="M141-36C126-15 110 5 73 4 37 3 15-17 15-53c-1-64 63-63 125-63 3-35-9-54-41-54-24 1-41 7-42 31l-33-3c5-37 33-52 76-52 45 0 72 20 72 64v82c-1 20 7 32 28 27v20c-31 9-61-2-59-35zM48-53c0 20 12 33 32 33 41-3 63-29 60-74-43 2-92-5-92 41zm117-205c-3 23-9 48-36 47-26-1-65-44-74 0H39c4-23 8-48 36-47s64 44 74 0h16" id="aw"/><g id="d"><use transform="matrix(0.06272750413643886,0,0,0.06272750413643886,0,0)" xlink:href="#ap"/><use transform="matrix(0.06272750413643886,0,0,0.06272750413643886,15.054600992745327,0)" xlink:href="#ah"/><use transform="matrix(0.06272750413643886,0,0,0.06272750413643886,27.6001018200331,0)" xlink:href="#au"/><use transform="matrix(0.06272750413643886,0,0,0.06272750413643886,32.55557464681177,0)" xlink:href="#ao"/><use transform="matrix(0.06272750413643886,0,0,0.06272750413643886,37.51104747359044,0)" xlink:href="#an"/><use transform="matrix(0.06272750413643886,0,0,0.06272750413643886,48.801998218149436,0)" xlink:href="#al"/><use transform="matrix(0.06272750413643886,0,0,0.06272750413643886,61.34749904543721,0)" xlink:href="#av"/><use transform="matrix(0.06272750413643886,0,0,0.06272750413643886,72.6384497899962,0)" xlink:href="#aw"/><use transform="matrix(0.06272750413643886,0,0,0.06272750413643886,85.18395061728397,0)" xlink:href="#at"/></g><path fill="#333" d="M240 0l2-218c-23 76-54 145-80 218h-23L58-218 59 0H30v-248h44l77 211c21-75 51-140 76-211h43V0h-30" id="ax"/><path fill="#333" d="M145-31C134-9 116 4 85 4 32 4 16-35 15-94c0-59 17-99 70-100 32-1 48 14 60 33 0-11-1-24 2-32h30l-1 268h-32zM93-21c41 0 51-33 51-76s-8-73-50-73c-40 0-46 35-46 75s5 74 45 74" id="ay"/><path fill="#333" d="M84 4C-5 8 30-112 23-190h32v120c0 31 7 50 39 49 72-2 45-101 50-169h31l1 190h-30c-1-10 1-25-2-33-11 22-28 36-60 37" id="az"/><g id="e"><use transform="matrix(0.06272750413643886,0,0,0.06272750413643886,0,0)" xlink:href="#ax"/><use transform="matrix(0.06272750413643886,0,0,0.06272750413643886,18.75552373679522,0)" xlink:href="#al"/><use transform="matrix(0.06272750413643886,0,0,0.06272750413643886,31.301024564082994,0)" xlink:href="#ay"/><use transform="matrix(0.06272750413643886,0,0,0.06272750413643886,43.84652539137077,0)" xlink:href="#az"/><use transform="matrix(0.06272750413643886,0,0,0.06272750413643886,56.39202621865854,0)" xlink:href="#ao"/><use transform="matrix(0.06272750413643886,0,0,0.06272750413643886,61.34749904543721,0)" xlink:href="#ar"/><use transform="matrix(0.06272750413643886,0,0,0.06272750413643886,73.89299987272499,0)" xlink:href="#al"/></g><path fill="#333" d="M160-131c35 5 61 23 61 61C221 17 115-2 30 0v-248c76 3 177-17 177 60 0 33-19 50-47 57zm-97-11c50-1 110 9 110-42 0-47-63-36-110-37v79zm0 115c55-2 124 14 124-45 0-56-70-42-124-44v89" id="aA"/><g id="f"><use transform="matrix(0.06272750413643886,0,0,0.06272750413643886,0,0)" xlink:href="#aA"/><use transform="matrix(0.06272750413643886,0,0,0.06272750413643886,15.054600992745327,0)" xlink:href="#al"/><use transform="matrix(0.06272750413643886,0,0,0.06272750413643886,27.6001018200331,0)" xlink:href="#ar"/><use transform="matrix(0.06272750413643886,0,0,0.06272750413643886,40.14560264732087,0)" xlink:href="#an"/><use transform="matrix(0.06272750413643886,0,0,0.06272750413643886,51.43655339187987,0)" xlink:href="#at"/></g><g id="g"><use transform="matrix(0.06272750413643886,0,0,0.06272750413643886,0,0)" xlink:href="#aq"/><use transform="matrix(0.06272750413643886,0,0,0.06272750413643886,12.545500827287773,0)" xlink:href="#aj"/></g><g id="h"><use transform="matrix(0.06272750413643886,0,0,0.06272750413643886,0,0)" xlink:href="#aq"/><use transform="matrix(0.06272750413643886,0,0,0.06272750413643886,12.545500827287773,0)" xlink:href="#al"/><use transform="matrix(0.06272750413643886,0,0,0.06272750413643886,25.091001654575546,0)" xlink:href="#aq"/><use transform="matrix(0.06272750413643886,0,0,0.06272750413643886,37.63650248186332,0)" xlink:href="#at"/><use transform="matrix(0.06272750413643886,0,0,0.06272750413643886,50.18200330915109,0)" xlink:href="#ak"/></g><path fill="#333" d="M233-177c-1 41-23 64-60 70L243 0h-38l-65-103H63V0H30v-248c88 3 205-21 203 71zM63-129c60-2 137 13 137-47 0-61-80-42-137-45v92" id="aB"/><g id="i"><use transform="matrix(0.06272750413643886,0,0,0.06272750413643886,0,0)" xlink:href="#aB"/><use transform="matrix(0.06272750413643886,0,0,0.06272750413643886,16.246423571337665,0)" xlink:href="#aj"/><use transform="matrix(0.06272750413643886,0,0,0.06272750413643886,28.79192439862544,0)" xlink:href="#an"/><use transform="matrix(0.06272750413643886,0,0,0.06272750413643886,40.08287514318444,0)" xlink:href="#au"/><use transform="matrix(0.06272750413643886,0,0,0.06272750413643886,45.038347969963105,0)" xlink:href="#al"/><use transform="matrix(0.06272750413643886,0,0,0.06272750413643886,57.58384879725088,0)" xlink:href="#ag"/><use transform="matrix(0.06272750413643886,0,0,0.06272750413643886,76.3393725340461,0)" xlink:href="#al"/></g><g id="j"><use transform="matrix(0.06272750413643886,0,0,0.06272750413643886,0,0)" xlink:href="#ah"/><use transform="matrix(0.06272750413643886,0,0,0.06272750413643886,12.545500827287773,0)" xlink:href="#at"/><use transform="matrix(0.06272750413643886,0,0,0.06272750413643886,25.091001654575546,0)" xlink:href="#ar"/><use transform="matrix(0.06272750413643886,0,0,0.06272750413643886,37.63650248186332,0)" xlink:href="#as"/><use transform="matrix(0.06272750413643886,0,0,0.06272750413643886,43.9092528955072,0)" xlink:href="#at"/><use transform="matrix(0.06272750413643886,0,0,0.06272750413643886,56.454753722794976,0)" xlink:href="#ak"/></g><path fill="#333" d="M212-179c-10-28-35-45-73-45-59 0-87 40-87 99 0 60 29 101 89 101 43 0 62-24 78-52l27 14C228-24 195 4 139 4 59 4 22-46 18-125c-6-104 99-153 187-111 19 9 31 26 39 46" id="aC"/><g id="k"><use transform="matrix(0.06272750413643886,0,0,0.06272750413643886,0,0)" xlink:href="#aC"/><use transform="matrix(0.06272750413643886,0,0,0.06272750413643886,16.246423571337665,0)" xlink:href="#al"/><use transform="matrix(0.06272750413643886,0,0,0.06272750413643886,28.79192439862544,0)" xlink:href="#aq"/><use transform="matrix(0.06272750413643886,0,0,0.06272750413643886,41.337425225913215,0)" xlink:href="#al"/><use transform="matrix(0.06272750413643886,0,0,0.06272750413643886,53.88292605320099,0)" xlink:href="#ak"/><use transform="matrix(0.06272750413643886,0,0,0.06272750413643886,65.17387679775999,0)" xlink:href="#as"/><use transform="matrix(0.06272750413643886,0,0,0.06272750413643886,71.44662721140388,0)" xlink:href="#ai"/><use transform="matrix(0.06272750413643886,0,0,0.06272750413643886,78.9112002036401,0)" xlink:href="#at"/></g><g id="l"><use transform="matrix(0.06272750413643886,0,0,0.06272750413643886,0,0)" xlink:href="#aq"/><use transform="matrix(0.06272750413643886,0,0,0.06272750413643886,12.545500827287773,0)" xlink:href="#al"/></g><g id="m"><use transform="matrix(0.06272750413643886,0,0,0.06272750413643886,0,0)" xlink:href="#aj"/><use transform="matrix(0.06272750413643886,0,0,0.06272750413643886,12.545500827287773,0)" xlink:href="#ag"/><use transform="matrix(0.06272750413643886,0,0,0.06272750413643886,31.301024564082994,0)" xlink:href="#ah"/><use transform="matrix(0.06272750413643886,0,0,0.06272750413643886,43.84652539137077,0)" xlink:href="#ai"/><use transform="matrix(0.06272750413643886,0,0,0.06272750413643886,51.311098383606996,0)" xlink:href="#aj"/><use transform="matrix(0.06272750413643886,0,0,0.06272750413643886,63.85659921089477,0)" xlink:href="#ak"/><use transform="matrix(0.06272750413643886,0,0,0.06272750413643886,75.14754995545377,0)" xlink:href="#al"/></g><path fill="#333" d="M137 0h-34L2-248h35l83 218 83-218h36" id="aD"/><g id="n"><use transform="matrix(0.06272750413643886,0,0,0.06272750413643886,0,0)" xlink:href="#aD"/><use transform="matrix(0.06272750413643886,0,0,0.06272750413643886,13.360958381061478,0)" xlink:href="#al"/><use transform="matrix(0.06272750413643886,0,0,0.06272750413643886,25.90645920834925,0)" xlink:href="#au"/><use transform="matrix(0.06272750413643886,0,0,0.06272750413643886,30.86193203512792,0)" xlink:href="#ao"/><use transform="matrix(0.06272750413643886,0,0,0.06272750413643886,35.81740486190659,0)" xlink:href="#aq"/><use transform="matrix(0.06272750413643886,0,0,0.06272750413643886,48.36290568919436,0)" xlink:href="#al"/><use transform="matrix(0.06272750413643886,0,0,0.06272750413643886,60.90840651648214,0)" xlink:href="#ai"/></g><g id="o"><use transform="matrix(0.06272750413643886,0,0,0.06272750413643886,0,0)" xlink:href="#af"/><use transform="matrix(0.06272750413643886,0,0,0.06272750413643886,15.054600992745327,0)" xlink:href="#ag"/><use transform="matrix(0.06272750413643886,0,0,0.06272750413643886,33.81012472954055,0)" xlink:href="#ah"/><use transform="matrix(0.06272750413643886,0,0,0.06272750413643886,46.35562555682832,0)" xlink:href="#ai"/><use transform="matrix(0.06272750413643886,0,0,0.06272750413643886,53.82019854906455,0)" xlink:href="#aj"/><use transform="matrix(0.06272750413643886,0,0,0.06272750413643886,66.36569937635232,0)" xlink:href="#ak"/><use transform="matrix(0.06272750413643886,0,0,0.06272750413643886,77.65665012091132,0)" xlink:href="#al"/></g><g id="p"><use transform="matrix(0.06272750413643886,0,0,0.06272750413643886,0,0)" xlink:href="#an"/><use transform="matrix(0.06272750413643886,0,0,0.06272750413643886,11.290950744558996,0)" xlink:href="#al"/><use transform="matrix(0.06272750413643886,0,0,0.06272750413643886,23.83645157184677,0)" xlink:href="#aq"/><use transform="matrix(0.06272750413643886,0,0,0.06272750413643886,36.38195239913454,0)" xlink:href="#al"/><use transform="matrix(0.06272750413643886,0,0,0.06272750413643886,48.927453226422315,0)" xlink:href="#ak"/><use transform="matrix(0.06272750413643886,0,0,0.06272750413643886,60.21840397098131,0)" xlink:href="#as"/><use transform="matrix(0.06272750413643886,0,0,0.06272750413643886,66.4911543846252,0)" xlink:href="#ai"/><use transform="matrix(0.06272750413643886,0,0,0.06272750413643886,73.95572737686143,0)" xlink:href="#al"/><use transform="matrix(0.06272750413643886,0,0,0.06272750413643886,86.50122820414919,0)" xlink:href="#aq"/><use transform="matrix(0.06272750413643886,0,0,0.06272750413643886,99.04672903143697,0)" xlink:href="#al"/></g><g id="q"><use transform="matrix(0.0690912562046583,0,0,0.0690912562046583,0,0)" xlink:href="#aC"/><use transform="matrix(0.0690912562046583,0,0,0.0690912562046583,17.894635357006496,0)" xlink:href="#at"/><use transform="matrix(0.0690912562046583,0,0,0.0690912562046583,31.71288659793816,0)" xlink:href="#ar"/><use transform="matrix(0.0690912562046583,0,0,0.0690912562046583,45.53113783886981,0)" xlink:href="#ak"/><use transform="matrix(0.0690912562046583,0,0,0.0690912562046583,57.9675639557083,0)" xlink:href="#az"/><use transform="matrix(0.0690912562046583,0,0,0.0690912562046583,71.78581519663994,0)" xlink:href="#au"/><use transform="matrix(0.0690912562046583,0,0,0.0690912562046583,77.24402443680796,0)" xlink:href="#as"/><use transform="matrix(0.0690912562046583,0,0,0.0690912562046583,84.15315005727379,0)" xlink:href="#al"/></g><g id="r"><use transform="matrix(0.0690912562046583,0,0,0.0690912562046583,0,0)" xlink:href="#am"/><use transform="matrix(0.0690912562046583,0,0,0.0690912562046583,16.58190148911799,0)" xlink:href="#ai"/><use transform="matrix(0.0690912562046583,0,0,0.0690912562046583,24.803760977472326,0)" xlink:href="#at"/><use transform="matrix(0.0690912562046583,0,0,0.0690912562046583,38.62201221840398,0)" xlink:href="#aq"/><use transform="matrix(0.0690912562046583,0,0,0.0690912562046583,52.44026345933564,0)" xlink:href="#az"/><use transform="matrix(0.0690912562046583,0,0,0.0690912562046583,66.2585147002673,0)" xlink:href="#as"/><use transform="matrix(0.0690912562046583,0,0,0.0690912562046583,73.16764032073313,0)" xlink:href="#at"/></g><path fill="#333" d="M141 0L90-78 38 0H4l68-98-65-92h35l48 74 47-74h35l-64 92 68 98h-35" id="aE"/><path fill="#333" d="M115-194c53 0 69 39 70 98 0 66-23 100-70 100C84 3 66-7 56-30L54 0H23l1-261h32v101c10-23 28-34 59-34zm-8 174c40 0 45-34 45-75 0-40-5-75-45-74-42 0-51 32-51 76 0 43 10 73 51 73" id="aF"/><g id="s"><use transform="matrix(0.06272750413643886,0,0,0.06272750413643886,0,0)" xlink:href="#af"/><use transform="matrix(0.06272750413643886,0,0,0.06272750413643886,15.054600992745327,0)" xlink:href="#aE"/><use transform="matrix(0.06272750413643886,0,0,0.06272750413643886,26.345551737304323,0)" xlink:href="#ao"/><use transform="matrix(0.06272750413643886,0,0,0.06272750413643886,31.301024564082994,0)" xlink:href="#aF"/><use transform="matrix(0.06272750413643886,0,0,0.06272750413643886,43.84652539137077,0)" xlink:href="#aj"/></g><path fill="#333" d="M140-251c81 0 123 46 123 126C263-53 228-8 163 1c7 30 30 48 69 40v23c-55 16-95-15-103-61C56-3 17-48 17-125c0-80 42-126 123-126zm0 227c63 0 89-41 89-101s-29-99-89-99c-61 0-89 39-89 99S79-25 140-24" id="aG"/><g id="t"><use transform="matrix(0.06272750413643886,0,0,0.06272750413643886,0,0)" xlink:href="#aG"/><use transform="matrix(0.06272750413643886,0,0,0.06272750413643886,17.563701158202882,0)" xlink:href="#aB"/><use transform="matrix(0.06272750413643886,0,0,0.06272750413643886,33.81012472954055,0)" xlink:href="#aC"/><use transform="matrix(0.06272750413643886,0,0,0.06272750413643886,50.05654830087821,0)" xlink:href="#at"/><use transform="matrix(0.06272750413643886,0,0,0.06272750413643886,62.60204912816599,0)" xlink:href="#aq"/><use transform="matrix(0.06272750413643886,0,0,0.06272750413643886,75.14754995545375,0)" xlink:href="#aj"/></g><g id="u"><use transform="matrix(0.06272750413643886,0,0,0.06272750413643886,0,0)" xlink:href="#af"/><use transform="matrix(0.06272750413643886,0,0,0.06272750413643886,15.054600992745327,0)" xlink:href="#ak"/><use transform="matrix(0.06272750413643886,0,0,0.06272750413643886,26.345551737304323,0)" xlink:href="#an"/><use transform="matrix(0.06272750413643886,0,0,0.06272750413643886,37.63650248186332,0)" xlink:href="#al"/><use transform="matrix(0.06272750413643886,0,0,0.06272750413643886,50.18200330915109,0)" xlink:href="#ar"/><use transform="matrix(0.06272750413643886,0,0,0.06272750413643886,62.72750413643887,0)" xlink:href="#aj"/><use transform="matrix(0.06272750413643886,0,0,0.06272750413643886,75.27300496372663,0)" xlink:href="#ao"/><use transform="matrix(0.06272750413643886,0,0,0.06272750413643886,80.22847779050531,0)" xlink:href="#al"/></g><path fill="#333" d="M143 4C61 4 22-44 18-125c-5-107 100-154 193-111 17 8 29 25 37 43l-32 9c-13-25-37-40-76-40-61 0-88 39-88 99 0 61 29 100 91 101 35 0 62-11 79-27v-45h-74v-28h105v86C228-13 192 4 143 4" id="aH"/><g id="v"><use transform="matrix(0.06272750413643886,0,0,0.06272750413643886,0,0)" xlink:href="#aH"/><use transform="matrix(0.06272750413643886,0,0,0.06272750413643886,17.563701158202882,0)" xlink:href="#aj"/><use transform="matrix(0.06272750413643886,0,0,0.06272750413643886,30.109201985490657,0)" xlink:href="#ai"/><use transform="matrix(0.06272750413643886,0,0,0.06272750413643886,37.573774977726885,0)" xlink:href="#al"/></g><g id="w"><use transform="matrix(0.06272750413643886,0,0,0.06272750413643886,0,0)" xlink:href="#am"/><use transform="matrix(0.06272750413643886,0,0,0.06272750413643886,15.054600992745327,0)" xlink:href="#at"/><use transform="matrix(0.06272750413643886,0,0,0.06272750413643886,27.6001018200331,0)" xlink:href="#ar"/><use transform="matrix(0.06272750413643886,0,0,0.06272750413643886,40.14560264732087,0)" xlink:href="#as"/><use transform="matrix(0.06272750413643886,0,0,0.06272750413643886,46.418353060964755,0)" xlink:href="#at"/><use transform="matrix(0.06272750413643886,0,0,0.06272750413643886,58.96385388825253,0)" xlink:href="#ak"/></g><g id="x"><use transform="matrix(0.06272750413643886,0,0,0.06272750413643886,0,0)" xlink:href="#aC"/><use transform="matrix(0.06272750413643886,0,0,0.06272750413643886,16.246423571337665,0)" xlink:href="#al"/><use transform="matrix(0.06272750413643886,0,0,0.06272750413643886,28.79192439862544,0)" xlink:href="#aq"/><use transform="matrix(0.06272750413643886,0,0,0.06272750413643886,41.337425225913215,0)" xlink:href="#al"/><use transform="matrix(0.06272750413643886,0,0,0.06272750413643886,53.88292605320099,0)" xlink:href="#ak"/><use transform="matrix(0.06272750413643886,0,0,0.06272750413643886,65.17387679775999,0)" xlink:href="#as"/><use transform="matrix(0.06272750413643886,0,0,0.06272750413643886,71.44662721140388,0)" xlink:href="#ai"/><use transform="matrix(0.06272750413643886,0,0,0.06272750413643886,78.9112002036401,0)" xlink:href="#al"/></g><g id="y"><use transform="matrix(0.06272750413643886,0,0,0.06272750413643886,0,0)" xlink:href="#au"/><use transform="matrix(0.06272750413643886,0,0,0.06272750413643886,4.95547282677867,0)" xlink:href="#at"/><use transform="matrix(0.06272750413643886,0,0,0.06272750413643886,17.500973654066442,0)" xlink:href="#an"/><use transform="matrix(0.06272750413643886,0,0,0.06272750413643886,28.79192439862544,0)" xlink:href="#al"/><use transform="matrix(0.06272750413643886,0,0,0.06272750413643886,41.337425225913215,0)" xlink:href="#au"/></g><g id="z"><use transform="matrix(0.06272750413643886,0,0,0.06272750413643886,0,0)" xlink:href="#an"/><use transform="matrix(0.06272750413643886,0,0,0.06272750413643886,11.290950744558996,0)" xlink:href="#at"/><use transform="matrix(0.06272750413643886,0,0,0.06272750413643886,23.83645157184677,0)" xlink:href="#au"/><use transform="matrix(0.06272750413643886,0,0,0.06272750413643886,28.79192439862544,0)" xlink:href="#aj"/><use transform="matrix(0.06272750413643886,0,0,0.06272750413643886,41.337425225913215,0)" xlink:href="#as"/><use transform="matrix(0.06272750413643886,0,0,0.06272750413643886,47.6101756395571,0)" xlink:href="#al"/></g><path fill="#333" d="M9 0v-24l116-142H16v-24h144v24L44-24h123V0H9" id="aI"/><g id="A"><use transform="matrix(0.06272750413643886,0,0,0.06272750413643886,0,0)" xlink:href="#ap"/><use transform="matrix(0.06272750413643886,0,0,0.06272750413643886,15.054600992745327,0)" xlink:href="#as"/><use transform="matrix(0.06272750413643886,0,0,0.06272750413643886,21.327351406389212,0)" xlink:href="#az"/><use transform="matrix(0.06272750413643886,0,0,0.06272750413643886,33.87285223367699,0)" xlink:href="#al"/><use transform="matrix(0.06272750413643886,0,0,0.06272750413643886,46.41835306096476,0)" xlink:href="#au"/><use transform="matrix(0.06272750413643886,0,0,0.06272750413643886,51.37382588774343,0)" xlink:href="#ao"/><use transform="matrix(0.06272750413643886,0,0,0.06272750413643886,56.329298714522096,0)" xlink:href="#aI"/><use transform="matrix(0.06272750413643886,0,0,0.06272750413643886,67.6202494590811,0)" xlink:href="#al"/></g><g id="B"><use transform="matrix(0.06272750413643886,0,0,0.06272750413643886,0,0)" xlink:href="#aj"/><use transform="matrix(0.06272750413643886,0,0,0.06272750413643886,12.545500827287773,0)" xlink:href="#ag"/><use transform="matrix(0.06272750413643886,0,0,0.06272750413643886,31.301024564082994,0)" xlink:href="#ah"/><use transform="matrix(0.06272750413643886,0,0,0.06272750413643886,43.84652539137077,0)" xlink:href="#ai"/><use transform="matrix(0.06272750413643886,0,0,0.06272750413643886,51.311098383606996,0)" xlink:href="#aj"/><use transform="matrix(0.06272750413643886,0,0,0.06272750413643886,63.85659921089477,0)" xlink:href="#ak"/><use transform="matrix(0.06272750413643886,0,0,0.06272750413643886,75.14754995545377,0)" xlink:href="#al"/><use transform="matrix(0.06272750413643886,0,0,0.06272750413643886,87.69305078274154,0)" xlink:href="#ak"/></g><g id="C"><use transform="matrix(0.06272750413643886,0,0,0.06272750413643886,0,0)" xlink:href="#am"/><use transform="matrix(0.06272750413643886,0,0,0.06272750413643886,15.054600992745327,0)" xlink:href="#ai"/><use transform="matrix(0.06272750413643886,0,0,0.06272750413643886,22.519173984981553,0)" xlink:href="#at"/><use transform="matrix(0.06272750413643886,0,0,0.06272750413643886,35.064674812269324,0)" xlink:href="#aq"/><use transform="matrix(0.06272750413643886,0,0,0.06272750413643886,47.6101756395571,0)" xlink:href="#az"/><use transform="matrix(0.06272750413643886,0,0,0.06272750413643886,60.155676466844874,0)" xlink:href="#as"/><use transform="matrix(0.06272750413643886,0,0,0.06272750413643886,66.42842688048876,0)" xlink:href="#at"/><use transform="matrix(0.06272750413643886,0,0,0.06272750413643886,78.97392770777653,0)" xlink:href="#ak"/></g><g id="D"><use transform="matrix(0.06272750413643886,0,0,0.06272750413643886,0,0)" xlink:href="#ah"/><use transform="matrix(0.06272750413643886,0,0,0.06272750413643886,12.545500827287773,0)" xlink:href="#ai"/><use transform="matrix(0.06272750413643886,0,0,0.06272750413643886,20.010073819524,0)" xlink:href="#at"/><use transform="matrix(0.06272750413643886,0,0,0.06272750413643886,32.55557464681177,0)" xlink:href="#aq"/><use transform="matrix(0.06272750413643886,0,0,0.06272750413643886,45.101075474099545,0)" xlink:href="#az"/><use transform="matrix(0.06272750413643886,0,0,0.06272750413643886,57.64657630138732,0)" xlink:href="#as"/><use transform="matrix(0.06272750413643886,0,0,0.06272750413643886,63.919326715031204,0)" xlink:href="#at"/><use transform="matrix(0.06272750413643886,0,0,0.06272750413643886,76.46482754231897,0)" xlink:href="#ak"/></g><path fill="#333" d="M108 0H70L1-190h34L89-25l56-165h34" id="aJ"/><g id="E"><use transform="matrix(0.06272750413643886,0,0,0.06272750413643886,0,0)" xlink:href="#ap"/><use transform="matrix(0.06272750413643886,0,0,0.06272750413643886,15.054600992745327,0)" xlink:href="#ah"/><use transform="matrix(0.06272750413643886,0,0,0.06272750413643886,27.6001018200331,0)" xlink:href="#ai"/><use transform="matrix(0.06272750413643886,0,0,0.06272750413643886,35.064674812269324,0)" xlink:href="#at"/><use transform="matrix(0.06272750413643886,0,0,0.06272750413643886,47.6101756395571,0)" xlink:href="#aJ"/><use transform="matrix(0.06272750413643886,0,0,0.06272750413643886,58.9011263841161,0)" xlink:href="#al"/></g><g id="F"><use transform="matrix(0.06272750413643886,0,0,0.06272750413643886,0,0)" xlink:href="#aD"/><use transform="matrix(0.06272750413643886,0,0,0.06272750413643886,13.360958381061478,0)" xlink:href="#al"/><use transform="matrix(0.06272750413643886,0,0,0.06272750413643886,25.90645920834925,0)" xlink:href="#au"/><use transform="matrix(0.06272750413643886,0,0,0.06272750413643886,30.86193203512792,0)" xlink:href="#ao"/><use transform="matrix(0.06272750413643886,0,0,0.06272750413643886,35.81740486190659,0)" xlink:href="#aq"/><use transform="matrix(0.06272750413643886,0,0,0.06272750413643886,48.36290568919436,0)" xlink:href="#al"/></g><path fill="#333" d="M232-93c-1 65-40 97-104 97C67 4 28-28 28-90v-158h33c8 89-33 224 67 224 102 0 64-133 71-224h33v155" id="aK"/><path fill="#333" d="M141-36C126-15 110 5 73 4 37 3 15-17 15-53c-1-64 63-63 125-63 3-35-9-54-41-54-24 1-41 7-42 31l-33-3c5-37 33-52 76-52 45 0 72 20 72 64v82c-1 20 7 32 28 27v20c-31 9-61-2-59-35zM48-53c0 20 12 33 32 33 41-3 63-29 60-74-43 2-92-5-92 41zm25-158c8-23 27-35 38-54h36v5l-58 49H73" id="aL"/><g id="G"><use transform="matrix(0.06272750413643886,0,0,0.06272750413643886,0,0)" xlink:href="#aK"/><use transform="matrix(0.06272750413643886,0,0,0.06272750413643886,16.246423571337665,0)" xlink:href="#ak"/><use transform="matrix(0.06272750413643886,0,0,0.06272750413643886,27.537374315896663,0)" xlink:href="#az"/><use transform="matrix(0.06272750413643886,0,0,0.06272750413643886,40.08287514318444,0)" xlink:href="#aL"/><use transform="matrix(0.06272750413643886,0,0,0.06272750413643886,52.62837597047221,0)" xlink:href="#ai"/><use transform="matrix(0.06272750413643886,0,0,0.06272750413643886,60.09294896270844,0)" xlink:href="#ao"/><use transform="matrix(0.06272750413643886,0,0,0.06272750413643886,65.04842178948711,0)" xlink:href="#at"/></g><path fill="#333" d="M30 0v-248h33v221h125V0H30" id="aM"/><g id="H"><use transform="matrix(0.06272750413643886,0,0,0.06272750413643886,0,0)" xlink:href="#aM"/><use transform="matrix(0.06272750413643886,0,0,0.06272750413643886,12.545500827287773,0)" xlink:href="#ao"/><use transform="matrix(0.06272750413643886,0,0,0.06272750413643886,17.500973654066442,0)" xlink:href="#ak"/><use transform="matrix(0.06272750413643886,0,0,0.06272750413643886,28.79192439862544,0)" xlink:href="#as"/><use transform="matrix(0.06272750413643886,0,0,0.06272750413643886,35.064674812269324,0)" xlink:href="#al"/></g><g id="I"><use transform="matrix(0.06272750413643886,0,0,0.06272750413643886,0,0)" xlink:href="#am"/><use transform="matrix(0.06272750413643886,0,0,0.06272750413643886,15.054600992745327,0)" xlink:href="#ai"/><use transform="matrix(0.06272750413643886,0,0,0.06272750413643886,22.519173984981553,0)" xlink:href="#at"/><use transform="matrix(0.06272750413643886,0,0,0.06272750413643886,35.064674812269324,0)" xlink:href="#aq"/><use transform="matrix(0.06272750413643886,0,0,0.06272750413643886,47.6101756395571,0)" xlink:href="#az"/><use transform="matrix(0.06272750413643886,0,0,0.06272750413643886,60.155676466844874,0)" xlink:href="#as"/><use transform="matrix(0.06272750413643886,0,0,0.06272750413643886,66.42842688048876,0)" xlink:href="#at"/><use transform="matrix(0.06272750413643886,0,0,0.06272750413643886,78.97392770777653,0)" xlink:href="#ak"/></g><g id="J"><use transform="matrix(0.06272750413643886,0,0,0.06272750413643886,0,0)" xlink:href="#ah"/><use transform="matrix(0.06272750413643886,0,0,0.06272750413643886,12.545500827287773,0)" xlink:href="#al"/><use transform="matrix(0.06272750413643886,0,0,0.06272750413643886,25.091001654575546,0)" xlink:href="#ai"/><use transform="matrix(0.06272750413643886,0,0,0.06272750413643886,32.55557464681177,0)" xlink:href="#as"/><use transform="matrix(0.06272750413643886,0,0,0.06272750413643886,38.828325060455654,0)" xlink:href="#ao"/><use transform="matrix(0.06272750413643886,0,0,0.06272750413643886,43.78379788723432,0)" xlink:href="#an"/><use transform="matrix(0.06272750413643886,0,0,0.06272750413643886,55.07474863179332,0)" xlink:href="#ao"/><use transform="matrix(0.06272750413643886,0,0,0.06272750413643886,60.03022145857199,0)" xlink:href="#ah"/><use transform="matrix(0.06272750413643886,0,0,0.06272750413643886,72.57572228585975,0)" xlink:href="#al"/><use transform="matrix(0.06272750413643886,0,0,0.06272750413643886,85.12122311314752,0)" xlink:href="#ar"/><use transform="matrix(0.06272750413643886,0,0,0.06272750413643886,97.66672394043529,0)" xlink:href="#as"/><use transform="matrix(0.06272750413643886,0,0,0.06272750413643886,103.93947435407918,0)" xlink:href="#aj"/><use transform="matrix(0.06272750413643886,0,0,0.06272750413643886,116.48497518136695,0)" xlink:href="#ak"/></g><g id="K"><use transform="matrix(0.06272750413643886,0,0,0.06272750413643886,0,0)" xlink:href="#az"/><use transform="matrix(0.06272750413643886,0,0,0.06272750413643886,12.545500827287773,0)" xlink:href="#ak"/><use transform="matrix(0.06272750413643886,0,0,0.06272750413643886,23.83645157184677,0)" xlink:href="#az"/><use transform="matrix(0.06272750413643886,0,0,0.06272750413643886,36.38195239913454,0)" xlink:href="#aL"/><use transform="matrix(0.06272750413643886,0,0,0.06272750413643886,48.927453226422315,0)" xlink:href="#ai"/><use transform="matrix(0.06272750413643886,0,0,0.06272750413643886,56.39202621865854,0)" xlink:href="#ao"/><use transform="matrix(0.06272750413643886,0,0,0.06272750413643886,61.34749904543721,0)" xlink:href="#at"/></g><path fill="#333" d="M177-190C167-65 218 103 67 71c-23-6-38-20-44-43l32-5c15 47 100 32 89-28v-30C133-14 115 1 83 1 29 1 15-40 15-95c0-56 16-97 71-98 29-1 48 16 59 35 1-10 0-23 2-32h30zM94-22c36 0 50-32 50-73 0-42-14-75-50-75-39 0-46 34-46 75s6 73 46 73" id="aN"/><g id="L"><use transform="matrix(0.06272750413643886,0,0,0.06272750413643886,0,0)" xlink:href="#aM"/><use transform="matrix(0.06272750413643886,0,0,0.06272750413643886,12.545500827287773,0)" xlink:href="#at"/><use transform="matrix(0.06272750413643886,0,0,0.06272750413643886,25.091001654575546,0)" xlink:href="#aN"/><use transform="matrix(0.06272750413643886,0,0,0.06272750413643886,37.63650248186332,0)" xlink:href="#ao"/><use transform="matrix(0.06272750413643886,0,0,0.06272750413643886,42.591975308641985,0)" xlink:href="#ar"/></g><path fill="#333" d="M101-234c-31-9-42 10-38 44h38v23H63V0H32v-167H5v-23h27c-7-52 17-82 69-68v24" id="aO"/><g id="M"><use transform="matrix(0.06272750413643886,0,0,0.06272750413643886,0,0)" xlink:href="#ah"/><use transform="matrix(0.06272750413643886,0,0,0.06272750413643886,12.545500827287773,0)" xlink:href="#au"/><use transform="matrix(0.06272750413643886,0,0,0.06272750413643886,17.500973654066442,0)" xlink:href="#al"/><use transform="matrix(0.06272750413643886,0,0,0.06272750413643886,30.046474481354217,0)" xlink:href="#as"/><use transform="matrix(0.06272750413643886,0,0,0.06272750413643886,36.3192248949981,0)" xlink:href="#al"/><use transform="matrix(0.06272750413643886,0,0,0.06272750413643886,48.864725722285876,0)" xlink:href="#aO"/><use transform="matrix(0.06272750413643886,0,0,0.06272750413643886,55.13747613592976,0)" xlink:href="#at"/><use transform="matrix(0.06272750413643886,0,0,0.06272750413643886,67.68297696321753,0)" xlink:href="#ai"/><use transform="matrix(0.06272750413643886,0,0,0.06272750413643886,75.14754995545375,0)" xlink:href="#ag"/><use transform="matrix(0.06272750413643886,0,0,0.06272750413643886,93.90307369224897,0)" xlink:href="#al"/></g><g id="N"><use transform="matrix(0.06272750413643886,0,0,0.06272750413643886,0,0)" xlink:href="#aB"/><use transform="matrix(0.06272750413643886,0,0,0.06272750413643886,16.246423571337665,0)" xlink:href="#aj"/><use transform="matrix(0.06272750413643886,0,0,0.06272750413643886,28.79192439862544,0)" xlink:href="#as"/><use transform="matrix(0.06272750413643886,0,0,0.06272750413643886,35.064674812269324,0)" xlink:href="#at"/><use transform="matrix(0.06272750413643886,0,0,0.06272750413643886,47.6101756395571,0)" xlink:href="#ai"/><use transform="matrix(0.06272750413643886,0,0,0.06272750413643886,55.07474863179333,0)" xlink:href="#ar"/><use transform="matrix(0.06272750413643886,0,0,0.06272750413643886,67.6202494590811,0)" xlink:href="#al"/></g><path fill="#333" d="M34 0v-190h32V0H34zM24-211c8-23 27-35 38-54h36v5l-58 49H24" id="aP"/><g id="O"><use transform="matrix(0.06272750413643886,0,0,0.06272750413643886,0,0)" xlink:href="#aF"/><use transform="matrix(0.06272750413643886,0,0,0.06272750413643886,12.545500827287773,0)" xlink:href="#aj"/><use transform="matrix(0.06272750413643886,0,0,0.06272750413643886,25.091001654575546,0)" xlink:href="#ar"/><use transform="matrix(0.06272750413643886,0,0,0.06272750413643886,37.63650248186332,0)" xlink:href="#aj"/><use transform="matrix(0.06272750413643886,0,0,0.06272750413643886,50.18200330915109,0)" xlink:href="#aO"/><use transform="matrix(0.06272750413643886,0,0,0.06272750413643886,56.454753722794976,0)" xlink:href="#aP"/><use transform="matrix(0.06272750413643886,0,0,0.06272750413643886,62.72750413643886,0)" xlink:href="#an"/><use transform="matrix(0.06272750413643886,0,0,0.06272750413643886,74.01845488099785,0)" xlink:href="#ao"/><use transform="matrix(0.06272750413643886,0,0,0.06272750413643886,78.97392770777653,0)" xlink:href="#at"/><use transform="matrix(0.06272750413643886,0,0,0.06272750413643886,91.51942853506429,0)" xlink:href="#ak"/></g><g id="P"><use transform="matrix(0.06272750413643886,0,0,0.06272750413643886,0,0)" xlink:href="#aM"/><use transform="matrix(0.06272750413643886,0,0,0.06272750413643886,12.545500827287773,0)" xlink:href="#aj"/><use transform="matrix(0.06272750413643886,0,0,0.06272750413643886,25.091001654575546,0)" xlink:href="#aJ"/><use transform="matrix(0.06272750413643886,0,0,0.06272750413643886,36.38195239913454,0)" xlink:href="#al"/></g><g id="Q"><use transform="matrix(0.06272750413643886,0,0,0.06272750413643886,0,0)" xlink:href="#ah"/><use transform="matrix(0.06272750413643886,0,0,0.06272750413643886,12.545500827287773,0)" xlink:href="#ai"/><use transform="matrix(0.06272750413643886,0,0,0.06272750413643886,20.010073819524,0)" xlink:href="#at"/><use transform="matrix(0.06272750413643886,0,0,0.06272750413643886,32.55557464681177,0)" xlink:href="#aq"/><use transform="matrix(0.06272750413643886,0,0,0.06272750413643886,45.101075474099545,0)" xlink:href="#az"/><use transform="matrix(0.06272750413643886,0,0,0.06272750413643886,57.64657630138732,0)" xlink:href="#as"/><use transform="matrix(0.06272750413643886,0,0,0.06272750413643886,63.919326715031204,0)" xlink:href="#at"/></g><path fill="#333" d="M185-189c-5-48-123-54-124 2 14 75 158 14 163 119 3 78-121 87-175 55-17-10-28-26-33-46l33-7c5 56 141 63 141-1 0-78-155-14-162-118-5-82 145-84 179-34 5 7 8 16 11 25" id="aQ"/><g id="R"><use transform="matrix(0.05636375206821944,0,0,0.05636375206821944,0,0)" xlink:href="#aQ"/><use transform="matrix(0.05636375206821944,0,0,0.05636375206821944,13.527300496372666,0)" xlink:href="#at"/><use transform="matrix(0.05636375206821944,0,0,0.05636375206821944,24.80005091001655,0)" xlink:href="#au"/><use transform="matrix(0.05636375206821944,0,0,0.05636375206821944,29.25278732340589,0)" xlink:href="#ao"/><use transform="matrix(0.05636375206821944,0,0,0.05636375206821944,33.70552373679522,0)" xlink:href="#an"/><use transform="matrix(0.05636375206821944,0,0,0.05636375206821944,43.85099910907472,0)" xlink:href="#ao"/><use transform="matrix(0.05636375206821944,0,0,0.05636375206821944,48.30373552246406,0)" xlink:href="#as"/><use transform="matrix(0.05636375206821944,0,0,0.05636375206821944,53.940110729286005,0)" xlink:href="#al"/></g><path fill="#333" d="M100-194c62-1 85 37 85 99 1 63-27 99-86 99S16-35 15-95c0-66 28-99 85-99zM99-20c44 1 53-31 53-75 0-43-8-75-51-75s-53 32-53 75 10 74 51 75zM76-211c8-23 27-35 38-54h36v5l-58 49H76" id="aR"/><g id="S"><use transform="matrix(0.05636375206821944,0,0,0.05636375206821944,0,0)" xlink:href="#ai"/><use transform="matrix(0.05636375206821944,0,0,0.05636375206821944,6.707286496118114,0)" xlink:href="#aj"/><use transform="matrix(0.05636375206821944,0,0,0.05636375206821944,17.980036909762,0)" xlink:href="#au"/><use transform="matrix(0.05636375206821944,0,0,0.05636375206821944,22.432773323151334,0)" xlink:href="#al"/><use transform="matrix(0.05636375206821944,0,0,0.05636375206821944,33.70552373679522,0)" xlink:href="#as"/><use transform="matrix(0.05636375206821944,0,0,0.05636375206821944,39.34189894361717,0)" xlink:href="#aR"/><use transform="matrix(0.05636375206821944,0,0,0.05636375206821944,50.61464935726106,0)" xlink:href="#ai"/><use transform="matrix(0.05636375206821944,0,0,0.05636375206821944,57.32193585337917,0)" xlink:href="#ao"/><use transform="matrix(0.05636375206821944,0,0,0.05636375206821944,61.774672266768505,0)" xlink:href="#at"/></g><g id="T"><use transform="matrix(0.06272750413643886,0,0,0.06272750413643886,0,0)" xlink:href="#aC"/><use transform="matrix(0.06272750413643886,0,0,0.06272750413643886,16.246423571337665,0)" xlink:href="#at"/><use transform="matrix(0.06272750413643886,0,0,0.06272750413643886,28.79192439862544,0)" xlink:href="#ar"/><use transform="matrix(0.06272750413643886,0,0,0.06272750413643886,41.337425225913215,0)" xlink:href="#ak"/><use transform="matrix(0.06272750413643886,0,0,0.06272750413643886,52.62837597047221,0)" xlink:href="#az"/><use transform="matrix(0.06272750413643886,0,0,0.06272750413643886,65.17387679775999,0)" xlink:href="#ag"/><use transform="matrix(0.06272750413643886,0,0,0.06272750413643886,83.92940053455521,0)" xlink:href="#ao"/><use transform="matrix(0.06272750413643886,0,0,0.06272750413643886,88.88487336133389,0)" xlink:href="#aq"/><use transform="matrix(0.06272750413643886,0,0,0.06272750413643886,101.43037418862166,0)" xlink:href="#at"/><use transform="matrix(0.06272750413643886,0,0,0.06272750413643886,113.97587501590942,0)" xlink:href="#ai"/></g><path fill="#333" d="M30-248c118-7 216 8 213 122C240-48 200 0 122 0H30v-248zM63-27c89 8 146-16 146-99s-60-101-146-95v194" id="aS"/><g id="U"><use transform="matrix(0.06272750413643886,0,0,0.06272750413643886,0,0)" xlink:href="#aS"/><use transform="matrix(0.06272750413643886,0,0,0.06272750413643886,16.246423571337665,0)" xlink:href="#ao"/><use transform="matrix(0.06272750413643886,0,0,0.06272750413643886,21.201896398116336,0)" xlink:href="#ak"/><use transform="matrix(0.06272750413643886,0,0,0.06272750413643886,32.49284714267533,0)" xlink:href="#ah"/><use transform="matrix(0.06272750413643886,0,0,0.06272750413643886,45.038347969963105,0)" xlink:href="#at"/><use transform="matrix(0.06272750413643886,0,0,0.06272750413643886,57.58384879725088,0)" xlink:href="#ar"/><use transform="matrix(0.06272750413643886,0,0,0.06272750413643886,70.12934962453865,0)" xlink:href="#ao"/><use transform="matrix(0.06272750413643886,0,0,0.06272750413643886,75.08482245131732,0)" xlink:href="#aF"/><use transform="matrix(0.06272750413643886,0,0,0.06272750413643886,87.63032327860509,0)" xlink:href="#ao"/><use transform="matrix(0.06272750413643886,0,0,0.06272750413643886,92.58579610538376,0)" xlink:href="#au"/><use transform="matrix(0.06272750413643886,0,0,0.06272750413643886,97.54126893216244,0)" xlink:href="#ao"/><use transform="matrix(0.06272750413643886,0,0,0.06272750413643886,102.49674175894111,0)" xlink:href="#aI"/><use transform="matrix(0.06272750413643886,0,0,0.06272750413643886,113.78769250350011,0)" xlink:href="#al"/></g><g id="V"><use transform="matrix(0.06272750413643886,0,0,0.06272750413643886,0,0)" xlink:href="#ag"/><use transform="matrix(0.06272750413643886,0,0,0.06272750413643886,18.75552373679522,0)" xlink:href="#aL"/><use transform="matrix(0.06272750413643886,0,0,0.06272750413643886,31.301024564082994,0)" xlink:href="#ay"/><use transform="matrix(0.06272750413643886,0,0,0.06272750413643886,43.84652539137077,0)" xlink:href="#az"/><use transform="matrix(0.06272750413643886,0,0,0.06272750413643886,56.39202621865854,0)" xlink:href="#ao"/><use transform="matrix(0.06272750413643886,0,0,0.06272750413643886,61.34749904543721,0)" xlink:href="#ar"/><use transform="matrix(0.06272750413643886,0,0,0.06272750413643886,73.89299987272499,0)" xlink:href="#al"/></g><g id="W"><use transform="matrix(0.06272750413643886,0,0,0.06272750413643886,0,0)" xlink:href="#ap"/><use transform="matrix(0.06272750413643886,0,0,0.06272750413643886,15.054600992745327,0)" xlink:href="#az"/><use transform="matrix(0.06272750413643886,0,0,0.06272750413643886,27.6001018200331,0)" xlink:href="#ag"/><use transform="matrix(0.06272750413643886,0,0,0.06272750413643886,46.355625556828315,0)" xlink:href="#aj"/><use transform="matrix(0.06272750413643886,0,0,0.06272750413643886,58.90112638411609,0)" xlink:href="#ar"/><use transform="matrix(0.06272750413643886,0,0,0.06272750413643886,71.44662721140386,0)" xlink:href="#as"/><use transform="matrix(0.06272750413643886,0,0,0.06272750413643886,77.71937762504776,0)" xlink:href="#al"/></g><g id="X"><use transform="matrix(0.06272750413643886,0,0,0.06272750413643886,0,0)" xlink:href="#aC"/><use transform="matrix(0.06272750413643886,0,0,0.06272750413643886,16.246423571337665,0)" xlink:href="#at"/><use transform="matrix(0.06272750413643886,0,0,0.06272750413643886,28.79192439862544,0)" xlink:href="#ar"/><use transform="matrix(0.06272750413643886,0,0,0.06272750413643886,41.337425225913215,0)" xlink:href="#ak"/><use transform="matrix(0.06272750413643886,0,0,0.06272750413643886,52.62837597047221,0)" xlink:href="#az"/><use transform="matrix(0.06272750413643886,0,0,0.06272750413643886,65.17387679775999,0)" xlink:href="#au"/><use transform="matrix(0.06272750413643886,0,0,0.06272750413643886,70.12934962453866,0)" xlink:href="#as"/><use transform="matrix(0.06272750413643886,0,0,0.06272750413643886,76.40210003818255,0)" xlink:href="#al"/></g><g id="Y"><use transform="matrix(0.06272750413643886,0,0,0.06272750413643886,0,0)" xlink:href="#aj"/><use transform="matrix(0.06272750413643886,0,0,0.06272750413643886,12.545500827287773,0)" xlink:href="#aE"/><use transform="matrix(0.06272750413643886,0,0,0.06272750413643886,23.83645157184677,0)" xlink:href="#as"/><use transform="matrix(0.06272750413643886,0,0,0.06272750413643886,30.109201985490657,0)" xlink:href="#aj"/><use transform="matrix(0.06272750413643886,0,0,0.06272750413643886,42.65470281277843,0)" xlink:href="#ai"/><use transform="matrix(0.06272750413643886,0,0,0.06272750413643886,50.11927580501466,0)" xlink:href="#ar"/><use transform="matrix(0.06272750413643886,0,0,0.06272750413643886,62.664776632302434,0)" xlink:href="#al"/></g><g id="Z"><use transform="matrix(0.06272750413643886,0,0,0.06272750413643886,0,0)" xlink:href="#aM"/><use transform="matrix(0.06272750413643886,0,0,0.06272750413643886,12.545500827287773,0)" xlink:href="#at"/><use transform="matrix(0.06272750413643886,0,0,0.06272750413643886,25.091001654575546,0)" xlink:href="#an"/><use transform="matrix(0.06272750413643886,0,0,0.06272750413643886,36.38195239913454,0)" xlink:href="#al"/><use transform="matrix(0.06272750413643886,0,0,0.06272750413643886,48.927453226422315,0)" xlink:href="#au"/></g><g id="aa"><use transform="matrix(0.0690912562046583,0,0,0.0690912562046583,0,0)" xlink:href="#aB"/><use transform="matrix(0.0690912562046583,0,0,0.0690912562046583,17.894635357006496,0)" xlink:href="#aj"/><use transform="matrix(0.0690912562046583,0,0,0.0690912562046583,31.71288659793816,0)" xlink:href="#as"/><use transform="matrix(0.0690912562046583,0,0,0.0690912562046583,38.62201221840398,0)" xlink:href="#at"/><use transform="matrix(0.0690912562046583,0,0,0.0690912562046583,52.44026345933564,0)" xlink:href="#ai"/><use transform="matrix(0.0690912562046583,0,0,0.0690912562046583,60.66212294768998,0)" xlink:href="#ar"/><use transform="matrix(0.0690912562046583,0,0,0.0690912562046583,74.48037418862164,0)" xlink:href="#al"/></g><g id="ab"><use transform="matrix(0.0690912562046583,0,0,0.0690912562046583,0,0)" xlink:href="#ah"/><use transform="matrix(0.0690912562046583,0,0,0.0690912562046583,13.818251240931659,0)" xlink:href="#ai"/><use transform="matrix(0.0690912562046583,0,0,0.0690912562046583,22.040110729285995,0)" xlink:href="#at"/><use transform="matrix(0.0690912562046583,0,0,0.0690912562046583,35.85836197021766,0)" xlink:href="#aq"/><use transform="matrix(0.0690912562046583,0,0,0.0690912562046583,49.676613211149316,0)" xlink:href="#az"/><use transform="matrix(0.0690912562046583,0,0,0.0690912562046583,63.494864452080975,0)" xlink:href="#as"/><use transform="matrix(0.0690912562046583,0,0,0.0690912562046583,70.4039900725468,0)" xlink:href="#at"/></g><g id="ac"><use transform="matrix(0.06272750413643886,0,0,0.06272750413643886,0,0)" xlink:href="#aM"/><use transform="matrix(0.06272750413643886,0,0,0.06272750413643886,12.545500827287773,0)" xlink:href="#at"/><use transform="matrix(0.06272750413643886,0,0,0.06272750413643886,25.091001654575546,0)" xlink:href="#an"/><use transform="matrix(0.06272750413643886,0,0,0.06272750413643886,36.38195239913454,0)" xlink:href="#al"/><use transform="matrix(0.06272750413643886,0,0,0.06272750413643886,48.927453226422315,0)" xlink:href="#au"/></g><g id="ad"><use transform="matrix(0.06272750413643886,0,0,0.06272750413643886,0,0)" xlink:href="#an"/><use transform="matrix(0.06272750413643886,0,0,0.06272750413643886,11.290950744558996,0)" xlink:href="#al"/><use transform="matrix(0.06272750413643886,0,0,0.06272750413643886,23.83645157184677,0)" xlink:href="#aq"/><use transform="matrix(0.06272750413643886,0,0,0.06272750413643886,36.38195239913454,0)" xlink:href="#al"/><use transform="matrix(0.06272750413643886,0,0,0.06272750413643886,48.927453226422315,0)" xlink:href="#ak"/><use transform="matrix(0.06272750413643886,0,0,0.06272750413643886,60.21840397098131,0)" xlink:href="#as"/><use transform="matrix(0.06272750413643886,0,0,0.06272750413643886,66.4911543846252,0)" xlink:href="#ai"/><use transform="matrix(0.06272750413643886,0,0,0.06272750413643886,73.95572737686143,0)" xlink:href="#al"/><use transform="matrix(0.06272750413643886,0,0,0.06272750413643886,86.50122820414919,0)" xlink:href="#aq"/><use transform="matrix(0.06272750413643886,0,0,0.06272750413643886,99.04672903143697,0)" xlink:href="#at"/></g><g id="ae"><use transform="matrix(0.05636375206821944,0,0,0.05636375206821944,0,0)" xlink:href="#aH"/><use transform="matrix(0.05636375206821944,0,0,0.05636375206821944,15.781850579101443,0)" xlink:href="#aj"/><use transform="matrix(0.05636375206821944,0,0,0.05636375206821944,27.05460099274533,0)" xlink:href="#ai"/><use transform="matrix(0.05636375206821944,0,0,0.05636375206821944,33.761887488863444,0)" xlink:href="#al"/></g></defs></g></svg>